<svg width="57" height="57" fill="none" xmlns="http://www.w3.org/2000/svg"><circle cx="28.5" cy="28.5" r="28.5" transform="rotate(180 28.5 28.5)" fill="#fff"/><circle cx="28.5" cy="28.5" r="25" transform="rotate(180 28.5 28.5)" stroke="#18BBEB" stroke-opacity=".2" stroke-width="7"/><circle cx="28.5" cy="28.5" r="28" transform="rotate(180 28.5 28.5)" stroke="#18BBEB" stroke-opacity=".5"/><path d="M22.265 29.178l8.168 8.541a.891.891 0 001.298 0 .989.989 0 000-1.355l-7.52-7.863 7.52-7.864a.99.99 0 000-1.357.891.891 0 00-1.299 0l-8.167 8.542a1 1 0 000 1.356z" fill="url(#paint0_linear)"/><defs><linearGradient id="paint0_linear" x1="30.154" y1="5.938" x2="46.84" y2="15.181" gradientUnits="userSpaceOnUse"><stop stop-color="#0170B0"/><stop offset="1" stop-color="#18BBEB"/></linearGradient></defs></svg>