<svg width="113" height="112" fill="none" xmlns="http://www.w3.org/2000/svg"><g filter="url(#filter0_d)"><rect x="6.608" y="6.369" width="99.439" height="99.439" rx="10" fill="#fff"/></g><g clip-path="url(#clip0)"><path d="M80.705 63.776v-1.591a3.048 3.048 0 00-3.047-3.048h-2.032a3.048 3.048 0 00-3.047 3.04 110.94 110.94 0 00-6.095-.62v-1.404a3.047 3.047 0 00-3.046-3.047h-2.032a3.048 3.048 0 00-3.047 3.047v1.033a129.304 129.304 0 00-4.063 0v-1.033a3.048 3.048 0 00-3.048-3.047h-2.031a3.047 3.047 0 00-3.047 3.047v1.405c-2.032.152-4.099.356-6.095.619a3.047 3.047 0 00-3.047-3.04h-2.031a3.048 3.048 0 00-3.048 3.048v1.591c-3.638 1.069-6.094 2.53-6.094 4.503v8.126c.002.722.39 1.39 1.015 1.749v1.298a3.048 3.048 0 003.048 3.048h1.203a3.047 3.047 0 002.86 2.031h3.047a3.017 3.017 0 001.494-.406 3.042 3.042 0 002.57 1.422h4.062a3.013 3.013 0 001.494-.406 3.04 3.04 0 002.569 1.421h5.079a3.028 3.028 0 002.031-.792c.555.508 1.28.79 2.032.793h5.078a3.041 3.041 0 002.569-1.422c.454.263.97.403 1.494.406h4.063a3.041 3.041 0 002.57-1.422c.453.263.968.403 1.493.406h3.047a3.047 3.047 0 002.86-2.031h1.203a3.047 3.047 0 003.047-3.048v-1.298a2.024 2.024 0 001.016-1.749V68.28c0-1.972-2.456-3.434-6.094-4.503zm-6.094-1.591c0-.561.454-1.016 1.015-1.016h2.032c.56 0 1.016.455 1.016 1.016v1.06a57.878 57.878 0 00-4.063-.776v-.284zM60.39 60.153c0-.56.455-1.016 1.016-1.016h2.032c.56 0 1.015.456 1.015 1.016v1.268a140.664 140.664 0 00-4.063-.185v-1.083zm-12.189 0c0-.56.455-1.016 1.016-1.016h2.031c.562 0 1.016.456 1.016 1.016v1.083c-1.3.04-2.664.102-4.063.185v-1.268zm-14.22 2.032c0-.561.454-1.016 1.016-1.016h2.031c.56 0 1.016.455 1.016 1.016v.284a57.878 57.878 0 00-4.063.776v-1.06zM56.327 63.2c18.402 0 28.44 3.352 28.44 5.078v6.02a2.616 2.616 0 00-1.804-.678 3.022 3.022 0 00-1.811.61 3.962 3.962 0 00-3.607-2.006 4.94 4.94 0 00-3.646 1.62 4.342 4.342 0 00-3.92-2.067 5.515 5.515 0 00-4.191 1.93 4.774 4.774 0 00-4.382-2.382 6.095 6.095 0 00-5.079 2.733 6.095 6.095 0 00-5.079-2.733 4.773 4.773 0 00-4.384 2.385 5.515 5.515 0 00-4.192-1.93 4.342 4.342 0 00-3.917 2.065 4.94 4.94 0 00-3.643-1.617 3.961 3.961 0 00-3.61 2.005 3.02 3.02 0 00-1.81-.61 2.618 2.618 0 00-1.806.675v-6.02c0-1.726 10.04-5.078 28.441-5.078zM28.902 79.452v-2.709c0-.181.038-1.09.79-1.09a1.49 1.49 0 011.242 1.618v3.197h-1.016c-.56 0-1.016-.455-1.016-1.016zm8.126 3.048h-3.047a1.016 1.016 0 01-1.016-1.016v-5.079a2.018 2.018 0 012.144-2.144 2.937 2.937 0 012.935 2.934v4.289c0 .56-.455 1.016-1.016 1.016zm8.126 1.015h-4.063a1.016 1.016 0 01-1.016-1.015v-6.095a2.48 2.48 0 012.596-2.596 3.503 3.503 0 013.499 3.5v5.19c0 .561-.455 1.016-1.016 1.016zm9.142 1.016h-5.08c-.56 0-1.015-.455-1.015-1.016v-7.11a2.91 2.91 0 013.047-3.047 4.063 4.063 0 014.063 4.063v6.094c0 .561-.455 1.016-1.015 1.016zm10.157-1.016c0 .561-.455 1.016-1.016 1.016H58.36a1.016 1.016 0 01-1.016-1.016v-6.094a4.063 4.063 0 014.063-4.063 2.91 2.91 0 013.047 3.047v7.11zm8.126-1.015c0 .56-.455 1.015-1.016 1.015H67.5a1.016 1.016 0 01-1.016-1.015v-5.192a3.503 3.503 0 013.499-3.5 2.48 2.48 0 012.596 2.597V82.5zm7.11-1.016c0 .56-.455 1.016-1.015 1.016h-3.048c-.56 0-1.015-.455-1.015-1.016v-4.289a2.937 2.937 0 012.934-2.934 2.017 2.017 0 012.144 2.144v5.079zm4.063-2.032c0 .561-.455 1.016-1.016 1.016H81.72v-3.197a1.49 1.49 0 011.243-1.618c.752 0 .789.914.789 1.09v2.71z" fill="url(#paint0_linear)"/><path d="M86.411 27.833l.321-.834a1.016 1.016 0 00-1.897-.73l-.32.835a18.392 18.392 0 01-17.064 11.72H45.206a18.392 18.392 0 01-17.067-11.72l-.32-.834a1.017 1.017 0 00-1.897.73l.32.833a20.437 20.437 0 0018.962 13.022h22.244a20.436 20.436 0 0018.963-13.022z" fill="url(#paint1_linear)"/><path d="M50.233 55.074c.56 0 1.015-.454 1.015-1.015v-7.706l1.314 1.314a1.016 1.016 0 001.436-1.436l-3.047-3.048c-.01-.01-.022-.012-.03-.02a1.025 1.025 0 00-.3-.203c-.008 0-.018 0-.026-.007a1.008 1.008 0 00-.32-.062.93.93 0 00-.101.006.951.951 0 00-.25.049 1.01 1.01 0 00-.406.239L46.47 46.23a1.015 1.015 0 001.437 1.437l1.31-1.315v7.706c0 .56.455 1.015 1.016 1.015z" fill="url(#paint2_linear)"/><path d="M62.422 55.074c.56 0 1.016-.454 1.016-1.015v-7.706l1.313 1.314a1.016 1.016 0 001.436-1.436l-3.047-3.048c-.01-.01-.022-.012-.03-.02a1.023 1.023 0 00-.3-.203c-.008 0-.018 0-.026-.007a1.005 1.005 0 00-.32-.062.938.938 0 00-.102.006.955.955 0 00-.25.049 1.006 1.006 0 00-.406.239L58.66 46.23a1.016 1.016 0 001.437 1.437l1.31-1.315v7.706c0 .56.455 1.015 1.016 1.015z" fill="url(#paint3_linear)"/><path d="M76.642 57.106c.56 0 1.016-.455 1.016-1.016v-7.705l1.313 1.313a1.016 1.016 0 001.436-1.436l-3.047-3.047c-.01-.01-.021-.012-.03-.02a1.035 1.035 0 00-.3-.204c-.008 0-.017 0-.027-.006a1.024 1.024 0 00-.319-.063.926.926 0 00-.101.006.965.965 0 00-.251.05c-.033.01-.066.02-.101.033a1.02 1.02 0 00-.305.204l-3.047 3.047a1.015 1.015 0 001.436 1.436l1.311-1.313v7.705c0 .561.455 1.016 1.016 1.016z" fill="url(#paint4_linear)"/><path d="M34.997 57.106c.56 0 1.015-.455 1.015-1.016v-7.705l1.314 1.313a1.016 1.016 0 001.436-1.436l-3.047-3.047c-.01-.01-.022-.013-.03-.02a1.037 1.037 0 00-.3-.204c-.008 0-.018 0-.027-.006a.98.98 0 00-.671-.008.972.972 0 00-.406.236l-3.048 3.047a1.016 1.016 0 001.436 1.436l1.312-1.311v7.705c0 .561.454 1.016 1.016 1.016z" fill="url(#paint5_linear)"/></g><defs><linearGradient id="paint0_linear" x1="56.327" y1="57.106" x2="56.327" y2="86.563" gradientUnits="userSpaceOnUse"><stop stop-color="#18BBEB"/><stop offset="1" stop-color="#0170B0"/></linearGradient><linearGradient id="paint1_linear" x1="56.327" y1="25.618" x2="56.327" y2="40.855" gradientUnits="userSpaceOnUse"><stop stop-color="#18BBEB"/><stop offset="1" stop-color="#0170B0"/></linearGradient><linearGradient id="paint2_linear" x1="50.234" y1="42.891" x2="50.234" y2="55.074" gradientUnits="userSpaceOnUse"><stop stop-color="#18BBEB"/><stop offset="1" stop-color="#0170B0"/></linearGradient><linearGradient id="paint3_linear" x1="62.423" y1="42.891" x2="62.423" y2="55.074" gradientUnits="userSpaceOnUse"><stop stop-color="#18BBEB"/><stop offset="1" stop-color="#0170B0"/></linearGradient><linearGradient id="paint4_linear" x1="76.643" y1="44.922" x2="76.643" y2="57.106" gradientUnits="userSpaceOnUse"><stop stop-color="#18BBEB"/><stop offset="1" stop-color="#0170B0"/></linearGradient><linearGradient id="paint5_linear" x1="34.998" y1="44.923" x2="34.998" y2="57.106" gradientUnits="userSpaceOnUse"><stop stop-color="#18BBEB"/><stop offset="1" stop-color="#0170B0"/></linearGradient><clipPath id="clip0"><path fill="#fff" transform="translate(25.854 25.615)" d="M0 0h60.946v60.946H0z"/></clipPath><filter id="filter0_d" x=".608" y=".369" width="111.438" height="111.438" filterUnits="userSpaceOnUse" color-interpolation-filters="sRGB"><feFlood flood-opacity="0" result="BackgroundImageFix"/><feColorMatrix in="SourceAlpha" values="0 0 0 0 0 0 0 0 0 0 0 0 0 0 0 0 0 0 127 0"/><feOffset/><feGaussianBlur stdDeviation="3"/><feColorMatrix values="0 0 0 0 0 0 0 0 0 0 0 0 0 0 0 0 0 0 0.15 0"/><feBlend in2="BackgroundImageFix" result="effect1_dropShadow"/><feBlend in="SourceGraphic" in2="effect1_dropShadow" result="shape"/></filter></defs></svg>