<svg width="51" height="51" fill="none" xmlns="http://www.w3.org/2000/svg"><path d="M50.836 15.041a18.42 18.42 0 00-1.186-6.26 13.023 13.023 0 00-7.45-7.439A18.722 18.722 0 0036.013.155C33.29.034 32.427 0 25.517 0c-6.911 0-7.797 0-10.5.155a18.722 18.722 0 00-6.183 1.187 13.04 13.04 0 00-7.451 7.439 18.49 18.49 0 00-1.186 6.173C.075 17.674.04 18.536.04 25.436c0 6.899 0 7.78.158 10.481a18.607 18.607 0 001.186 6.179 13.023 13.023 0 007.454 7.436 18.659 18.659 0 006.183 1.271c2.726.122 3.589.159 10.5.159 6.91 0 7.796 0 10.498-.159a18.677 18.677 0 006.187-1.183 13.062 13.062 0 007.45-7.44 18.583 18.583 0 001.187-6.178c.121-2.718.158-3.58.158-10.482-.006-6.899-.006-7.775-.164-10.479zM25.5 38.483c-7.228 0-13.083-5.846-13.083-13.062 0-7.215 5.855-13.06 13.083-13.06 3.47 0 6.797 1.375 9.25 3.825a13.05 13.05 0 013.832 9.235 13.05 13.05 0 01-3.831 9.236 13.094 13.094 0 01-9.251 3.826zm13.603-23.56a3.044 3.044 0 11-.001-6.09 3.054 3.054 0 012.817 1.88 3.045 3.045 0 01-2.816 4.21z" fill="url(#paint0_linear)"/><path d="M25.5 33.906c4.693 0 8.498-3.798 8.498-8.484 0-4.685-3.805-8.484-8.499-8.484-4.693 0-8.498 3.799-8.498 8.484 0 4.686 3.805 8.484 8.498 8.484z" fill="url(#paint1_linear)"/><defs><linearGradient id="paint0_linear" x1="9.445" y1="85.998" x2="-43.279" y2="30.505" gradientUnits="userSpaceOnUse"><stop stop-color="#0170B0"/><stop offset="1" stop-color="#18BBEB"/></linearGradient><linearGradient id="paint1_linear" x1="9.445" y1="85.998" x2="-43.279" y2="30.505" gradientUnits="userSpaceOnUse"><stop stop-color="#0170B0"/><stop offset="1" stop-color="#18BBEB"/></linearGradient></defs></svg>