<svg width="30" height="41" fill="none" xmlns="http://www.w3.org/2000/svg"><path d="M15 2.147c7.348 0 13.327 6 13.327 13.374 0 .389.314.704.701.704a.703.703 0 00.702-.704C29.73 7.371 23.122.74 15 .74S.27 7.37.27 15.52c0 5.19 1.37 10.292 3.961 14.75a29.46 29.46 0 0010.412 10.512.7.7 0 00.714 0 29.574 29.574 0 009.449-8.967 29.41 29.41 0 004.674-12.45.701.701 0 10-1.39-.183C27.007 27.469 22.125 34.979 15 39.356 6.769 34.301 1.673 25.208 1.673 15.521 1.673 8.147 7.652 2.147 15 2.147z" fill="url(#paint0_linear)"/><path d="M15 6.37c-5.028 0-9.118 4.106-9.118 9.151 0 .389.314.704.701.704a.703.703 0 00.701-.704c0-4.27 3.462-7.743 7.716-7.743s7.715 3.474 7.715 7.743c0 4.27-3.46 7.743-7.715 7.743a7.73 7.73 0 01-7.277-5.162.7.7 0 10-1.322.47 9.136 9.136 0 008.599 6.1c5.028 0 9.118-4.105 9.118-9.15 0-5.046-4.09-9.151-9.118-9.151z" fill="url(#paint1_linear)"/><defs><linearGradient id="paint0_linear" x1="15" y1="6.371" x2="15" y2="24.672" gradientUnits="userSpaceOnUse"><stop stop-color="#18BBEB"/><stop offset="1" stop-color="#0196C5"/></linearGradient><linearGradient id="paint1_linear" x1="15" y1="6.371" x2="15" y2="24.672" gradientUnits="userSpaceOnUse"><stop stop-color="#18BBEB"/><stop offset="1" stop-color="#0196C5"/></linearGradient></defs></svg>