<svg width="21" height="20" fill="none" xmlns="http://www.w3.org/2000/svg"><path d="M19.48 2.079l-.032-.021L15.27 0l-4.508 6.01 2.075 2.766a4.273 4.273 0 01-3.997 4.008h-.01L6.063 10.71l-6.01 4.508 2.058 4.177.02.033A1.21 1.21 0 003.16 20h1.082c8.733 0 15.812-7.08 15.812-15.812V3.106c0-.432-.226-.81-.567-1.024l-.005-.003zm-.97 2.109c0 7.867-6.402 14.269-14.27 14.269h-.872l-1.365-2.773 4.06-3.044 2.26 1.695h.258a5.815 5.815 0 005.808-5.806v-.257l-1.696-2.26 3.045-4.061 2.771 1.365v.872z" fill="#A3A3A3"/></svg>