<svg width="51" height="51" fill="none" xmlns="http://www.w3.org/2000/svg"><path d="M50.962 11.594a32.13 32.13 0 00-.255-3.287 10.94 10.94 0 00-.943-2.752 9.327 9.327 0 00-1.81-2.548 9.963 9.963 0 00-2.547-1.81A10.907 10.907 0 0042.655.28 26.016 26.016 0 0039.393 0h-27.8a32.13 32.13 0 00-3.286.255 10.9 10.9 0 00-2.752.943 9.326 9.326 0 00-2.548 1.809 9.963 9.963 0 00-1.81 2.548A10.906 10.906 0 00.28 8.307 26.016 26.016 0 000 11.568v27.8c.029 1.1.114 2.196.255 3.287.19.955.507 1.88.943 2.752a9.326 9.326 0 001.809 2.548 9.965 9.965 0 002.548 1.809c.872.427 1.798.735 2.752.917 1.08.162 2.17.256 3.261.28h27.8a32.13 32.13 0 003.287-.254c.955-.19 1.88-.508 2.752-.943a9.327 9.327 0 002.548-1.81 9.965 9.965 0 001.809-2.547 10.91 10.91 0 00.917-2.752c.162-1.08.256-2.17.28-3.262V11.594zM26.067 43.317a18.142 18.142 0 01-8.74-2.293l-9.683 2.548 2.548-9.479a18.117 18.117 0 01-2.548-9.122 18.296 18.296 0 1118.423 18.346zm0-33.456a15.288 15.288 0 00-12.868 23.264l.357.586-1.53 5.58 5.81-1.58.561.332a15.29 15.29 0 007.644 2.115 15.289 15.289 0 000-30.577l.026.28zm8.918 21.71a4.638 4.638 0 01-3.083 2.165 5.937 5.937 0 01-2.854-.178 22.675 22.675 0 01-2.548-.968 20.385 20.385 0 01-7.797-6.88 8.867 8.867 0 01-1.86-4.714 5.096 5.096 0 011.605-3.822 1.657 1.657 0 011.223-.56h.714c.28 0 .662 0 1.019.79.357.79 1.3 3.159 1.427 3.388a.865.865 0 010 .79 2.904 2.904 0 01-.459.765c-.23.28-.484.611-.688.815-.204.204-.459.459-.204.917a14.165 14.165 0 002.548 3.16 12.74 12.74 0 003.67 2.268c.458.229.738.204.993 0s1.147-1.325 1.453-1.784c.306-.459.611-.382 1.019-.23.408.154 2.675 1.25 3.134 1.479.459.229.739.33.866.535.11.667.05 1.35-.178 1.987v.077z" fill="url(#paint0_linear)"/><defs><linearGradient id="paint0_linear" x1="9.406" y1="85.998" x2="-43.317" y2="30.505" gradientUnits="userSpaceOnUse"><stop stop-color="#0170B0"/><stop offset="1" stop-color="#18BBEB"/></linearGradient></defs></svg>