<svg width="113" height="112" fill="none" xmlns="http://www.w3.org/2000/svg"><g filter="url(#filter0_d)"><rect x="6.9" y="6.369" width="99.439" height="99.439" rx="10" fill="#fff"/></g><g clip-path="url(#clip0)"><path d="M81.39 30.37a6.765 6.765 0 00-6.234-4.66c-2.962.095-4.809 2.66-5.55 5.029a11.157 11.157 0 00-.375 1.941 16.24 16.24 0 01-.148.98c-.018.102-.044.19-.064.286-9.37-.03-14.065 8.465-14.927 10.225a6.572 6.572 0 00-.64 3.34l-1.743 2.07-1.117 1.319c-4.219-.76-12.437.32-23.71 13.692a3.13 3.13 0 004.788 4.034 73.632 73.632 0 011.948-2.211l.01-.009v-.008c10.554-11.46 16.45-9.18 16.464-9.18a3.135 3.135 0 003.946-.7l2.402-2.85.71.406.052.032.433.248-2.56 3.035a3.101 3.101 0 00-.083 3.927c.037.057 3.343 5.478-6.203 17.863h-.007v.01a68.672 68.672 0 01-1.85 2.295 3.13 3.13 0 004.785 4.035c11.264-13.362 10.942-21.64 9.477-25.673l1.117-1.326 1.726-2.051a6.493 6.493 0 003.198-1.219 19.947 19.947 0 006.493-7.966 4.931 4.931 0 001.736-.823 19.382 19.382 0 002.57-2.127 6.53 6.53 0 012.206-1.272c.305-.116.624-.212.938-.305a11.223 11.223 0 001.848-.697c2.208-1.132 4.424-3.386 4.018-6.318a6.744 6.744 0 00-5.653-5.373zM66.783 42.6c.286.252.656.388 1.037.382.71 0 1.772-.406 3.435-1.667a18.208 18.208 0 01-3.167 4.671 2.97 2.97 0 01-3.568.394l-.82-.47-.048-.03-2.616-1.506c.978-2.176 3.584-4.52 5.912-6.268-.143.266-.277.537-.399.812-.343.758-1.147 2.52.234 3.683zm-.839-6.285c-2.437 1.797-5.506 4.467-6.757 7.225a3.548 3.548 0 00-2.802.647c1.215-2.125 4.311-6.573 9.56-7.872zM29.367 67.709a1.071 1.071 0 01-.803-.253 1.1 1.1 0 01-.131-1.549c.43-.507.854-.996 1.274-1.47l1.677 1.417c-.419.471-.842.957-1.274 1.47a1.09 1.09 0 01-.743.385zm3.396-3.35l-1.683-1.42c4.863-5.154 8.981-7.793 12.24-9.075l.803 2.066c-2.933 1.145-6.748 3.561-11.36 8.428zm23.863-5.655l2.797-3.32.756.433c.012.007.026.009.04.016.012.007.011.011.02.015.416.19.851.337 1.297.44l-2.287 2.716a1.016 1.016 0 00-.155 1.058c.686 1.726.93 3.596.711 5.44l-2.196-.447a7.96 7.96 0 00-.931-4.856.98.98 0 00-.061-.083 1.101 1.101 0 01.01-1.417l-.001.005zm-3.992 22.405l-1.682-1.422c4.015-5.368 5.757-9.538 6.384-12.621l2.171.441c-.706 3.431-2.62 7.938-6.873 13.602zm-3.223 3.497a1.1 1.1 0 01-.934-1.802c.431-.508.84-1.016 1.233-1.504l1.678 1.416c-.395.494-.8.993-1.231 1.504a1.088 1.088 0 01-.746.386zm16.639-31a4.566 4.566 0 01-2.59.868h-.007a5.507 5.507 0 01-2.3-.44l-2.908-1.665-.044-.027-1.483-.852c-.033-.018-.071-.02-.101-.035a.976.976 0 00-.761-.02.935.935 0 00-.332.211.844.844 0 00-.09.07l-2.944 3.499a1.104 1.104 0 01-1.387.245.84.84 0 00-.093-.046 7.958 7.958 0 00-4.945-.102l-.812-2.089a11.139 11.139 0 015.483-.215c.374.09.767-.038 1.016-.332l5.598-6.641a1.524 1.524 0 011.915-.338l3.336 1.913.048.03.863.493a5.004 5.004 0 006.009-.71 19.869 19.869 0 003.426-4.94c-.64 6.397-6.155 10.587-6.897 11.123zM82.1 40.244c-.49.232-1 .42-1.523.565-.353.11-.705.219-1.045.346a8.507 8.507 0 00-2.885 1.693 20.314 20.314 0 01-2.006 1.691c.51-2.15.515-4.389.016-6.541a1.016 1.016 0 00-.943-.786 1.042 1.042 0 00-.906.5c-.468.157-.898.41-1.265.741a12.309 12.309 0 01-3.507 2.45c.047-.406.171-.798.368-1.157.424-.903.926-1.768 1.498-2.587a8.532 8.532 0 001.178-3.123c.07-.363.118-.727.166-1.092a9.49 9.49 0 01.304-1.599c.508-1.625 1.776-3.545 3.68-3.606a4.703 4.703 0 014.36 3.757c0 .014.01.022.013.036.002.013 0 .03 0 .045a6.965 6.965 0 01-.036 3.591 1.016 1.016 0 001.873.788 7.278 7.278 0 00.367-3.402 4.648 4.648 0 013.23 3.46c.256 1.88-1.421 3.454-2.937 4.23z" fill="url(#paint0_linear)"/><path d="M61.644 50.068a1.015 1.015 0 11-2.031 0 1.015 1.015 0 012.03 0z" fill="url(#paint1_linear)"/><path d="M77.196 29.812a3.859 3.859 0 00-3.218.323 3.07 3.07 0 00-1.164 2.671 1.015 1.015 0 102.03 0c-.042-.37.074-.742.32-1.022.442-.19.941-.206 1.396-.044a1.016 1.016 0 00.636-1.93v.002z" fill="url(#paint2_linear)"/></g><defs><linearGradient id="paint0_linear" x1="56.619" y1="25.709" x2="56.619" y2="86.632" gradientUnits="userSpaceOnUse"><stop stop-color="#18BBEB"/><stop offset="1" stop-color="#0170B0"/></linearGradient><linearGradient id="paint1_linear" x1="60.629" y1="49.053" x2="60.629" y2="51.084" gradientUnits="userSpaceOnUse"><stop stop-color="#18BBEB"/><stop offset="1" stop-color="#0170B0"/></linearGradient><linearGradient id="paint2_linear" x1="75.349" y1="29.601" x2="75.349" y2="33.822" gradientUnits="userSpaceOnUse"><stop stop-color="#18BBEB"/><stop offset="1" stop-color="#0170B0"/></linearGradient><clipPath id="clip0"><path fill="#fff" transform="translate(26.146 25.616)" d="M0 0h60.946v60.946H0z"/></clipPath><filter id="filter0_d" x=".9" y=".369" width="111.438" height="111.438" filterUnits="userSpaceOnUse" color-interpolation-filters="sRGB"><feFlood flood-opacity="0" result="BackgroundImageFix"/><feColorMatrix in="SourceAlpha" values="0 0 0 0 0 0 0 0 0 0 0 0 0 0 0 0 0 0 127 0"/><feOffset/><feGaussianBlur stdDeviation="3"/><feColorMatrix values="0 0 0 0 0 0 0 0 0 0 0 0 0 0 0 0 0 0 0.15 0"/><feBlend in2="BackgroundImageFix" result="effect1_dropShadow"/><feBlend in="SourceGraphic" in2="effect1_dropShadow" result="shape"/></filter></defs></svg>