<svg width="112" height="112" fill="none" xmlns="http://www.w3.org/2000/svg"><g filter="url(#filter0_d)"><rect x="6.254" y="6.369" width="99.439" height="99.439" rx="10" fill="#fff"/></g><g clip-path="url(#clip0)"><path d="M80.961 40.747a236.497 236.497 0 00-49.976 0 6.105 6.105 0 00-5.485 6.067v19.48a4.47 4.47 0 004.482 4.454h7.289a4.454 4.454 0 002.71-.932 4.39 4.39 0 004.141 2.947h8.465a4.385 4.385 0 003.386-1.614 4.385 4.385 0 003.386 1.614h8.465a4.39 4.39 0 004.14-2.946c.777.601 1.73.928 2.712.932h7.289a4.469 4.469 0 004.481-4.455v-19.48a6.105 6.105 0 00-5.485-6.067zM70.194 57.508v2.71c-.964.053-1.98.101-3.047.143v-1.819c0-1.122-.91-2.031-2.032-2.031h-3.047c-1.122 0-2.032.91-2.032 2.031v2.005c-.982.013-2 .02-3.047.024v-2.773a7.424 7.424 0 017.449-7.382c4.544 0 5.756 3.684 5.756 5.86v1.232zm8.717-6.625h.203a4.942 4.942 0 015.3 5.097v2.753c-.458.089-1.13.203-2.03.343v-1.55c0-1.122-.91-2.031-2.032-2.031h-3.048c-1.122 0-2.031.91-2.031 2.031v2.348c-.942.079-1.958.154-3.047.225v-2.59a6.663 6.663 0 016.685-6.626zm1.44 12.738h-3.047v-1.88a108.84 108.84 0 003.048-.33v2.21zm-3.047-3.931v-2.164h3.048v1.829c-.885.109-1.897.223-3.048.335zm-12.189 4.947h-3.047v-2.09a243.65 243.65 0 003.047-.077v2.167zm-3.047-4.124v-1.97h3.047v1.892c-.974.031-1.992.057-3.047.078zm-7.11.06c-1.048 0-2.066-.01-3.048-.022v-2.009c0-1.122-.91-2.031-2.031-2.031H46.83c-1.122 0-2.031.91-2.031 2.031v1.82c-1.068-.043-2.084-.09-3.047-.144v-3.942c0-2.177 1.211-5.86 5.755-5.86a7.424 7.424 0 017.45 7.382v2.776zm-5.08 4.064h-3.047V62.47c.975.03 1.994.056 3.048.076v2.09zm-3.047-4.202v-1.893h3.048v1.971a261.57 261.57 0 01-3.048-.078zm-7.11-.336a162.709 162.709 0 01-3.047-.225v-2.348c0-1.122-.91-2.031-2.032-2.031h-3.048c-1.122 0-2.031.91-2.031 2.031v1.55a51.385 51.385 0 01-2.031-.343V55.98a4.94 4.94 0 015.304-5.097h.203a6.663 6.663 0 016.682 6.625v2.59zm-5.079 3.522h-3.048v-2.21c.892.11 1.907.22 3.048.33v1.88zm-3.048-4.266v-1.829h3.048v2.164a120.19 120.19 0 01-3.048-.335zm5.677 9.363h-7.29a2.437 2.437 0 01-2.45-2.424v-5.486c.508.096 1.183.21 2.032.334v2.479c0 1.122.91 2.032 2.032 2.032h3.047c1.122 0 2.031-.91 2.031-2.032v-1.7c.946.077 1.957.152 3.048.221v4.152a2.438 2.438 0 01-2.45 2.422v.002zm15.316 2.013h-8.465a2.36 2.36 0 01-2.37-2.343v-6.129c.965.05 1.98.098 3.048.14v2.238c0 1.122.91 2.031 2.031 2.031h3.048c1.122 0 2.031-.91 2.031-2.031V62.58c.981.012 2 .02 3.047.022v5.79a2.36 2.36 0 01-2.37 2.34zm17.607-2.343a2.36 2.36 0 01-2.37 2.343H59.36a2.36 2.36 0 01-2.37-2.343v-5.783c1.046 0 2.066-.01 3.047-.022v2.054c0 1.122.91 2.031 2.032 2.031h3.047c1.122 0 2.032-.91 2.032-2.031v-2.235c1.068-.041 2.083-.088 3.047-.14v6.13-.004zm11.77.328h-7.288a2.438 2.438 0 01-2.45-2.422v-4.152c1.09-.069 2.1-.144 3.047-.22v1.699c0 1.122.91 2.032 2.031 2.032h3.048c1.122 0 2.031-.91 2.031-2.032v-2.483a49.99 49.99 0 002.032-.334v5.485a2.437 2.437 0 01-2.45 2.427zM79.11 48.852h-.203a8.724 8.724 0 00-7.362 4.043 7.278 7.278 0 00-7.11-4.51 9.491 9.491 0 00-8.46 5.197 9.492 9.492 0 00-8.465-5.198 7.277 7.277 0 00-7.11 4.51 8.724 8.724 0 00-7.363-4.042h-.203a7.22 7.22 0 00-5.301 2.02v-4.063a4.077 4.077 0 013.67-4.042 233.85 233.85 0 017.001-.63.98.98 0 00.502.153c.44 0 1.016 1.97 1.016 4.063a1.016 1.016 0 002.032 0 11.688 11.688 0 00-.794-4.397c4.66-.3 9.326-.462 13.998-.488v5.9a1.016 1.016 0 002.032 0v-5.9c4.672.02 9.338.183 13.998.488a11.7 11.7 0 00-.793 4.397 1.016 1.016 0 002.032 0c0-2.093.574-4.063 1.015-4.063a.988.988 0 00.502-.151c2.336.177 4.672.38 7.003.628a4.077 4.077 0 013.669 4.047v4.063a7.222 7.222 0 00-5.306-2.025z" fill="url(#paint0_linear)"/></g><defs><linearGradient id="paint0_linear" x1="55.973" y1="39.423" x2="55.973" y2="72.763" gradientUnits="userSpaceOnUse"><stop stop-color="#18BBEB"/><stop offset="1" stop-color="#0170B0"/></linearGradient><clipPath id="clip0"><path fill="#fff" transform="translate(25.5 25.615)" d="M0 0h60.946v60.946H0z"/></clipPath><filter id="filter0_d" x=".254" y=".369" width="111.438" height="111.438" filterUnits="userSpaceOnUse" color-interpolation-filters="sRGB"><feFlood flood-opacity="0" result="BackgroundImageFix"/><feColorMatrix in="SourceAlpha" values="0 0 0 0 0 0 0 0 0 0 0 0 0 0 0 0 0 0 127 0"/><feOffset/><feGaussianBlur stdDeviation="3"/><feColorMatrix values="0 0 0 0 0 0 0 0 0 0 0 0 0 0 0 0 0 0 0.15 0"/><feBlend in2="BackgroundImageFix" result="effect1_dropShadow"/><feBlend in="SourceGraphic" in2="effect1_dropShadow" result="shape"/></filter></defs></svg>