<svg width="28" height="44" fill="none" xmlns="http://www.w3.org/2000/svg"><path d="M21 35.75H7v-5.5l-7 6.875L7 44v-5.5h14V44l7-6.875-7-6.875v5.5z" fill="url(#paint0_linear)"/><path d="M22.4 4.125h-7V0h-2.8v4.125h-7c-.743 0-1.455.29-1.98.805a2.725 2.725 0 00-.82 1.945v16.5c0 .73.295 1.429.82 1.945a2.826 2.826 0 001.98.805h7v4.125h2.8v-4.125h7c.743 0 1.455-.29 1.98-.805.525-.516.82-1.216.82-1.945v-16.5c0-.73-.295-1.429-.82-1.945a2.826 2.826 0 00-1.98-.805zM5.6 23.375v-16.5h7v16.5h-7z" fill="url(#paint1_linear)"/><defs><linearGradient id="paint0_linear" x1="5.168" y1="74.25" x2="-36.982" y2="46.019" gradientUnits="userSpaceOnUse"><stop stop-color="#0170B0"/><stop offset="1" stop-color="#18BBEB"/></linearGradient><linearGradient id="paint1_linear" x1="5.168" y1="74.25" x2="-36.982" y2="46.019" gradientUnits="userSpaceOnUse"><stop stop-color="#0170B0"/><stop offset="1" stop-color="#18BBEB"/></linearGradient></defs></svg>