<svg width="21" height="22" fill="none" xmlns="http://www.w3.org/2000/svg"><path d="M19.268 17.33a9.977 9.977 0 00-2.143-3.189 9.988 9.988 0 00-3.178-2.15l-.032-.013a6.608 6.608 0 002.734-5.362C16.649 2.96 13.697 0 10.053 0S3.457 2.961 3.457 6.616a6.617 6.617 0 002.734 5.364c-.01.006-.021.008-.032.014a9.902 9.902 0 00-3.178 2.15 10.022 10.022 0 00-2.928 6.872.214.214 0 00.213.219h1.596c.117 0 .21-.094.212-.209a7.965 7.965 0 012.335-5.45 7.914 7.914 0 015.644-2.344c2.133 0 4.136.832 5.644 2.345a7.964 7.964 0 012.335 5.45.21.21 0 00.212.208h1.596a.212.212 0 00.198-.136.215.215 0 00.015-.083 9.967 9.967 0 00-.785-3.687zm-9.215-6.126c-1.22 0-2.37-.477-3.234-1.344a4.566 4.566 0 01-1.34-3.244c0-1.225.476-2.377 1.34-3.244a4.538 4.538 0 013.234-1.345c1.22 0 2.37.478 3.234 1.345a4.565 4.565 0 011.34 3.244 4.565 4.565 0 01-1.34 3.244 4.538 4.538 0 01-3.234 1.344z" fill="#A3A3A3"/></svg>