<svg width="112" height="112" fill="none" xmlns="http://www.w3.org/2000/svg"><g filter="url(#filter0_d)"><rect x="6.215" y="6" width="99.439" height="99.439" rx="10" fill="#fff"/></g><g clip-path="url(#clip0)"><path d="M39.897 47.892a1.27 1.27 0 00-1.724.504l-.025.046a1.27 1.27 0 102.227 1.22l.025-.046a1.27 1.27 0 00-.503-1.724z" fill="url(#paint0_linear)"/><path d="M80.53 51.93c-1.996-7.772-7.594-14.233-15.148-17.252-1.305-4.074-5.142-6.893-9.447-6.893-4.416 0-8.166 2.901-9.447 6.897a25.337 25.337 0 00-11.295 8.923 25.22 25.22 0 00-3.86 8.325c-3.278.245-5.871 2.989-5.871 6.328a6.356 6.356 0 005.877 6.33c2.82 10.95 12.778 19.065 24.596 19.065S77.71 75.538 80.53 64.588c3.281-.242 5.878-2.988 5.878-6.33 0-3.341-2.596-6.086-5.877-6.329zm-52.529 6.328a3.816 3.816 0 012.803-3.674 25.627 25.627 0 00-.226 2.288c0 .01 0 .021-.002.032l-.018.42-.005.16-.008.302a27.567 27.567 0 00.003 1.05 17.898 17.898 0 00.02.599l.009.178c.009.174.02.349.033.523l.02.245a29.213 29.213 0 00.055.582c.01.107.024.213.036.319.017.138.034.277.053.415.01.079.02.158.032.236a3.816 3.816 0 01-2.805-3.675zm27.934-27.933a7.415 7.415 0 016.157 3.313h-.124l-.02.001c-3.953.037-7.158 3.263-7.158 7.225 0 1.542.484 3.008 1.355 4.217a7.73 7.73 0 01-.21.003c-4.07 0-7.38-3.31-7.38-7.38 0-4.069 3.31-7.38 7.38-7.38zM78.78 58.86l-.003.093c-.006.17-.012.34-.02.51l-.006.091c-.01.17-.02.34-.034.51l-.01.102c-.013.164-.028.328-.045.492l-.015.136c-.017.15-.034.3-.054.45l-.026.187c-.018.13-.036.259-.057.388l-.041.25a21.709 21.709 0 01-.162.866c-2.164 10.367-11.374 18.178-22.374 18.178-11.007 0-20.222-7.823-22.377-18.2-.02-.095-.038-.19-.056-.284a23.925 23.925 0 01-.118-.657l-.03-.178a24.369 24.369 0 01-.07-.49l-.011-.083a22.981 22.981 0 01-.068-.579v-.003a22.997 22.997 0 01-.097-3.457l.01-.21c.006-.108.014-.215.021-.322.013-.184.028-.368.046-.552l.005-.063c.78-7.903 5.675-14.916 12.828-18.37l-.001.04c0 .909.125 1.788.355 2.625a20.146 20.146 0 00-5.958 4.819 1.27 1.27 0 101.941 1.637 17.625 17.625 0 015.007-4.104c1.72 2.952 4.918 4.942 8.574 4.942a9.892 9.892 0 003.273-.554 1.27 1.27 0 00.27-2.265 4.674 4.674 0 01-2.149-3.94c0-2.533 2.019-4.6 4.531-4.684 8.434 2.257 14.707 9.077 16.445 17.388.028.138.056.275.082.414l.04.217a22.922 22.922 0 01.147.926l.022.16c.048.37.087.743.118 1.117l.01.129a22.177 22.177 0 01.053 1.01l.005.158a22.607 22.607 0 010 1.16zm2.282 3.073l.04-.288a27.728 27.728 0 00.108-.943l.03-.332c.006-.077.013-.153.018-.23.013-.176.025-.353.034-.53l.008-.17c.006-.142.012-.284.016-.426l.005-.178a26.478 26.478 0 00.002-1.08l-.005-.183-.01-.315-.01-.224a22.12 22.12 0 00-.069-1.017 27.93 27.93 0 00-.023-.244l-.025-.25c-.01-.095-.022-.19-.033-.284-.013-.105-.025-.21-.04-.314-.014-.114-.03-.228-.046-.341a3.816 3.816 0 012.805 3.674 3.816 3.816 0 01-2.805 3.675z" fill="url(#paint1_linear)"/><path d="M51.418 59.728a5.086 5.086 0 00-4.906-3.764 5.087 5.087 0 00-4.906 3.764 1.27 1.27 0 002.453.658 2.543 2.543 0 012.453-1.883c1.147 0 2.156.774 2.453 1.883a1.27 1.27 0 002.453-.658z" fill="url(#paint2_linear)"/><path d="M65.358 55.964a5.086 5.086 0 00-4.906 3.764 1.27 1.27 0 002.453.658 2.543 2.543 0 012.452-1.883c1.148 0 2.156.774 2.453 1.883a1.27 1.27 0 102.453-.658 5.086 5.086 0 00-4.905-3.764z" fill="url(#paint3_linear)"/><path d="M59.943 68.637a1.27 1.27 0 00-1.555.898 2.543 2.543 0 01-2.453 1.882 2.543 2.543 0 01-2.453-1.882 1.27 1.27 0 10-2.453.657 5.086 5.086 0 004.906 3.765 5.086 5.086 0 004.906-3.765 1.27 1.27 0 00-.898-1.555z" fill="url(#paint4_linear)"/></g><defs><linearGradient id="paint0_linear" x1="39.274" y1="47.736" x2="39.274" y2="50.322" gradientUnits="userSpaceOnUse"><stop stop-color="#18BBEB"/><stop offset="1" stop-color="#0170B0"/></linearGradient><linearGradient id="paint1_linear" x1="55.935" y1="27.785" x2="55.935" y2="83.653" gradientUnits="userSpaceOnUse"><stop stop-color="#18BBEB"/><stop offset="1" stop-color="#0170B0"/></linearGradient><linearGradient id="paint2_linear" x1="46.512" y1="55.964" x2="46.512" y2="61.327" gradientUnits="userSpaceOnUse"><stop stop-color="#18BBEB"/><stop offset="1" stop-color="#0170B0"/></linearGradient><linearGradient id="paint3_linear" x1="65.357" y1="55.964" x2="65.357" y2="61.327" gradientUnits="userSpaceOnUse"><stop stop-color="#18BBEB"/><stop offset="1" stop-color="#0170B0"/></linearGradient><linearGradient id="paint4_linear" x1="55.935" y1="68.593" x2="55.935" y2="73.957" gradientUnits="userSpaceOnUse"><stop stop-color="#18BBEB"/><stop offset="1" stop-color="#0170B0"/></linearGradient><clipPath id="clip0"><path fill="#fff" transform="translate(25.462 25.246)" d="M0 0h60.946v60.946H0z"/></clipPath><filter id="filter0_d" x=".215" y="0" width="111.438" height="111.438" filterUnits="userSpaceOnUse" color-interpolation-filters="sRGB"><feFlood flood-opacity="0" result="BackgroundImageFix"/><feColorMatrix in="SourceAlpha" values="0 0 0 0 0 0 0 0 0 0 0 0 0 0 0 0 0 0 127 0"/><feOffset/><feGaussianBlur stdDeviation="3"/><feColorMatrix values="0 0 0 0 0 0 0 0 0 0 0 0 0 0 0 0 0 0 0.15 0"/><feBlend in2="BackgroundImageFix" result="effect1_dropShadow"/><feBlend in="SourceGraphic" in2="effect1_dropShadow" result="shape"/></filter></defs></svg>