<svg width="30" height="30" fill="none" xmlns="http://www.w3.org/2000/svg"><path d="M30 6.825a18.922 18.922 0 00-.15-1.935 6.437 6.437 0 00-.555-1.62 5.49 5.49 0 00-1.065-1.5 5.866 5.866 0 00-1.5-1.065 6.42 6.42 0 00-1.62-.54A15.315 15.315 0 0023.19 0H6.825C6.178.017 5.532.067 4.89.15a6.435 6.435 0 00-1.62.555 5.49 5.49 0 00-1.5 1.065c-.432.44-.791.947-1.065 1.5a6.42 6.42 0 00-.54 1.62A15.43 15.43 0 000 6.81v16.365c.017.647.067 1.293.15 1.935.112.562.299 1.107.555 1.62a5.49 5.49 0 001.065 1.5c.44.432.947.791 1.5 1.065a6.423 6.423 0 001.62.54c.636.095 1.277.15 1.92.165h16.365a18.923 18.923 0 001.935-.15 6.437 6.437 0 001.62-.555 5.49 5.49 0 001.5-1.065c.432-.44.791-.947 1.065-1.5a6.423 6.423 0 00.54-1.62c.095-.636.15-1.277.165-1.92V6.825zM15.345 25.5a10.68 10.68 0 01-5.145-1.35l-5.7 1.5L6 20.07a10.665 10.665 0 01-1.5-5.37 10.77 10.77 0 1110.845 10.8zm0-19.695A9 9 0 007.77 19.5l.21.345-.9 3.285 3.42-.93.33.195a9 9 0 004.5 1.245 9 9 0 000-18l.015.165zm5.25 12.78a2.73 2.73 0 01-1.815 1.275 3.495 3.495 0 01-1.68-.105 13.37 13.37 0 01-1.5-.57 12 12 0 01-4.59-4.05 5.22 5.22 0 01-1.095-2.775 3 3 0 01.945-2.25.975.975 0 01.72-.33H12c.165 0 .39 0 .6.465.21.465.765 1.86.84 1.995a.51.51 0 010 .465 1.71 1.71 0 01-.27.45c-.135.165-.285.36-.405.48-.12.12-.27.27-.12.54a8.339 8.339 0 001.5 1.86 7.502 7.502 0 002.16 1.335c.27.135.435.12.585 0 .15-.12.675-.78.855-1.05.18-.27.36-.225.6-.135s1.575.735 1.845.87.435.195.51.315a2.34 2.34 0 01-.105 1.17v.045z" fill="#fff"/></svg>