<svg width="112" height="112" fill="none" xmlns="http://www.w3.org/2000/svg"><g filter="url(#filter0_d)"><rect x="6" y="6" width="99.439" height="99.439" rx="10" fill="#fff"/></g><g clip-path="url(#clip0)"><path d="M85.008 69.663H59.486c.234-.546.494-1.098.798-1.665.348-.655.73-1.284 1.11-1.912a24.15 24.15 0 001.95-3.695c1.845-4.702 2.334-11.14-1.806-15.11-4.003-3.842-11.082-3.985-15.611-.476-4.531-3.51-11.612-3.365-15.611.475-4.144 3.97-3.654 10.409-1.807 15.111a24.176 24.176 0 001.954 3.697c.379.628.76 1.256 1.108 1.91.304.567.563 1.116.797 1.665h-6.232a1.015 1.015 0 100 2.03h6.943c.206.697.353 1.41.443 2.13a45.06 45.06 0 001.203 7.092c.475 1.76 1.358 5.035 4.288 5.035.853 0 3.451 0 5.152-12.202.33-2.335 1.266-2.591 1.76-2.657.493.065 1.433.319 1.764 2.655 1.7 12.204 4.298 12.204 5.153 12.204 2.93 0 3.813-3.276 4.285-5.027.587-2.332.99-4.705 1.206-7.1.088-.72.236-1.433.441-2.13h26.235a1.015 1.015 0 000-2.03zM55.166 80.38c-.461 1.71-1.058 3.534-2.326 3.534-.56-.066-2.065-2.707-3.147-10.455-.38-2.697-1.611-4.178-3.654-4.405a.863.863 0 00-.116.01.924.924 0 00-.121-.01c-2.043.227-3.273 1.709-3.654 4.407-1.08 7.742-2.585 10.386-3.142 10.455-1.269 0-1.867-1.827-2.329-3.54a43.057 43.057 0 01-1.144-6.785 18.224 18.224 0 00-2.178-6.547 42.617 42.617 0 00-1.164-2.007 22.536 22.536 0 01-1.793-3.388c-1.604-4.09-2.099-9.627 1.32-12.904 3.419-3.276 9.861-3.223 13.522.12.01.01.023.011.034.02.011.01.015.024.027.032.042.033 4.2 3.297 5.234 6.82a1.014 1.014 0 001.262.687 1.016 1.016 0 00.69-1.26c-.888-3.021-3.515-5.712-4.962-7.018 3.744-2.605 9.456-2.424 12.607.6 3.42 3.276 2.925 8.813 1.32 12.902a22.386 22.386 0 01-1.798 3.385c-.399.66-.8 1.32-1.165 2.009a18.177 18.177 0 00-2.177 6.546 44.144 44.144 0 01-1.146 6.792z" fill="url(#paint0_linear)"/><path d="M34.615 49.147a6.957 6.957 0 00-3.303 7.53 1.015 1.015 0 001.208.784 1.016 1.016 0 00.783-1.204 4.936 4.936 0 012.287-5.33 1.015 1.015 0 00-.975-1.78z" fill="url(#paint1_linear)"/><path d="M83.993 31.09H74.9l-22.469-1.954A5.075 5.075 0 0047.451 25h-2.03a5.081 5.081 0 00-5.075 5.076v7.105a2.03 2.03 0 002.03 2.03h3.045v3.045a1.015 1.015 0 000 2.03h2.03a1.015 1.015 0 100-2.03V39.21h3.045a2.03 2.03 0 002.03-2.03v-.717l22.076 5.76c.084.02.17.032.255.032h9.136a2.03 2.03 0 002.03-2.03V33.12a2.03 2.03 0 00-2.03-2.03zm-41.617 6.09v-7.104a3.045 3.045 0 013.045-3.046h2.03a3.045 3.045 0 013.045 3.046v7.105h-8.12zm10.15-5.997l21.317 1.853v6.891l-21.316-5.56v-3.184zm31.467 9.043h-8.12V33.12h8.12v7.105z" fill="url(#paint2_linear)"/></g><defs><linearGradient id="paint0_linear" x1="55.572" y1="44.281" x2="55.572" y2="85.95" gradientUnits="userSpaceOnUse"><stop stop-color="#18BBEB"/><stop offset="1" stop-color="#0170B0"/></linearGradient><linearGradient id="paint1_linear" x1="33.618" y1="49.036" x2="33.618" y2="57.482" gradientUnits="userSpaceOnUse"><stop stop-color="#18BBEB"/><stop offset="1" stop-color="#0170B0"/></linearGradient><linearGradient id="paint2_linear" x1="63.184" y1="25" x2="63.184" y2="44.286" gradientUnits="userSpaceOnUse"><stop stop-color="#18BBEB"/><stop offset="1" stop-color="#0170B0"/></linearGradient><clipPath id="clip0"><path fill="#fff" transform="translate(25 25)" d="M0 0h60.95v60.95H0z"/></clipPath><filter id="filter0_d" x="0" y="0" width="111.438" height="111.438" filterUnits="userSpaceOnUse" color-interpolation-filters="sRGB"><feFlood flood-opacity="0" result="BackgroundImageFix"/><feColorMatrix in="SourceAlpha" values="0 0 0 0 0 0 0 0 0 0 0 0 0 0 0 0 0 0 127 0"/><feOffset/><feGaussianBlur stdDeviation="3"/><feColorMatrix values="0 0 0 0 0 0 0 0 0 0 0 0 0 0 0 0 0 0 0.15 0"/><feBlend in2="BackgroundImageFix" result="effect1_dropShadow"/><feBlend in="SourceGraphic" in2="effect1_dropShadow" result="shape"/></filter></defs></svg>