<svg width="30" height="30" fill="none" xmlns="http://www.w3.org/2000/svg"><path d="M29.903 8.855a10.845 10.845 0 00-.698-3.686A7.667 7.667 0 0024.82.79a11.021 11.021 0 00-3.642-.699C19.575.02 19.067 0 14.998 0c-4.068 0-4.59 0-6.18.091a11.021 11.021 0 00-3.64.699A7.676 7.676 0 00.79 5.17a10.884 10.884 0 00-.698 3.633C.022 10.405 0 10.912 0 14.973c0 4.062 0 4.58.093 6.17.025 1.245.26 2.472.698 3.638a7.665 7.665 0 004.388 4.377c1.162.455 2.393.708 3.64.749 1.605.071 2.113.093 6.181.093s4.59 0 6.18-.093a10.996 10.996 0 003.642-.697 7.689 7.689 0 004.387-4.38c.438-1.163.673-2.39.698-3.636.071-1.6.093-2.108.093-6.17-.003-4.062-.003-4.578-.097-6.17zM14.988 22.654c-4.254 0-7.701-3.441-7.701-7.689s3.447-7.689 7.701-7.689c2.043 0 4.002.81 5.446 2.252a7.682 7.682 0 010 10.874 7.708 7.708 0 01-5.446 2.252zm8.008-13.87a1.792 1.792 0 110-3.584 1.797 1.797 0 011.795 1.792c0 .991-.803 1.793-1.795 1.793z" fill="#fff"/><path d="M14.988 19.96a4.999 4.999 0 005.003-4.994 4.999 4.999 0 00-5.003-4.995 4.999 4.999 0 00-5.003 4.995 4.999 4.999 0 005.003 4.994z" fill="#fff"/></svg>