<svg width="30" height="30" fill="none" xmlns="http://www.w3.org/2000/svg"><rect width="30" height="30" rx="10" fill="url(#paint0_linear)"/><path d="M19.865 13.243c.18.183.18.472 0 .655a.45.45 0 01-.639 0l-3.271-3.323v10.966c0 .256-.2.459-.452.459a.458.458 0 01-.458-.459V10.575l-3.264 3.323a.458.458 0 01-.646 0 .464.464 0 010-.655l4.046-4.11a.45.45 0 01.639 0l4.045 4.11z" fill="#fff"/><defs><linearGradient id="paint0_linear" x1="5.537" y1="50.625" x2="-25.5" y2="17.958" gradientUnits="userSpaceOnUse"><stop stop-color="#0170B0"/><stop offset="1" stop-color="#18BBEB"/></linearGradient></defs></svg>