<svg width="35" height="35" fill="none" xmlns="http://www.w3.org/2000/svg"><path d="M34.98 27.621c-.083-.516-.407-.957-.891-1.219l-7.168-4.224-.059-.033c-.3-.15-.632-.228-.968-.225-.6 0-1.174.227-1.572.627l-2.116 2.117a1.24 1.24 0 01-.475.215c-.024-.002-2.461-.178-6.948-4.666-4.478-4.479-4.668-6.924-4.67-6.924a1.13 1.13 0 01.213-.51l1.804-1.804c.636-.637.826-1.694.45-2.512L8.594.964C8.305.368 7.743 0 7.12 0c-.441 0-.867.183-1.2.516L1 5.424c-.47.469-.876 1.289-.965 1.95-.043.315-.915 7.848 9.41 18.177C18.21 34.318 25.045 35 26.933 35c.23.002.46-.01.688-.036.658-.088 1.477-.493 1.945-.963l4.914-4.914c.4-.403.584-.936.5-1.466z" fill="url(#paint0_linear)"/><defs><linearGradient id="paint0_linear" x1="6.46" y1="59.063" x2="-29.75" y2="20.951" gradientUnits="userSpaceOnUse"><stop stop-color="#0170B0"/><stop offset="1" stop-color="#18BBEB"/></linearGradient></defs></svg>