<svg width="52" height="51" fill="none" xmlns="http://www.w3.org/2000/svg"><path d="M9.652 0A9.285 9.285 0 00.346 9.305v32.351a9.285 9.285 0 009.306 9.306h17.534V31.039h-5.269v-7.173h5.268v-6.128c0-4.815 3.113-9.235 10.284-9.235 2.903 0 5.05.278 5.05.278l-.17 6.699s-2.189-.021-4.578-.021c-2.586 0-3 1.191-3 3.17v5.237h7.784l-.339 7.173h-7.445v19.923h7.231a9.285 9.285 0 009.306-9.306V9.306A9.285 9.285 0 0042.002 0H9.652z" fill="url(#paint0_linear)"/><defs><linearGradient id="paint0_linear" x1="9.753" y1="85.998" x2="-42.971" y2="30.505" gradientUnits="userSpaceOnUse"><stop stop-color="#0170B0"/><stop offset="1" stop-color="#18BBEB"/></linearGradient></defs></svg>