<svg width="113" height="112" fill="none" xmlns="http://www.w3.org/2000/svg"><g filter="url(#filter0_d)"><rect x="6.846" y="6" width="99.439" height="99.439" rx="10" fill="#fff"/></g><g clip-path="url(#clip0)"><path d="M32.613 56.17c2.014 1.74 6.07 3.996 13.957 5.05l1.51 7.341-1.592.521a3.045 3.045 0 101.892 5.788l.946-.305.44 2.126-1.422.463a3.047 3.047 0 001.893 5.788l.907-.296a5.997 5.997 0 0011.35-1.243l.551-2.649 2.561-.837a3.04 3.04 0 00-1.167-5.925l.527-2.544 2.75-.899a3.046 3.046 0 00-1.342-5.911l.291-1.421c7.887-1.054 11.943-3.312 13.957-5.05a7.898 7.898 0 002.526-4.265C84.9 44.232 84.2 34.1 79.474 29.574c-5.86-5.626-16.32-5.758-22.854-.448-6.536-5.31-16.994-5.178-22.859.456-4.727 4.526-5.426 14.657-3.674 22.327a7.9 7.9 0 002.526 4.262zm16.08 5.291c2.43.236 5.078.363 7.927.363 2.849 0 5.497-.127 7.927-.363l-.376 1.841-14.152 4.625-1.326-6.466zM60.51 80.993a3.987 3.987 0 01-3.89 3.17 3.946 3.946 0 01-3.518-2.154l7.718-2.524-.31 1.508zm4.613-6.873a1.015 1.015 0 01-.144 1.87l-13.437 4.394-1.929.632a1.016 1.016 0 11-.632-1.93l15.367-5.026a1.014 1.014 0 01.775.06zm-2.881-1.508l-10.534 3.442-.44-2.124 11.475-3.752-.501 2.434zm4.532-7.971a1.014 1.014 0 01.906 1.475c-.12.242-.333.424-.59.508l-19.34 6.319a1.015 1.015 0 01-.631-1.93l19.338-6.32c.102-.034.21-.052.317-.052zM35.166 31.047a14.58 14.58 0 0110.105-3.73 15.906 15.906 0 0110.662 3.9c.44.423 6.512 6.236 11.857 6.236a1.015 1.015 0 000-2.03c-3.568 0-7.846-3.374-9.619-4.919 5.722-4.402 14.907-4.249 19.903.543 4.136 3.96 4.683 13.47 3.098 20.41a5.881 5.881 0 01-1.872 3.176c-1.863 1.607-5.735 3.722-13.601 4.671a76.972 76.972 0 01-9.08.489 77.042 77.042 0 01-9.078-.49c-7.867-.948-11.738-3.064-13.601-4.67a5.881 5.881 0 01-1.873-3.176c-1.585-6.938-1.037-16.449 3.1-20.41z" fill="url(#paint0_linear)"/><path d="M35.044 46.508a1.015 1.015 0 00.98-1.283c-2.267-8.312 3.029-11.053 3.272-11.173a1.016 1.016 0 00-.883-1.828c-.071.033-7.078 3.528-4.348 13.535.12.442.52.748.979.749z" fill="url(#paint1_linear)"/><path d="M43.419 31.36a1.015 1.015 0 11-2.031 0 1.015 1.015 0 012.03 0z" fill="url(#paint2_linear)"/></g><defs><linearGradient id="paint0_linear" x1="56.618" y1="25.246" x2="56.618" y2="86.192" gradientUnits="userSpaceOnUse"><stop stop-color="#18BBEB"/><stop offset="1" stop-color="#0170B0"/></linearGradient><linearGradient id="paint1_linear" x1="36.639" y1="32.134" x2="36.639" y2="46.508" gradientUnits="userSpaceOnUse"><stop stop-color="#18BBEB"/><stop offset="1" stop-color="#0170B0"/></linearGradient><linearGradient id="paint2_linear" x1="42.403" y1="30.345" x2="42.403" y2="32.376" gradientUnits="userSpaceOnUse"><stop stop-color="#18BBEB"/><stop offset="1" stop-color="#0170B0"/></linearGradient><clipPath id="clip0"><path fill="#fff" transform="translate(26.092 25.246)" d="M0 0h60.946v60.946H0z"/></clipPath><filter id="filter0_d" x=".846" y="0" width="111.438" height="111.438" filterUnits="userSpaceOnUse" color-interpolation-filters="sRGB"><feFlood flood-opacity="0" result="BackgroundImageFix"/><feColorMatrix in="SourceAlpha" values="0 0 0 0 0 0 0 0 0 0 0 0 0 0 0 0 0 0 127 0"/><feOffset/><feGaussianBlur stdDeviation="3"/><feColorMatrix values="0 0 0 0 0 0 0 0 0 0 0 0 0 0 0 0 0 0 0.15 0"/><feBlend in2="BackgroundImageFix" result="effect1_dropShadow"/><feBlend in="SourceGraphic" in2="effect1_dropShadow" result="shape"/></filter></defs></svg>