<svg width="57" height="57" fill="none" xmlns="http://www.w3.org/2000/svg"><circle r="28.5" transform="matrix(1 0 0 -1 28.5 28.5)" fill="#fff"/><circle r="25" transform="matrix(1 0 0 -1 28.5 28.5)" stroke="#18BBEB" stroke-opacity=".2" stroke-width="7"/><circle r="28" transform="matrix(1 0 0 -1 28.5 28.5)" stroke="#18BBEB" stroke-opacity=".5"/><path d="M34.734 29.178l-8.167 8.541a.891.891 0 01-1.298 0 .989.989 0 010-1.355l7.52-7.863-7.52-7.864a.99.99 0 010-1.357.891.891 0 011.299 0l8.167 8.542a1 1 0 010 1.356z" fill="url(#paint0_linear)"/><defs><linearGradient id="paint0_linear" x1="26.846" y1="5.938" x2="10.159" y2="15.181" gradientUnits="userSpaceOnUse"><stop stop-color="#0170B0"/><stop offset="1" stop-color="#18BBEB"/></linearGradient></defs></svg>