<svg width="36" height="41" fill="none" xmlns="http://www.w3.org/2000/svg"><path d="M35.713 38.628l-1.77-10.396a2.956 2.956 0 00-2.066-2.348l-4.773-1.446A5.336 5.336 0 0023.41 19.8a9.72 9.72 0 00.42-.5c1.135-1.448 1.742-3.044 1.897-4.133h.368c.958 0 1.737-.782 1.737-1.743v-.894c0-.641-.36-1.222-.9-1.524V8.857a.587.587 0 10-1.172 0v2.412a3.596 3.596 0 00-.86.263 2.56 2.56 0 00-.19.093V6.888a2.372 2.372 0 00-2.365-2.374H20.73c-.558 0-1.103.195-1.534.55l-.16.13a1.637 1.637 0 01-2.07 0l-.16-.13a2.425 2.425 0 00-1.533-.55h-1.617a2.372 2.372 0 00-2.365 2.374v4.737a3.022 3.022 0 00-.271-.13 3.598 3.598 0 00-.78-.226v-6.1a3.45 3.45 0 013.44-3.451h8.641a3.45 3.45 0 013.44 3.452v.924a.587.587 0 101.172 0V5.17c0-2.552-2.069-4.628-4.612-4.628h-8.64c-2.543 0-4.612 2.076-4.612 4.628v5.835c-.54.302-.9.883-.9 1.524v.894c0 .96.78 1.743 1.737 1.743h.368c.155 1.089.762 2.685 1.897 4.133.129.164.269.332.42.5a5.358 5.358 0 00-3.694 4.64l-4.773 1.445a2.956 2.956 0 00-2.066 2.348l-.719 4.221a.586.586 0 101.155.198l.718-4.221a1.788 1.788 0 011.25-1.421l4.415-1.337v1.163c-1.012.187-1.873.885-2.227 1.851a2.99 2.99 0 00-.174.798l-.427 5.496a1.49 1.49 0 001.484 1.61h.73a.587.587 0 000-1.176h-.73a.317.317 0 01-.316-.343l.427-5.495a1.81 1.81 0 01.105-.484c.247-.672.913-1.127 1.658-1.133h.11c.724 0 1.365.412 1.635 1.052.076.18.122.37.138.565l.426 5.495a.318.318 0 01-.316.343h-.73a.587.587 0 000 1.176h.73a1.49 1.49 0 001.484-1.61l-.426-5.496a2.902 2.902 0 00-2.41-2.653v-1.513l2.014-.61c.183.387.546 1.224 1.265 3.028a489.654 489.654 0 012.511 6.476 788.35 788.35 0 011.614 4.276.586.586 0 001.097 0 771.967 771.967 0 011.636-4.332 491.653 491.653 0 012.488-6.417c.72-1.806 1.084-2.643 1.267-3.031l2.013.61v3.472a3.044 3.044 0 00.58 6.026 3.044 3.044 0 00.592-6.024v-3.12l4.414 1.337a1.788 1.788 0 011.25 1.42l1.77 10.397a.576.576 0 01-.129.474.572.572 0 01-.444.208H2.015a.572.572 0 01-.444-.208.576.576 0 01-.13-.474l.585-3.431a.586.586 0 10-1.155-.198l-.584 3.43a1.76 1.76 0 001.728 2.056h31.97a1.76 1.76 0 001.728-2.055zm-9.946-26.162c.312-.078.563-.077.566-.077.1.002.199-.022.286-.068a.559.559 0 01.041.208v.894a.567.567 0 01-.565.567h-.328v-1.524zM10.233 13.99h-.328a.567.567 0 01-.566-.567v-.894a.56.56 0 01.042-.208c.087.046.185.07.286.068.005.001.255 0 .566.077v1.524zm1.171.66v-1.545a.823.823 0 001.057-.79V6.887c0-.66.535-1.198 1.194-1.198h1.616c.289 0 .57.1.793.284l.159.13c.5.41 1.13.636 1.777.636a2.81 2.81 0 001.777-.636l.159-.13c.223-.183.504-.284.792-.284h1.617c.658 0 1.194.537 1.194 1.198v5.426a.823.823 0 001.057.791v1.544c0 .858-.591 2.525-1.687 3.924a7.736 7.736 0 01-1.457 1.435c-.89.66-2.034 1.166-3.452 1.166-1.418 0-2.563-.506-3.453-1.166a7.737 7.737 0 01-1.456-1.435c-1.095-1.399-1.687-3.066-1.687-3.924zm10.433 9.496L18 27.024l-3.838-2.878a2.79 2.79 0 00.594-1.664v-.948A6.74 6.74 0 0018 22.35a6.74 6.74 0 003.244-.816v.948c0 .556.213 1.179.593 1.664zm-8.652-.656a1.597 1.597 0 00-1.03-.038l-2.024.612a4.168 4.168 0 013.454-3.293v1.71c0 .37-.164.75-.4 1.009zm1.59 4.719l-.004-.008-.088-.224-.015-.04-.085-.213-.006-.015a220.14 220.14 0 00-.268-.674l-.069-.17-.024-.062-.065-.161-.02-.047-.113-.281-.03-.075a40.6 40.6 0 01-.043-.105l-.046-.111-.017-.042-.013-.032-.193-.467-.001-.003a59.694 59.694 0 00-.095-.227l-.047-.11 3.3 2.475-1.379.588a.231.231 0 00-.007.003l-.576.246-.096-.245zm1.397 3.599a601.189 601.189 0 00-.873-2.26l.219-.093.893 1.042-.239 1.311zm1.84 4.778a.587.587 0 00-.06-.1c-.265-.701-.601-1.59-.973-2.567l.547-3.005h.948l.547 3.005c-.39 1.024-.74 1.95-1.01 2.667zm.682-6.847h-1.388l-.657-.766 1.35-.576 1.351.576-.656.766zm1.483 1.162l-.35.907-.238-1.311.893-1.042.219.093c-.167.43-.342.88-.524 1.353zm2.243-5.649l-.09.215-.012.029a68.952 68.952 0 00-.184.446l-.016.039-.02.048-.039.096-.048.119-.016.039a115.191 115.191 0 00-.21.52l-.026.063-.067.169-.02.048a180.454 180.454 0 00-.256.643l-.084.212-.015.04c-.03.073-.06.148-.089.224l-.002.004-.097.248-.576-.246-.006-.002-1.38-.589 3.3-2.475-.047.11zm1.425-1.8l-.002-.001a1.596 1.596 0 00-1.028.039c-.236-.258-.4-.64-.4-1.008V20.77a4.135 4.135 0 013.456 3.295l-2.026-.614zm4.546 8.323a1.865 1.865 0 01-1.86 1.866 1.865 1.865 0 01-1.86-1.866c0-1.029.835-1.866 1.86-1.866 1.026 0 1.86.837 1.86 1.866z" fill="url(#paint0_linear)"/><defs><linearGradient id="paint0_linear" x1="18" y1=".542" x2="18" y2="40.683" gradientUnits="userSpaceOnUse"><stop stop-color="#18BBEB"/><stop offset="1" stop-color="#0095C4"/></linearGradient></defs></svg>