<svg width="1920" height="632" fill="none" xmlns="http://www.w3.org/2000/svg"><path d="M0 631c107.04-261.634 439.073-513.31 802.079-181.062C1165.08 782.187 1678.46 492.186 1919.5 0" stroke="#18BBEB" stroke-opacity=".4"/><ellipse cx="1051.46" cy="581.208" rx="10.592" ry="9.958" fill="#fff"/><path d="M1061.56 581.208c0 5.195-4.49 9.458-10.1 9.458-5.6 0-10.09-4.263-10.09-9.458s4.49-9.458 10.09-9.458c5.61 0 10.1 4.263 10.1 9.458z" stroke="#18BBEB" stroke-opacity=".4"/><ellipse cx="477.588" cy="291.509" rx="10.592" ry="9.958" fill="#fff"/><path d="M487.68 291.509c0 5.195-4.489 9.459-10.092 9.459-5.603 0-10.092-4.264-10.092-9.459 0-5.195 4.489-9.458 10.092-9.458 5.603 0 10.092 4.263 10.092 9.458z" stroke="#18BBEB" stroke-opacity=".4"/><ellipse cx="1633.04" cy="382.945" rx="10.592" ry="9.958" fill="#fff"/><path d="M1643.14 382.945c0 5.196-4.49 9.459-10.1 9.459-5.6 0-10.09-4.263-10.09-9.459 0-5.195 4.49-9.458 10.09-9.458 5.61 0 10.1 4.263 10.1 9.458z" stroke="#18BBEB" stroke-opacity=".4"/></svg>