<svg width="1920" height="2887" fill="none" xmlns="http://www.w3.org/2000/svg"><path d="M-23 2275c25.4-308.6 390.375-1217.1 855.374-970.94C1297.37 1550.22 1864.17 592.626 1951.5.5" stroke="#18BBEB" stroke-opacity=".4"/><circle cx="628.65" cy="1264.65" r="11" transform="rotate(-16.334 628.65 1264.65)" fill="#fff"/><circle cx="628.65" cy="1264.65" r="10.5" transform="rotate(-16.334 628.65 1264.65)" stroke="#18BBEB" stroke-opacity=".4"/><circle r="11" transform="rotate(-16.335 2806.712 -5914.274)" fill="#fff"/><circle r="10.5" transform="rotate(-16.335 2806.712 -5914.274)" stroke="#18BBEB" stroke-opacity=".4"/><circle cx="1212.65" cy="1272.65" r="11" transform="rotate(-16.334 1212.65 1272.65)" fill="#fff"/><circle cx="1212.65" cy="1272.65" r="10.5" transform="rotate(-16.334 1212.65 1272.65)" stroke="#18BBEB" stroke-opacity=".4"/><path d="M1938 2886.5c-111.17-289-575.5-571.5-952.5-204.5S75.333 2728.67-175 2185" stroke="#18BBEB" stroke-opacity=".4"/><circle r="11" transform="matrix(-1 0 0 1 650 2837)" fill="#fff"/><circle r="10.5" transform="matrix(-1 0 0 1 650 2837)" stroke="#18BBEB" stroke-opacity=".4"/><path d="M1526 2531c0 6.08 4.92 11 11 11s11-4.92 11-11-4.92-11-11-11-11 4.92-11 11z" fill="#fff"/><path d="M1526.5 2531c0 5.8 4.7 10.5 10.5 10.5s10.5-4.7 10.5-10.5-4.7-10.5-10.5-10.5-10.5 4.7-10.5 10.5z" stroke="#18BBEB" stroke-opacity=".4"/><circle r="11" transform="matrix(-1 0 0 1 243 2707)" fill="#fff"/><circle r="10.5" transform="matrix(-1 0 0 1 243 2707)" stroke="#18BBEB" stroke-opacity=".4"/></svg>