<svg xmlns="http://www.w3.org/2000/svg" xmlns:xlink="http://www.w3.org/1999/xlink"><defs>
<linearGradient id="paint0_linear" x1="4.84579" y1="19.875" x2="-5.5" y2="8.98591" gradientUnits="userSpaceOnUse">
<stop stop-color="#0082D5"/>
<stop offset="1" stop-color="#2FCFFE"/>
</linearGradient>

<linearGradient id="paint0_linear" x1="5.53738" y1="50.625" x2="-25.5" y2="17.9577" gradientUnits="userSpaceOnUse">
<stop stop-color="#0170B0"/>
<stop offset="1" stop-color="#18BBEB"/>
</linearGradient>

<linearGradient id="paint0_linear" x1="30.1542" y1="5.9375" x2="46.8405" y2="15.1809" gradientUnits="userSpaceOnUse">
<stop stop-color="#0170B0"/>
<stop offset="1" stop-color="#18BBEB"/>
</linearGradient>

<linearGradient id="paint0_linear" x1="26.8458" y1="5.9375" x2="10.1595" y2="15.1809" gradientUnits="userSpaceOnUse">
<stop stop-color="#0170B0"/>
<stop offset="1" stop-color="#18BBEB"/>
</linearGradient>

<linearGradient id="paint0_linear" x1="5.53738" y1="50.625" x2="-25.5" y2="17.9577" gradientUnits="userSpaceOnUse">
<stop stop-color="#0170B0"/>
<stop offset="1" stop-color="#18BBEB"/>
</linearGradient>

<filter id="filter0_d" x="0.253845" y="0.369019" width="111.438" height="111.438" filterUnits="userSpaceOnUse" color-interpolation-filters="sRGB">
<feFlood flood-opacity="0" result="BackgroundImageFix"/>
<feColorMatrix in="SourceAlpha" type="matrix" values="0 0 0 0 0 0 0 0 0 0 0 0 0 0 0 0 0 0 127 0"/>
<feOffset/>
<feGaussianBlur stdDeviation="3"/>
<feColorMatrix type="matrix" values="0 0 0 0 0 0 0 0 0 0 0 0 0 0 0 0 0 0 0.15 0"/>
<feBlend mode="normal" in2="BackgroundImageFix" result="effect1_dropShadow"/>
<feBlend mode="normal" in="SourceGraphic" in2="effect1_dropShadow" result="shape"/>
</filter>
<linearGradient id="paint0_linear" x1="55.9731" y1="39.4232" x2="55.9731" y2="72.7629" gradientUnits="userSpaceOnUse">
<stop stop-color="#18BBEB"/>
<stop offset="1" stop-color="#0170B0"/>
</linearGradient>
<clipPath id="clip0">
<rect width="60.9461" height="60.9461" fill="white" transform="translate(25.5 25.6151)"/>
</clipPath>

<filter id="filter0_d" x="0.215332" y="0" width="111.438" height="111.438" filterUnits="userSpaceOnUse" color-interpolation-filters="sRGB">
<feFlood flood-opacity="0" result="BackgroundImageFix"/>
<feColorMatrix in="SourceAlpha" type="matrix" values="0 0 0 0 0 0 0 0 0 0 0 0 0 0 0 0 0 0 127 0"/>
<feOffset/>
<feGaussianBlur stdDeviation="3"/>
<feColorMatrix type="matrix" values="0 0 0 0 0 0 0 0 0 0 0 0 0 0 0 0 0 0 0.15 0"/>
<feBlend mode="normal" in2="BackgroundImageFix" result="effect1_dropShadow"/>
<feBlend mode="normal" in="SourceGraphic" in2="effect1_dropShadow" result="shape"/>
</filter>
<linearGradient id="paint0_linear" x1="39.274" y1="47.7358" x2="39.274" y2="50.3221" gradientUnits="userSpaceOnUse">
<stop stop-color="#18BBEB"/>
<stop offset="1" stop-color="#0170B0"/>
</linearGradient>
<linearGradient id="paint1_linear" x1="55.9346" y1="27.7852" x2="55.9346" y2="83.6529" gradientUnits="userSpaceOnUse">
<stop stop-color="#18BBEB"/>
<stop offset="1" stop-color="#0170B0"/>
</linearGradient>
<linearGradient id="paint2_linear" x1="46.512" y1="55.9637" x2="46.512" y2="61.327" gradientUnits="userSpaceOnUse">
<stop stop-color="#18BBEB"/>
<stop offset="1" stop-color="#0170B0"/>
</linearGradient>
<linearGradient id="paint3_linear" x1="65.3574" y1="55.9637" x2="65.3574" y2="61.3271" gradientUnits="userSpaceOnUse">
<stop stop-color="#18BBEB"/>
<stop offset="1" stop-color="#0170B0"/>
</linearGradient>
<linearGradient id="paint4_linear" x1="55.935" y1="68.5934" x2="55.935" y2="73.9568" gradientUnits="userSpaceOnUse">
<stop stop-color="#18BBEB"/>
<stop offset="1" stop-color="#0170B0"/>
</linearGradient>
<clipPath id="clip0">
<rect width="60.9461" height="60.9461" fill="white" transform="translate(25.4615 25.2461)"/>
</clipPath>

<filter id="filter0_d" x="0.60791" y="0.369263" width="111.438" height="111.438" filterUnits="userSpaceOnUse" color-interpolation-filters="sRGB">
<feFlood flood-opacity="0" result="BackgroundImageFix"/>
<feColorMatrix in="SourceAlpha" type="matrix" values="0 0 0 0 0 0 0 0 0 0 0 0 0 0 0 0 0 0 127 0"/>
<feOffset/>
<feGaussianBlur stdDeviation="3"/>
<feColorMatrix type="matrix" values="0 0 0 0 0 0 0 0 0 0 0 0 0 0 0 0 0 0 0.15 0"/>
<feBlend mode="normal" in2="BackgroundImageFix" result="effect1_dropShadow"/>
<feBlend mode="normal" in="SourceGraphic" in2="effect1_dropShadow" result="shape"/>
</filter>
<linearGradient id="paint0_linear" x1="56.3272" y1="57.1058" x2="56.3272" y2="86.5625" gradientUnits="userSpaceOnUse">
<stop stop-color="#18BBEB"/>
<stop offset="1" stop-color="#0170B0"/>
</linearGradient>
<linearGradient id="paint1_linear" x1="56.3272" y1="25.6177" x2="56.3272" y2="40.8547" gradientUnits="userSpaceOnUse">
<stop stop-color="#18BBEB"/>
<stop offset="1" stop-color="#0170B0"/>
</linearGradient>
<linearGradient id="paint2_linear" x1="50.2341" y1="42.8907" x2="50.2341" y2="55.0743" gradientUnits="userSpaceOnUse">
<stop stop-color="#18BBEB"/>
<stop offset="1" stop-color="#0170B0"/>
</linearGradient>
<linearGradient id="paint3_linear" x1="62.4231" y1="42.8907" x2="62.4231" y2="55.0743" gradientUnits="userSpaceOnUse">
<stop stop-color="#18BBEB"/>
<stop offset="1" stop-color="#0170B0"/>
</linearGradient>
<linearGradient id="paint4_linear" x1="76.643" y1="44.9222" x2="76.643" y2="57.1058" gradientUnits="userSpaceOnUse">
<stop stop-color="#18BBEB"/>
<stop offset="1" stop-color="#0170B0"/>
</linearGradient>
<linearGradient id="paint5_linear" x1="34.9976" y1="44.923" x2="34.9976" y2="57.1057" gradientUnits="userSpaceOnUse">
<stop stop-color="#18BBEB"/>
<stop offset="1" stop-color="#0170B0"/>
</linearGradient>
<clipPath id="clip0">
<rect width="60.9461" height="60.9461" fill="white" transform="translate(25.854 25.6154)"/>
</clipPath>

<filter id="filter0_d" x="0" y="0" width="111.438" height="111.438" filterUnits="userSpaceOnUse" color-interpolation-filters="sRGB">
<feFlood flood-opacity="0" result="BackgroundImageFix"/>
<feColorMatrix in="SourceAlpha" type="matrix" values="0 0 0 0 0 0 0 0 0 0 0 0 0 0 0 0 0 0 127 0"/>
<feOffset/>
<feGaussianBlur stdDeviation="3"/>
<feColorMatrix type="matrix" values="0 0 0 0 0 0 0 0 0 0 0 0 0 0 0 0 0 0 0.15 0"/>
<feBlend mode="normal" in2="BackgroundImageFix" result="effect1_dropShadow"/>
<feBlend mode="normal" in="SourceGraphic" in2="effect1_dropShadow" result="shape"/>
</filter>
<linearGradient id="paint0_linear" x1="55.5716" y1="44.2812" x2="55.5716" y2="85.95" gradientUnits="userSpaceOnUse">
<stop stop-color="#18BBEB"/>
<stop offset="1" stop-color="#0170B0"/>
</linearGradient>
<linearGradient id="paint1_linear" x1="33.6185" y1="49.0361" x2="33.6185" y2="57.4818" gradientUnits="userSpaceOnUse">
<stop stop-color="#18BBEB"/>
<stop offset="1" stop-color="#0170B0"/>
</linearGradient>
<linearGradient id="paint2_linear" x1="63.1845" y1="25" x2="63.1845" y2="44.2862" gradientUnits="userSpaceOnUse">
<stop stop-color="#18BBEB"/>
<stop offset="1" stop-color="#0170B0"/>
</linearGradient>
<clipPath id="clip0">
<rect width="60.95" height="60.95" fill="white" transform="translate(25 25)"/>
</clipPath>

<linearGradient id="paint0_linear" x1="17.9999" y1="0.542236" x2="17.9999" y2="40.6831" gradientUnits="userSpaceOnUse">
<stop stop-color="#18BBEB"/>
<stop offset="1" stop-color="#0095C4"/>
</linearGradient>

<filter id="filter0_d" x="0.846191" y="0.00012207" width="111.438" height="111.438" filterUnits="userSpaceOnUse" color-interpolation-filters="sRGB">
<feFlood flood-opacity="0" result="BackgroundImageFix"/>
<feColorMatrix in="SourceAlpha" type="matrix" values="0 0 0 0 0 0 0 0 0 0 0 0 0 0 0 0 0 0 127 0"/>
<feOffset/>
<feGaussianBlur stdDeviation="3"/>
<feColorMatrix type="matrix" values="0 0 0 0 0 0 0 0 0 0 0 0 0 0 0 0 0 0 0.15 0"/>
<feBlend mode="normal" in2="BackgroundImageFix" result="effect1_dropShadow"/>
<feBlend mode="normal" in="SourceGraphic" in2="effect1_dropShadow" result="shape"/>
</filter>
<linearGradient id="paint0_linear" x1="56.6176" y1="25.2461" x2="56.6176" y2="86.1922" gradientUnits="userSpaceOnUse">
<stop stop-color="#18BBEB"/>
<stop offset="1" stop-color="#0170B0"/>
</linearGradient>
<linearGradient id="paint1_linear" x1="36.6393" y1="32.1343" x2="36.6393" y2="46.5079" gradientUnits="userSpaceOnUse">
<stop stop-color="#18BBEB"/>
<stop offset="1" stop-color="#0170B0"/>
</linearGradient>
<linearGradient id="paint2_linear" x1="42.4033" y1="30.3453" x2="42.4033" y2="32.376" gradientUnits="userSpaceOnUse">
<stop stop-color="#18BBEB"/>
<stop offset="1" stop-color="#0170B0"/>
</linearGradient>
<clipPath id="clip0">
<rect width="60.9461" height="60.9461" fill="white" transform="translate(26.0923 25.2462)"/>
</clipPath>

<linearGradient id="paint0_linear" x1="14.9999" y1="6.37062" x2="14.9999" y2="24.6717" gradientUnits="userSpaceOnUse">
<stop stop-color="#18BBEB"/>
<stop offset="1" stop-color="#0196C5"/>
</linearGradient>
<linearGradient id="paint1_linear" x1="14.9999" y1="6.37062" x2="14.9999" y2="24.6717" gradientUnits="userSpaceOnUse">
<stop stop-color="#18BBEB"/>
<stop offset="1" stop-color="#0196C5"/>
</linearGradient>

<linearGradient id="paint0_linear" x1="6.46028" y1="59.0625" x2="-29.75" y2="20.9507" gradientUnits="userSpaceOnUse">
<stop stop-color="#0170B0"/>
<stop offset="1" stop-color="#18BBEB"/>
</linearGradient>

<filter id="filter0_d" x="0.899963" y="0.369385" width="111.438" height="111.438" filterUnits="userSpaceOnUse" color-interpolation-filters="sRGB">
<feFlood flood-opacity="0" result="BackgroundImageFix"/>
<feColorMatrix in="SourceAlpha" type="matrix" values="0 0 0 0 0 0 0 0 0 0 0 0 0 0 0 0 0 0 127 0"/>
<feOffset/>
<feGaussianBlur stdDeviation="3"/>
<feColorMatrix type="matrix" values="0 0 0 0 0 0 0 0 0 0 0 0 0 0 0 0 0 0 0.15 0"/>
<feBlend mode="normal" in2="BackgroundImageFix" result="effect1_dropShadow"/>
<feBlend mode="normal" in="SourceGraphic" in2="effect1_dropShadow" result="shape"/>
</filter>
<linearGradient id="paint0_linear" x1="56.6192" y1="25.7091" x2="56.6192" y2="86.6317" gradientUnits="userSpaceOnUse">
<stop stop-color="#18BBEB"/>
<stop offset="1" stop-color="#0170B0"/>
</linearGradient>
<linearGradient id="paint1_linear" x1="60.6286" y1="49.0529" x2="60.6286" y2="51.084" gradientUnits="userSpaceOnUse">
<stop stop-color="#18BBEB"/>
<stop offset="1" stop-color="#0170B0"/>
</linearGradient>
<linearGradient id="paint2_linear" x1="75.3485" y1="29.6006" x2="75.3485" y2="33.8219" gradientUnits="userSpaceOnUse">
<stop stop-color="#18BBEB"/>
<stop offset="1" stop-color="#0170B0"/>
</linearGradient>
<clipPath id="clip0">
<rect width="60.9461" height="60.9461" fill="white" transform="translate(26.1462 25.6155)"/>
</clipPath>
</defs><symbol id="icon-active" viewBox="0 0 16 16">
<circle cx="8" cy="8" r="7.75" stroke="#18BBEB" stroke-width="0.5"/>
<circle cx="8" cy="8" r="5" fill="url(#paint0_linear)"/>

</symbol><symbol id="icon-arrow-down" viewBox="0 0 30 30">
<rect width="30" height="30" rx="10" fill="url(#paint0_linear)"/>
<path d="M19.1977 16.9819C19.3786 16.7938 19.3786 16.4977 19.1977 16.3097C19.0104 16.128 18.7089 16.128 18.5284 16.3097L15.1352 19.718V8.47057C15.1352 8.20839 14.9277 8 14.6667 8C14.4056 8 14.1914 8.20839 14.1914 8.47057V19.718L10.8049 16.3097C10.6177 16.128 10.3229 16.128 10.1357 16.3097C9.95477 16.4977 9.95477 16.7938 10.1357 16.9819L14.3323 21.1971C14.5132 21.3788 14.8143 21.3788 15.0015 21.1971L19.1977 16.9819Z" fill="white"/>

</symbol><symbol id="icon-arrow-left" viewBox="0 0 57 57">
<circle cx="28.5" cy="28.5" r="28.5" transform="rotate(180 28.5 28.5)" fill="white"/>
<circle cx="28.5" cy="28.5" r="25" transform="rotate(180 28.5 28.5)" stroke="#18BBEB" stroke-opacity="0.2" stroke-width="7"/>
<circle cx="28.5" cy="28.5" r="28" transform="rotate(180 28.5 28.5)" stroke="#18BBEB" stroke-opacity="0.5"/>
<path d="M22.2655 29.1781L30.4329 37.7195C30.7913 38.0935 31.3719 38.0935 31.7312 37.7195C32.0896 37.3456 32.0896 36.7381 31.7312 36.3642L24.2116 28.5005L31.7303 20.6368C32.0887 20.2628 32.0887 19.6554 31.7303 19.2805C31.3719 18.9065 30.7904 18.9065 30.432 19.2805L22.2646 27.8219C21.9116 28.192 21.9116 28.809 22.2655 29.1781Z" fill="url(#paint0_linear)"/>

</symbol><symbol id="icon-arrow-right" viewBox="0 0 57 57">
<circle r="28.5" transform="matrix(1 8.74228e-08 8.74228e-08 -1 28.5 28.5)" fill="white"/>
<circle r="25" transform="matrix(1 8.74228e-08 8.74228e-08 -1 28.5 28.5)" stroke="#18BBEB" stroke-opacity="0.2" stroke-width="7"/>
<circle r="28" transform="matrix(1 8.74228e-08 8.74228e-08 -1 28.5 28.5)" stroke="#18BBEB" stroke-opacity="0.5"/>
<path d="M34.7345 29.1781L26.5671 37.7195C26.2087 38.0935 25.6281 38.0935 25.2688 37.7195C24.9104 37.3456 24.9104 36.7381 25.2688 36.3642L32.7884 28.5005L25.2697 20.6368C24.9113 20.2628 24.9113 19.6554 25.2697 19.2805C25.6281 18.9065 26.2096 18.9065 26.568 19.2805L34.7354 27.8219C35.0884 28.192 35.0884 28.809 34.7345 29.1781Z" fill="url(#paint0_linear)"/>

</symbol><symbol id="icon-arrow-up" viewBox="0 0 30 30">
<rect width="30" height="30" rx="10" fill="url(#paint0_linear)"/>
<path d="M19.8646 13.243C20.0451 13.4263 20.0451 13.715 19.8646 13.8983C19.6902 14.0755 19.4 14.0755 19.226 13.8983L15.9549 10.5753V21.5412C15.9549 21.7968 15.7549 22 15.5033 22C15.2516 22 15.0451 21.7968 15.0451 21.5412V10.5749L11.7805 13.8979C11.6 14.0751 11.3093 14.0751 11.1354 13.8979C10.9549 13.7146 10.9549 13.4259 11.1354 13.2426L15.1809 9.13287C15.3553 8.95571 15.6455 8.95571 15.8195 9.13287L19.8646 13.243Z" fill="white"/>

</symbol><symbol id="icon-braces" viewBox="0 0 112 112">
<g filter="url(#filter0_d)">
<rect x="6.25385" y="6.36902" width="99.4385" height="99.4385" rx="10" fill="white"/>
</g>
<g clip-path="url(#clip0)">
<path d="M80.9612 40.747C64.3493 38.9819 47.5969 38.9819 30.9849 40.747C27.8719 41.0646 25.5033 43.6848 25.5 46.8141V66.2936C25.5084 68.7608 27.5143 70.7547 29.9815 70.7477H37.2706C38.2526 70.7444 39.2054 70.4171 39.9819 69.8163C40.5956 71.5786 42.2561 72.7601 44.1221 72.7629H52.5875C53.9006 72.7592 55.1431 72.1668 55.9731 71.149C56.8031 72.1668 58.0455 72.7592 59.3586 72.7629H67.8241C69.6896 72.7606 71.35 71.5791 71.9643 69.8172C72.7408 70.418 73.694 70.7454 74.6756 70.7486H81.9646C84.4323 70.7556 86.4382 68.7613 86.4461 66.2936V46.8141C86.4429 43.6848 84.0743 41.0646 80.9612 40.747ZM70.1936 57.5082V60.2182C69.2302 60.2712 68.2147 60.3191 67.1466 60.3614V58.5424C67.1466 57.4204 66.2371 56.5109 65.1151 56.5109H62.0676C60.9456 56.5109 60.0361 57.4204 60.0361 58.5424V60.5474C59.054 60.5595 58.0362 60.5678 56.9891 60.5706V57.7979C57.0123 53.7047 60.3444 50.4024 64.4376 50.4163C68.9819 50.4163 70.1936 54.0995 70.1936 56.276V57.5082ZM78.9111 50.8832H79.1143C80.5134 50.7809 81.8903 51.2775 82.9011 52.2498C83.9125 53.2225 84.4625 54.5784 84.4146 55.9803V58.733C83.9557 58.8218 83.2843 58.9362 82.3831 59.0757V57.5264C82.3831 56.4044 81.4736 55.4949 80.3516 55.4949H77.3041C76.1821 55.4949 75.2726 56.4044 75.2726 57.5264V59.8741C74.3306 59.9526 73.3151 60.0275 72.2256 60.0987V57.5082C72.2465 53.8344 75.2373 50.8711 78.9111 50.8832ZM80.3516 63.6209H77.3041V61.7419C78.4438 61.6322 79.4598 61.522 80.3516 61.4118V63.6209ZM77.3041 59.6899V57.5264H80.3516V59.3547C79.4668 59.4635 78.455 59.5783 77.3041 59.6899ZM65.1151 64.6369H62.0676V62.5463C63.1222 62.5263 64.141 62.5008 65.1151 62.4701V64.6369ZM62.0676 60.513V58.5424H65.1151V60.4348C64.141 60.466 63.1231 60.4916 62.0676 60.513ZM54.9571 60.5739C53.9099 60.5739 52.8921 60.5627 51.9101 60.5506V58.5424C51.9101 57.4204 51.0006 56.5109 49.8786 56.5109H46.8311C45.7091 56.5109 44.7996 57.4204 44.7996 58.5424V60.3614C43.7324 60.3191 42.7164 60.2712 41.7525 60.2182V56.276C41.7525 54.0995 42.9643 50.4163 47.5085 50.4163C51.6018 50.4024 54.9338 53.7047 54.9571 57.7979V60.5739ZM49.8786 64.6369H46.8311V62.4701C47.8061 62.5008 48.8249 62.5263 49.8786 62.5463V64.6369ZM46.8311 60.4348V58.5424H49.8786V60.513C48.824 60.4916 47.8061 60.466 46.8311 60.4348ZM39.7206 60.0987C38.6297 60.0275 37.6142 59.9526 36.6735 59.8741V57.5264C36.6735 56.4044 35.764 55.4949 34.642 55.4949H31.5945C30.4725 55.4949 29.563 56.4044 29.563 57.5264V59.0757C28.6619 58.9395 27.9904 58.8218 27.5315 58.733V55.9803C27.4836 54.5779 28.0342 53.2206 29.0464 52.2484C30.0582 51.2756 31.436 50.7795 32.836 50.8832H33.0392C36.7112 50.8734 39.6996 53.8358 39.7206 57.5082V60.0987ZM34.642 63.6209H31.5945V61.4118C32.4859 61.5201 33.5014 61.6303 34.642 61.7419V63.6209ZM31.5945 59.3547V57.5264H34.642V59.6899C33.4912 59.5783 32.4794 59.4635 31.5945 59.3547ZM37.2706 68.718H29.9815C28.6354 68.725 27.5389 67.6397 27.5315 66.2936V60.8082C28.0393 60.904 28.714 61.0179 29.563 61.1425V63.6209C29.563 64.7429 30.4725 65.6529 31.5945 65.6529H34.642C35.764 65.6529 36.6735 64.7429 36.6735 63.6209V61.9218C37.6193 61.9981 38.6297 62.073 39.7206 62.1423V66.2936C39.7122 67.6388 38.6158 68.7231 37.2706 68.7162V68.718ZM52.5875 70.7314H44.1221C42.8211 70.737 41.7614 69.6889 41.7525 68.3879V62.259C42.7174 62.3096 43.7329 62.3566 44.7996 62.3989V64.6369C44.7996 65.7589 45.7091 66.6684 46.8311 66.6684H49.8786C51.0006 66.6684 51.9101 65.7589 51.9101 64.6369V62.5798C52.8912 62.5924 53.9109 62.5993 54.9571 62.6021V68.3921C54.9459 69.6912 53.8867 70.737 52.5875 70.7314ZM70.1936 68.3879C70.1848 69.6889 69.1251 70.737 67.8241 70.7314H59.3586C58.0576 70.737 56.9979 69.6889 56.9891 68.3879V62.6054C58.0353 62.6054 59.055 62.5951 60.0361 62.5831V64.6369C60.0361 65.7589 60.9456 66.6684 62.0676 66.6684H65.1151C66.2371 66.6684 67.1466 65.7589 67.1466 64.6369V62.4022C68.2147 62.3608 69.2302 62.3143 70.1936 62.2622V68.3911V68.3879ZM81.9646 68.7162H74.6756C73.3304 68.7231 72.234 67.6388 72.2256 66.2936V62.1423C73.3164 62.073 74.3269 61.9981 75.2726 61.9218V63.6209C75.2726 64.7429 76.1821 65.6529 77.3041 65.6529H80.3516C81.4736 65.6529 82.3831 64.7429 82.3831 63.6209V61.1384C83.2322 61.0137 83.9069 60.8998 84.4146 60.8045V66.2894C84.4118 66.9362 84.1519 67.5551 83.6925 68.0103C83.2327 68.4655 82.6114 68.7194 81.9646 68.7162ZM79.1092 48.8517H78.906C75.9222 48.8517 73.1449 50.3763 71.5439 52.8947C70.3722 50.0336 67.5209 48.2249 64.4334 48.3844C60.8596 48.3862 57.5898 50.3949 55.9731 53.5824C54.3559 50.394 51.0838 48.3848 47.5085 48.3844C44.4211 48.2249 41.5698 50.0336 40.3985 52.8947C38.7971 50.3763 36.0202 48.8517 33.036 48.8517H32.8328C30.864 48.7735 28.9488 49.5036 27.5315 50.872V46.809C27.5394 44.7208 29.1236 42.9761 31.2016 42.7674C33.5307 42.5195 35.8658 42.3154 38.2033 42.1378C38.3535 42.2331 38.5269 42.2856 38.705 42.2898C39.1458 42.2898 39.7206 44.2604 39.7206 46.3528C39.7206 46.9141 40.1758 47.3688 40.7365 47.3688C41.2973 47.3688 41.7525 46.9141 41.7525 46.3528C41.773 44.85 41.5038 43.357 40.9588 41.956C45.6189 41.6565 50.2849 41.4938 54.9571 41.4682V47.3688C54.9571 47.9296 55.4123 48.3844 55.9731 48.3844C56.5338 48.3844 56.9891 47.9296 56.9891 47.3688V41.4682C61.6612 41.4887 66.3273 41.6509 70.9874 41.956C70.4429 43.357 70.1732 44.85 70.1936 46.3528C70.1936 46.9141 70.6488 47.3688 71.2096 47.3688C71.7704 47.3688 72.2256 46.9141 72.2256 46.3528C72.2256 44.2604 72.8003 42.2898 73.2411 42.2898C73.4192 42.2856 73.5922 42.2331 73.7428 42.1387C76.0794 42.3163 78.4154 42.5195 80.7455 42.7674C82.8249 42.9766 84.4095 44.7245 84.4146 46.8141V50.8771C82.9969 49.5059 81.0803 48.774 79.1092 48.8517Z" fill="url(#paint0_linear)"/>
</g>

</symbol><symbol id="icon-child" viewBox="0 0 112 112">
<g filter="url(#filter0_d)">
<rect x="6.21533" y="6" width="99.4385" height="99.4385" rx="10" fill="white"/>
</g>
<g clip-path="url(#clip0)">
<path d="M39.8969 47.8923C39.2821 47.5553 38.5103 47.7806 38.1732 48.3957L38.1477 48.4419C37.8107 49.0568 38.0359 49.8287 38.6511 50.1656C38.8448 50.2718 39.0539 50.3221 39.2602 50.3221C39.709 50.3221 40.1439 50.0836 40.3749 49.6622L40.4003 49.6161C40.7373 49.0011 40.5119 48.2293 39.8969 47.8923Z" fill="url(#paint0_linear)"/>
<path d="M80.5307 51.9294C78.534 44.1578 72.9357 37.6974 65.3819 34.6784C64.077 30.6036 60.2404 27.7852 55.9347 27.7852C51.519 27.7852 47.7695 30.6863 46.4882 34.6821C41.9388 36.5043 38.0429 39.5782 35.1926 43.6053C33.3919 46.1496 32.0937 48.9622 31.3336 51.9297C28.055 52.1746 25.4615 54.9185 25.4615 58.2585C25.4615 61.6004 28.0576 64.3457 31.3388 64.5878C34.1584 75.538 44.1165 83.6529 55.9347 83.6529C67.7527 83.6529 77.7108 75.538 80.5303 64.5878C83.8115 64.3457 86.4077 61.6004 86.4077 58.2582C86.4077 54.9167 83.8118 52.1717 80.5307 51.9294ZM28.0012 58.2582C28.0012 56.5061 29.1907 55.0267 30.8043 54.5843C30.6953 55.34 30.6194 56.103 30.5782 56.8718C30.5775 56.8825 30.5771 56.893 30.5765 56.9037C30.5691 57.0437 30.5626 57.1838 30.5576 57.3242C30.5556 57.3774 30.5545 57.4306 30.5531 57.4838C30.55 57.5845 30.5467 57.6851 30.5448 57.7859C30.5421 57.9434 30.5404 58.1009 30.5404 58.2584C30.5404 58.4506 30.5434 58.6427 30.5479 58.8351C30.5492 58.8953 30.5509 58.9553 30.5528 59.0153C30.5569 59.1552 30.5623 59.295 30.5688 59.4348C30.5714 59.4941 30.5738 59.5535 30.5767 59.6129C30.586 59.7874 30.5972 59.9616 30.6099 60.1359C30.616 60.2178 30.6232 60.2992 30.6298 60.3809C30.6385 60.4842 30.6476 60.5876 30.6574 60.6908C30.6661 60.7818 30.6751 60.8728 30.6847 60.9634C30.6959 61.0696 30.7086 61.1757 30.7211 61.2816C30.7377 61.4204 30.7554 61.5588 30.7741 61.6968C30.7848 61.7758 30.7947 61.8548 30.8061 61.9333C29.1915 61.4916 28.0012 60.0113 28.0012 58.2582ZM55.9347 30.3248C58.4496 30.3248 60.7497 31.6163 62.0922 33.6379C62.067 33.6377 62.0416 33.6375 62.0163 33.6375C61.9998 33.6375 61.9839 33.6387 61.9675 33.6388C61.9611 33.6391 61.9547 33.639 61.9483 33.6393C57.9948 33.6761 54.7899 36.9022 54.7899 40.8641C54.7899 42.4058 55.2742 43.8716 56.1445 45.081C56.0746 45.0829 56.0045 45.084 55.9347 45.084C51.8658 45.084 48.5554 41.7736 48.5554 37.7046C48.5553 33.6353 51.8656 30.3248 55.9347 30.3248ZM78.7812 58.86C78.7805 58.8909 78.7787 58.9216 78.7778 58.9526C78.7725 59.1227 78.7663 59.2929 78.7574 59.463C78.7559 59.4933 78.7535 59.5237 78.7517 59.5541C78.7421 59.7239 78.7313 59.8939 78.718 60.0636C78.7154 60.0979 78.7117 60.132 78.7088 60.1662C78.6953 60.3303 78.6804 60.4942 78.6634 60.6579C78.6587 60.7035 78.6528 60.7488 78.6478 60.7943C78.6311 60.9443 78.6137 61.094 78.5942 61.2436C78.586 61.3063 78.5767 61.3685 78.5679 61.4309C78.55 61.5603 78.5317 61.6895 78.5114 61.8185C78.4981 61.9024 78.4839 61.9857 78.4697 62.0694C78.4522 62.1738 78.4347 62.2781 78.4157 62.3821C78.3964 62.4879 78.3758 62.5931 78.3549 62.6983C78.3395 62.7771 78.324 62.856 78.3076 62.9347C76.1436 73.3016 66.9343 81.1133 55.9345 81.1133C44.9266 81.1133 35.7118 73.2905 33.5566 62.9123C33.537 62.8182 33.5191 62.7236 33.5008 62.6291C33.4832 62.5389 33.4653 62.4486 33.4488 62.3581C33.4255 62.2297 33.4042 62.1008 33.383 61.972C33.3734 61.9129 33.3628 61.8538 33.3536 61.7945C33.3284 61.6315 33.3053 61.4681 33.2834 61.3045C33.2797 61.2767 33.2752 61.2491 33.2717 61.2214C33.2467 61.0287 33.2238 60.8353 33.2037 60.642C33.2037 60.6412 33.2035 60.6401 33.2035 60.6393C33.1212 59.8489 33.0797 59.0536 33.0797 58.2587C33.0797 58.0793 33.0827 57.8998 33.087 57.7204C33.0885 57.6615 33.0903 57.6027 33.0922 57.5439C33.0959 57.4232 33.1009 57.3025 33.1066 57.1818C33.1098 57.1116 33.1129 57.0412 33.1168 56.9711C33.1229 56.8642 33.1305 56.7573 33.138 56.6505C33.1512 56.466 33.1661 56.2819 33.1836 56.0982C33.1856 56.0771 33.1873 56.0561 33.1893 56.0351C33.9697 48.1324 38.8641 41.1193 46.0167 37.6646C46.0167 37.6781 46.0158 37.6913 46.0158 37.7047C46.0158 38.6137 46.141 39.4934 46.3711 40.3302C44.092 41.5437 42.0907 43.1607 40.4131 45.1487C39.9608 45.6848 40.0287 46.4859 40.5648 46.938C40.8031 47.1391 41.0938 47.2372 41.383 47.2372C41.7442 47.2372 42.1029 47.0839 42.354 46.7863C43.7711 45.107 45.452 43.7307 47.3606 42.6822C49.0809 45.6339 52.2789 47.6236 55.9347 47.6236C57.0558 47.6236 58.1574 47.4372 59.2082 47.0697C59.6659 46.9096 59.9925 46.5029 60.0499 46.0213C60.1073 45.5398 59.8853 45.0676 59.478 44.8046C58.1326 43.9355 57.3294 42.4626 57.3294 40.8643C57.3294 38.3323 59.3478 36.2643 61.8602 36.1813C70.2943 38.4379 76.5669 45.2575 78.3047 53.5693C78.3334 53.7068 78.3614 53.8445 78.3874 53.9826C78.401 54.0547 78.4135 54.1273 78.4267 54.1997C78.447 54.3127 78.4668 54.4259 78.4854 54.5392C78.4966 54.6071 78.5072 54.675 78.5178 54.7431C78.5374 54.8706 78.5562 54.9982 78.5736 55.1261C78.581 55.1793 78.5886 55.2325 78.5956 55.2858C78.644 55.6569 78.6834 56.0295 78.7137 56.4028C78.7172 56.4456 78.7199 56.4886 78.7231 56.5316C78.7341 56.6752 78.7435 56.819 78.7517 56.9628C78.7548 57.0186 78.7578 57.0747 78.7605 57.1306C78.7674 57.2675 78.7725 57.4045 78.7768 57.5414C78.7786 57.5944 78.7805 57.6473 78.7819 57.7002C78.7865 57.8864 78.7893 58.0725 78.7893 58.2585C78.7892 58.459 78.7865 58.6596 78.7812 58.86ZM81.0631 61.9333C81.0771 61.8374 81.0897 61.741 81.1025 61.6447C81.1161 61.543 81.1292 61.4411 81.1417 61.339C81.1573 61.2109 81.1722 61.0826 81.1858 60.9543C81.1948 60.8702 81.203 60.7859 81.2108 60.7016C81.2216 60.591 81.2313 60.4804 81.2405 60.3698C81.2468 60.2931 81.2536 60.2167 81.2592 60.1398C81.2723 59.9635 81.2835 59.7872 81.2929 59.6106C81.2961 59.5537 81.298 59.4967 81.3007 59.4397C81.3071 59.2976 81.3126 59.1558 81.3168 59.0136C81.3186 58.9545 81.3202 58.8952 81.3218 58.8359C81.326 58.6434 81.329 58.4509 81.329 58.2582C81.329 58.0907 81.327 57.9233 81.3238 57.7558C81.3225 57.695 81.3205 57.6342 81.3188 57.5734C81.3161 57.4683 81.3129 57.3632 81.3089 57.258C81.306 57.1832 81.3021 57.1085 81.2988 57.0338C81.2944 56.9434 81.2899 56.8531 81.2844 56.7629C81.2798 56.6817 81.2746 56.6008 81.2691 56.5198C81.2633 56.4365 81.2571 56.3534 81.2506 56.2702C81.2441 56.1858 81.2375 56.1013 81.23 56.0172C81.2227 55.9357 81.2148 55.8547 81.2068 55.7734C81.1987 55.6897 81.1908 55.6059 81.1819 55.5222C81.1718 55.4277 81.1603 55.3336 81.1489 55.2393C81.1364 55.1344 81.1237 55.0298 81.1099 54.9252C81.0948 54.8112 81.0799 54.6972 81.0634 54.5835C82.6782 55.0251 83.8683 56.5052 83.8683 58.258C83.8681 60.0115 82.678 61.4916 81.0631 61.9333Z" fill="url(#paint1_linear)"/>
<path d="M51.4178 59.7282C50.8238 57.5118 48.8067 55.9637 46.512 55.9637C44.2177 55.9637 42.2003 57.5118 41.6062 59.7282C41.4247 60.4057 41.8267 61.1019 42.504 61.2834C43.1815 61.4647 43.8776 61.063 44.0592 60.3857C44.3563 59.2773 45.3649 58.5032 46.5119 58.5032C47.659 58.5032 48.6676 59.2773 48.9646 60.3857C49.1166 60.9529 49.6298 61.327 50.1903 61.327C50.299 61.327 50.4097 61.313 50.5198 61.2834C51.1975 61.1019 51.5994 60.4057 51.4178 59.7282Z" fill="url(#paint2_linear)"/>
<path d="M65.3576 55.9637C63.0629 55.9637 61.0455 57.5119 60.4516 59.7284C60.2702 60.4058 60.6722 61.102 61.3496 61.2834C62.0268 61.4651 62.7232 61.0629 62.9046 60.3856C63.2016 59.2773 64.2102 58.5033 65.3574 58.5033C66.5046 58.5033 67.5132 59.2773 67.8102 60.3857C67.9622 60.9529 68.4751 61.327 69.0359 61.327C69.1445 61.327 69.2552 61.313 69.3654 61.2834C70.0428 61.1019 70.4446 60.4056 70.2631 59.7282C69.6691 57.5119 67.652 55.9637 65.3576 55.9637Z" fill="url(#paint3_linear)"/>
<path d="M59.9428 68.637C59.2656 68.4556 58.5691 68.8573 58.3876 69.5349C58.0905 70.6432 57.0819 71.4173 55.9349 71.4173C54.7876 71.4173 53.779 70.6432 53.4822 69.5349C53.3006 68.8574 52.6044 68.4554 51.927 68.637C51.2495 68.8185 50.8477 69.5147 51.0292 70.1922C51.6232 72.4089 53.6404 73.9568 55.935 73.9568C58.2294 73.9568 60.2468 72.4087 60.8408 70.1922C61.0221 69.5149 60.6201 68.8185 59.9428 68.637Z" fill="url(#paint4_linear)"/>
</g>

</symbol><symbol id="icon-cursor" viewBox="0 0 14 21">
<path d="M7.64 19.9705C7.52199 20.028 7.39372 20.0614 7.26267 20.0689C7.13161 20.0763 7.00038 20.0576 6.87662 20.0139C6.75285 19.9701 6.63902 19.9022 6.54175 19.8141C6.44447 19.726 6.36569 19.6194 6.31 19.5005L4.13 14.7605L1.62 16.7805C1.45 16.9205 1.24 17.0005 1 17.0005C0.734784 17.0005 0.48043 16.8951 0.292893 16.7076C0.105357 16.5201 0 16.2657 0 16.0005V1.00049C0 0.735272 0.105357 0.480918 0.292893 0.293381C0.48043 0.105845 0.734784 0.000488281 1 0.000488281C1.24 0.000488281 1.47 0.0904883 1.64 0.230488L1.65 0.220488L13.14 9.86049C13.2849 9.98114 13.3928 10.1403 13.4512 10.3196C13.5097 10.4988 13.5163 10.691 13.4703 10.8739C13.4243 11.0567 13.3276 11.2229 13.1913 11.3532C13.0551 11.4835 12.8847 11.5727 12.7 11.6105L9.54 12.2305L11.74 16.9605C12 17.4605 11.76 18.0505 11.26 18.2805L7.64 19.9705Z" fill="black"/>
</symbol><symbol id="icon-dental" viewBox="0 0 113 112">
<g filter="url(#filter0_d)">
<rect x="6.60791" y="6.36926" width="99.4385" height="99.4385" rx="10" fill="white"/>
</g>
<g clip-path="url(#clip0)">
<path d="M80.705 63.7763V62.1847C80.705 60.502 79.3408 59.1373 77.6576 59.1373H75.6261C73.9462 59.1373 72.5834 60.4969 72.5787 62.1768C70.5822 61.9145 68.5158 61.7104 66.4844 61.5579V60.1532C66.4844 58.4705 65.1202 57.1058 63.4375 57.1058H61.406C59.7228 57.1058 58.3586 58.4705 58.3586 60.1532V61.1864C57.6477 61.1752 56.9711 61.1692 56.3272 61.1692C55.6832 61.1692 55.0066 61.1752 54.2957 61.1864V60.1532C54.2957 58.4705 52.9315 57.1058 51.2483 57.1058H49.2169C47.5341 57.1058 46.1699 58.4705 46.1699 60.1532V61.5579C44.1385 61.7104 42.0712 61.9145 40.0751 62.1768C40.0709 60.4969 38.7076 59.1373 37.0282 59.1373H34.9967C33.3135 59.1373 31.9493 60.502 31.9493 62.1847V63.7763C28.3109 64.8448 25.855 66.3066 25.855 68.279V76.4053C25.8573 77.1274 26.2442 77.7941 26.8705 78.154V79.4522C26.8705 81.1354 28.2352 82.4996 29.9179 82.4996H31.1207C31.5494 83.7127 32.6942 84.5255 33.9808 84.5311H37.0282C37.5531 84.5278 38.0678 84.3879 38.5221 84.1247C39.0778 85.0081 40.0477 85.5447 41.0911 85.5466H45.154C45.6789 85.5438 46.1941 85.4038 46.6484 85.1406C47.2035 86.0236 48.1735 86.5607 49.2169 86.5625H54.2957C55.0476 86.5597 55.772 86.2775 56.3272 85.7702C56.8823 86.2775 57.6067 86.5597 58.3586 86.5625H63.4375C64.4808 86.5607 65.4503 86.0236 66.0059 85.1406C66.4602 85.4038 66.9754 85.5438 67.5003 85.5466H71.5632C72.6066 85.5447 73.5766 85.0081 74.1322 84.1247C74.586 84.3879 75.1012 84.5278 75.6261 84.5311H78.6735C79.9601 84.5255 81.1049 83.7127 81.5336 82.4996H82.7364C84.4192 82.4996 85.7834 81.1354 85.7834 79.4522V78.154C86.4101 77.7941 86.797 77.1274 86.7993 76.4053V68.279C86.7993 66.3066 84.3434 64.8448 80.705 63.7763ZM74.6106 62.1847C74.6106 61.6239 75.0654 61.1692 75.6261 61.1692H77.6576C78.2188 61.1692 78.6735 61.6239 78.6735 62.1847V63.2453C77.4018 62.9505 76.0325 62.6924 74.6106 62.4692V62.1847ZM60.39 60.1532C60.39 59.5925 60.8448 59.1373 61.406 59.1373H63.4375C63.9982 59.1373 64.4529 59.5925 64.4529 60.1532V61.4207C63.0543 61.3366 61.6901 61.2766 60.39 61.2362V60.1532ZM48.2014 60.1532C48.2014 59.5925 48.6561 59.1373 49.2169 59.1373H51.2483C51.8095 59.1373 52.2643 59.5925 52.2643 60.1532V61.2362C50.9642 61.2766 49.6 61.3375 48.2014 61.4207V60.1532ZM33.9808 62.1847C33.9808 61.6239 34.4355 61.1692 34.9967 61.1692H37.0282C37.5889 61.1692 38.0437 61.6239 38.0437 62.1847V62.4692C36.6218 62.6924 35.2525 62.9505 33.9808 63.2453V62.1847ZM56.3272 63.2006C74.7292 63.2006 84.7679 66.5526 84.7679 68.279V74.2994C84.2745 73.8517 83.6287 73.609 82.9629 73.6211C82.3091 73.6229 81.6735 73.8368 81.1518 74.2302C80.42 72.9389 79.0278 72.1652 77.5451 72.2252C76.1562 72.2285 74.8329 72.8167 73.8992 73.8456C73.0693 72.4912 71.566 71.6979 69.9796 71.7775C68.3675 71.777 66.8359 72.4823 65.7879 73.7071C64.8905 72.1531 63.198 71.2334 61.406 71.3264C59.362 71.3278 57.4547 72.354 56.3272 74.0586C55.1996 72.354 53.2923 71.3278 51.2483 71.3264C49.4545 71.233 47.7601 72.1545 46.8636 73.7113C45.8156 72.4861 44.2835 71.7812 42.6715 71.7816C41.0869 71.7026 39.5855 72.4935 38.7551 73.8456C37.8214 72.819 36.4995 72.2327 35.1125 72.2294C33.6283 72.168 32.2348 72.9422 31.5025 74.2343C30.9808 73.8405 30.3452 73.6266 29.6914 73.6248C29.0261 73.6122 28.3802 73.8531 27.8864 74.2994V68.279C27.8864 66.5526 37.9251 63.2006 56.3272 63.2006ZM28.9024 79.4522V76.7433C28.9024 76.5615 28.9396 75.6525 29.6914 75.6525C30.4679 75.779 31.0119 76.4876 30.9338 77.2706V80.4682H29.9179C29.3571 80.4682 28.9024 80.0134 28.9024 79.4522ZM37.0282 82.4996H33.9808C33.42 82.4996 32.9653 82.0449 32.9653 81.4837V76.4053C32.9276 75.8259 33.1415 75.2582 33.5521 74.8476C33.9626 74.4371 34.5299 74.2232 35.1092 74.2608C36.7292 74.2627 38.0423 75.5753 38.0437 77.1953V81.4837C38.0437 82.0449 37.5889 82.4996 37.0282 82.4996ZM45.154 83.5151H41.0911C40.5299 83.5151 40.0751 83.0604 40.0751 82.4996V76.4053C40.0412 75.7064 40.3039 75.0262 40.7981 74.5319C41.2929 74.0372 41.9731 73.775 42.6715 73.8089C44.603 73.8112 46.1681 75.3768 46.1699 77.3083V82.4996C46.1699 83.0604 45.7152 83.5151 45.154 83.5151ZM54.2957 84.5311H49.2169C48.6561 84.5311 48.2014 84.0763 48.2014 83.5151V76.4053C48.1614 75.5855 48.4701 74.7872 49.0499 74.2069C49.6302 73.6266 50.4286 73.3184 51.2483 73.3579C53.4922 73.3579 55.3112 75.1768 55.3112 77.4208V83.5151C55.3112 84.0763 54.8565 84.5311 54.2957 84.5311ZM64.4529 83.5151C64.4529 84.0763 63.9982 84.5311 63.4375 84.5311H58.3586C57.7978 84.5311 57.3426 84.0763 57.3426 83.5151V77.4208C57.3426 75.1768 59.1621 73.3579 61.406 73.3579C62.2253 73.3184 63.0236 73.6266 63.6039 74.2069C64.1842 74.7872 64.4925 75.5855 64.4529 76.4053V83.5151ZM72.5787 82.4996C72.5787 83.0604 72.124 83.5151 71.5632 83.5151H67.5003C66.9391 83.5151 66.4844 83.0604 66.4844 82.4996V77.3083C66.4862 75.3768 68.0513 73.8112 69.9828 73.8089C70.6812 73.775 71.3614 74.0372 71.8562 74.5319C72.3504 75.0262 72.6131 75.7064 72.5787 76.4053V82.4996ZM79.689 81.4837C79.689 82.0449 79.2343 82.4996 78.6735 82.4996H75.6261C75.0654 82.4996 74.6106 82.0449 74.6106 81.4837V77.1953C74.612 75.5753 75.9251 74.2627 77.5451 74.2608C78.1244 74.2232 78.6917 74.4371 79.1022 74.8476C79.5128 75.2582 79.7267 75.8259 79.689 76.4053V81.4837ZM83.7519 79.4522C83.7519 80.0134 83.2972 80.4682 82.7364 80.4682H81.7205V77.2706C81.6424 76.4876 82.1864 75.779 82.9629 75.6525C83.7147 75.6525 83.7519 76.5666 83.7519 76.7433V79.4522Z" fill="url(#paint0_linear)"/>
<path d="M86.4111 27.8328L86.7324 26.9991C86.9337 26.4751 86.6724 25.8869 86.1484 25.6856C85.6243 25.4843 85.0362 25.7456 84.8348 26.2696L84.5149 27.1038C81.7739 34.1443 75.0059 38.7926 67.4506 38.8233H45.2056C37.6498 38.7935 30.8804 34.1452 28.1394 27.1038L27.8195 26.2696C27.6181 25.7456 27.03 25.4843 26.5059 25.6856C25.9819 25.8869 25.7206 26.4751 25.9219 26.9991L26.2428 27.8328C29.2888 35.6559 36.8087 40.8203 45.2037 40.8547H67.4483C75.8442 40.8213 83.3651 35.6564 86.4111 27.8328Z" fill="url(#paint1_linear)"/>
<path d="M50.2327 55.0743C50.7935 55.0743 51.2482 54.6196 51.2482 54.0588V46.3534L52.5617 47.6669C52.9602 48.0514 53.594 48.0463 53.9855 47.6543C54.3774 47.2624 54.383 46.6291 53.998 46.2306L50.9506 43.1832C50.9418 43.1739 50.9292 43.1711 50.9204 43.1628C50.8334 43.0777 50.7325 43.0093 50.6214 42.9596C50.6135 42.9596 50.6033 42.9596 50.5954 42.9535C50.4926 42.9154 50.3848 42.894 50.275 42.8907C50.2411 42.8907 50.2076 42.8931 50.1737 42.8968C50.0886 42.9019 50.0044 42.9182 49.924 42.9456C49.8891 42.9554 49.8552 42.967 49.8221 42.981C49.7092 43.0293 49.6059 43.0986 49.5176 43.1841L46.4702 46.2315C46.0852 46.63 46.0908 47.2633 46.4827 47.6553C46.8742 48.0472 47.508 48.0528 47.9065 47.6678L49.2168 46.3534V54.0588C49.2168 54.6196 49.6715 55.0743 50.2327 55.0743Z" fill="url(#paint2_linear)"/>
<path d="M62.4215 55.0743C62.9827 55.0743 63.4375 54.6196 63.4375 54.0588V46.3534L64.7505 47.6669C65.149 48.0514 65.7828 48.0463 66.1747 47.6543C66.5662 47.2624 66.5718 46.6291 66.1868 46.2306L63.1399 43.1832C63.1306 43.1739 63.1185 43.1711 63.1092 43.1628C63.0227 43.0777 62.9213 43.0093 62.8107 42.9596C62.8023 42.9596 62.7921 42.9596 62.7842 42.9535C62.6819 42.9154 62.5736 42.894 62.4643 42.8907C62.4303 42.8907 62.3964 42.8931 62.3625 42.8968C62.2774 42.9019 62.1937 42.9182 62.1128 42.9456C62.0784 42.9554 62.0444 42.967 62.0114 42.981C61.898 43.0293 61.7947 43.0986 61.7064 43.1841L58.6594 46.2315C58.2745 46.63 58.28 47.2633 58.6715 47.6553C59.0635 48.0472 59.6968 48.0528 60.0957 47.6678L61.406 46.3534V54.0588C61.406 54.6196 61.8608 55.0743 62.4215 55.0743Z" fill="url(#paint3_linear)"/>
<path d="M76.6421 57.1058C77.2028 57.1058 77.6576 56.6511 77.6576 56.0903V48.3849L78.9711 49.6984C79.3696 50.0829 80.0029 50.0778 80.3948 49.6858C80.7868 49.2939 80.7924 48.6606 80.4074 48.2621L77.36 45.2147C77.3507 45.2054 77.3386 45.2026 77.3298 45.1942C77.2428 45.1096 77.1419 45.0408 77.0308 44.9911C77.022 44.9911 77.0127 44.9911 77.0034 44.985C76.9011 44.9473 76.7937 44.926 76.6844 44.9222C76.6505 44.9222 76.6165 44.9246 76.583 44.9283C76.4975 44.9334 76.4133 44.9497 76.332 44.9771C76.2985 44.9883 76.2659 44.9976 76.2306 45.0115C76.1176 45.0603 76.0144 45.1292 75.926 45.2147L72.8786 48.2621C72.4936 48.6606 72.4992 49.2939 72.8912 49.6858C73.2827 50.0778 73.9164 50.0829 74.3149 49.6984L75.6261 48.3849V56.0903C75.6261 56.6511 76.0809 57.1058 76.6421 57.1058Z" fill="url(#paint4_linear)"/>
<path d="M34.9967 57.1057C35.5575 57.1057 36.0122 56.651 36.0122 56.0902V48.3848L37.3257 49.6983C37.7242 50.0828 38.358 50.0777 38.7495 49.6857C39.1414 49.2938 39.147 48.6605 38.762 48.262L35.7146 45.2146C35.7058 45.2053 35.6932 45.2025 35.6844 45.1941C35.5974 45.1095 35.4965 45.0407 35.3854 44.9909C35.3775 44.9909 35.3673 44.9909 35.358 44.9849C35.2562 44.9468 35.1483 44.9258 35.039 44.9231C35.0055 44.9226 34.9716 44.924 34.9376 44.9282C34.8521 44.9333 34.7679 44.9496 34.6866 44.977C34.5341 45.0212 34.3946 45.1021 34.2806 45.2127L31.2332 48.2597C30.8482 48.6582 30.8538 49.2919 31.2458 49.6839C31.6373 50.0754 32.2711 50.081 32.6695 49.696L33.9807 48.3848V56.0902C33.9807 56.651 34.4355 57.1057 34.9967 57.1057Z" fill="url(#paint5_linear)"/>
</g>

</symbol><symbol id="icon-dentist" viewBox="0 0 112 112">
<g filter="url(#filter0_d)">
<rect x="6" y="6" width="99.4385" height="99.4385" rx="10" fill="white"/>
</g>
<g clip-path="url(#clip0)">
<path d="M85.0085 69.6626H59.4848C59.7191 69.1174 59.9789 68.5652 60.2826 67.9978C60.6308 67.3431 61.0125 66.7139 61.3933 66.0856C62.1486 64.9126 62.801 63.6763 63.3429 62.3905C65.1876 57.6887 65.6775 51.2503 61.5373 47.2817C57.5338 43.4387 50.4548 43.2956 45.9255 46.8046C41.3947 43.2956 34.3144 43.4397 30.315 47.2803C26.1707 51.2503 26.661 57.6887 28.5081 62.3914C29.0514 63.6777 29.7047 64.915 30.4615 66.0884C30.8408 66.7158 31.2225 67.344 31.5697 67.9978C31.8744 68.5652 32.1333 69.1141 32.3667 69.6626H26.1352C25.5745 69.6626 25.1201 70.117 25.1201 70.6773C25.1201 71.238 25.5745 71.6925 26.1352 71.6925H33.0781C33.2836 72.3897 33.4315 73.1026 33.5207 73.8239C33.7324 76.2162 34.1349 78.5876 34.7244 80.9151C35.1987 82.6744 36.0816 85.95 39.0119 85.95C39.8646 85.95 42.4633 85.95 44.1644 73.7479C44.4946 71.4133 45.4304 71.1568 45.9245 71.0906C46.4168 71.1558 47.3569 71.4095 47.688 73.746C49.3872 85.95 51.9864 85.95 52.8414 85.95C55.7708 85.95 56.6537 82.6744 57.1256 80.9227C57.7133 78.5914 58.1162 76.2176 58.3316 73.823C58.4205 73.1021 58.5683 72.3897 58.7733 71.6925H85.0085C85.5688 71.6925 86.0232 71.238 86.0232 70.6773C86.0232 70.117 85.5688 69.6626 85.0085 69.6626ZM55.1656 80.3813C54.705 82.0909 54.1079 83.9149 52.84 83.9149C52.2797 83.8487 50.7747 81.2076 49.6933 73.4597C49.3121 70.7628 48.0815 69.2818 46.0393 69.0546C46.0001 69.0555 45.9614 69.0593 45.9226 69.0655C45.8825 69.0593 45.8423 69.0555 45.8017 69.0546C43.7586 69.2818 42.5294 70.7637 42.1477 73.4616C41.0687 81.2038 39.5632 83.8478 39.0062 83.9168C37.7374 83.9168 37.1393 82.09 36.6773 80.3761C36.1156 78.1488 35.7325 75.8803 35.5327 73.5915C35.2304 71.2905 34.4915 69.0683 33.3554 67.0445C32.9898 66.3586 32.5901 65.6977 32.1909 65.0378C31.4984 63.9617 30.8984 62.8279 30.3982 61.6497C28.7944 57.5602 28.2993 52.0227 31.7181 48.7461C35.1368 45.4696 41.5794 45.5234 45.2396 48.8661C45.2495 48.8751 45.2627 48.877 45.274 48.8864C45.2854 48.8954 45.2892 48.9096 45.3014 48.9176C45.343 48.9512 49.5006 52.2145 50.5352 55.7381C50.6622 56.1708 51.06 56.468 51.5116 56.4666C51.608 56.467 51.7043 56.4529 51.7969 56.425C52.0553 56.3494 52.2731 56.1742 52.4026 55.938C52.5315 55.7018 52.5618 55.424 52.4862 55.1656C51.599 52.1436 48.972 49.4529 47.5255 48.1471C51.2688 45.5419 56.9815 45.7233 60.1324 48.7471C63.5521 52.0227 63.0566 57.5602 61.4518 61.6488C60.9506 62.8265 60.3493 63.9588 59.6544 65.034C59.2552 65.6935 58.8546 66.3534 58.4889 67.0427C57.3519 69.0655 56.6131 71.2876 56.3117 73.5887C56.1071 75.8794 55.724 78.1507 55.1656 80.3813Z" fill="url(#paint0_linear)"/>
<path d="M34.6148 49.1472C31.9896 50.6683 30.6532 53.7153 31.3117 56.6768C31.4114 57.1473 31.8276 57.4836 32.3085 57.4818C32.3794 57.4818 32.4502 57.4747 32.5197 57.4605C32.7833 57.4048 33.0143 57.247 33.1612 57.0212C33.3081 56.7954 33.3591 56.5204 33.3034 56.2568C32.8315 54.1721 33.7545 52.0208 35.5903 50.9267C36.0636 50.6485 36.2304 50.0448 35.9663 49.5634C35.7027 49.082 35.1037 48.8978 34.6148 49.1472Z" fill="url(#paint1_linear)"/>
<path d="M83.9932 31.0902H74.9005L52.4313 29.1363C51.9801 26.7403 49.8893 25.0038 47.4512 25H45.4209C42.6195 25.0033 40.3492 27.2737 40.3459 30.0755V37.1808C40.3459 38.3018 41.2548 39.2107 42.3758 39.2107H45.4209V42.2558C44.8606 42.2558 44.4062 42.7103 44.4062 43.271C44.4062 43.8317 44.8606 44.2862 45.4209 44.2862H47.4512C48.012 44.2862 48.4664 43.8317 48.4664 43.271C48.4664 42.7103 48.012 42.2558 47.4512 42.2558V39.2107H50.4963C51.6178 39.2107 52.5267 38.3018 52.5267 37.1808V36.4642L74.6019 42.2237C74.6856 42.2449 74.7715 42.2558 74.8575 42.2558H83.9932C85.1142 42.2558 86.0231 41.3469 86.0231 40.2259V33.1206C86.0231 31.9991 85.1142 31.0902 83.9932 31.0902ZM42.3758 37.1808V30.0755C42.3758 28.3932 43.7391 27.0299 45.4209 27.0299H47.4512C49.133 27.0299 50.4963 28.3932 50.4963 30.0755V37.1808H42.3758ZM52.5267 31.1828L73.8428 33.036V39.9274L52.5267 34.3667V31.1828ZM83.9932 40.2259H75.8727V33.1206H83.9932V40.2259Z" fill="url(#paint2_linear)"/>
</g>

</symbol><symbol id="icon-doctor" viewBox="0 0 36 41">
<path d="M35.7129 38.6277L33.9434 28.2316C33.7527 27.1115 32.9609 26.2117 31.8767 25.8835L27.1039 24.4384C27.0051 23.2675 26.5267 22.163 25.7306 21.2886C25.0938 20.5893 24.2929 20.0801 23.41 19.7991C23.5611 19.6309 23.7012 19.4632 23.8297 19.2992C24.9647 17.8506 25.5723 16.2546 25.727 15.1656H26.0952C27.0529 15.1656 27.832 14.3838 27.832 13.4227V12.5292C27.832 11.8878 27.4725 11.3067 26.9318 11.005V8.85657C26.9318 8.53192 26.6695 8.26873 26.346 8.26873C26.0225 8.26873 25.7603 8.53184 25.7603 8.85657V11.2685C25.5322 11.3082 25.26 11.3769 24.9816 11.4946C24.9531 11.505 24.9253 11.5171 24.8991 11.5316C24.8362 11.5604 24.7732 11.5907 24.7105 11.6249V6.88779C24.7105 5.57905 23.6495 4.51438 22.3454 4.51438H20.7286C20.1709 4.51438 19.6262 4.70936 19.1945 5.06357L19.0358 5.19372C18.7444 5.43284 18.3766 5.56455 18.0001 5.56455C17.6236 5.56455 17.2557 5.43284 16.9643 5.19372L16.8057 5.06357C16.374 4.70944 15.8292 4.51438 15.2716 4.51438H13.6546C12.3505 4.51438 11.2896 5.57905 11.2896 6.88779V11.6249C11.2268 11.5907 11.1639 11.5604 11.101 11.5316C11.0747 11.5171 11.0471 11.505 11.0185 11.4946C10.7401 11.3769 10.4678 11.3082 10.2398 11.2685V5.1698C10.2398 3.26641 11.7829 1.71785 13.6796 1.71785H22.3203C24.2171 1.71785 25.7602 3.26641 25.7602 5.1698V6.09383C25.7602 6.41848 26.0224 6.68167 26.3459 6.68167C26.6693 6.68167 26.9316 6.41856 26.9316 6.09383V5.1698C26.9316 2.61819 24.863 0.542236 22.3203 0.542236H13.6796C11.1369 0.542236 9.06831 2.61819 9.06831 5.1698V11.0051C8.52761 11.3067 8.16808 11.8878 8.16808 12.5293V13.4228C8.16808 14.3839 8.94722 15.1657 9.90487 15.1657H10.2731C10.4277 16.2547 11.0354 17.8506 12.1704 19.2992C12.2988 19.4631 12.4388 19.6306 12.5897 19.7987C10.56 20.4457 9.07987 22.2769 8.8962 24.4384L4.12324 25.8835C3.0391 26.2117 2.24723 27.1115 2.0566 28.2316L1.33801 32.4534C1.28356 32.7734 1.49793 33.077 1.81676 33.1317C2.13551 33.1865 2.43824 32.9713 2.49277 32.6512L3.21136 28.4295C3.32668 27.7518 3.80574 27.2075 4.4616 27.009L8.87605 25.6724V26.8351C7.86417 27.022 7.00316 27.7196 6.64855 28.686C6.55441 28.9425 6.49589 29.2111 6.47464 29.4843L6.048 34.9797C6.01581 35.3937 6.15855 35.8059 6.43941 36.1105C6.72027 36.4152 7.11863 36.59 7.5323 36.59H8.26261C8.58612 36.59 8.84839 36.3269 8.84839 36.0021C8.84839 35.6774 8.58612 35.4144 8.26261 35.4144H7.5323C7.44409 35.4144 7.35925 35.3772 7.29933 35.3121C7.23948 35.2472 7.20909 35.1594 7.21597 35.0712L7.64261 29.5757C7.6555 29.4102 7.69089 29.2475 7.74792 29.0922C7.99464 28.4199 8.66089 27.9646 9.40597 27.9594L9.50245 27.9587C9.50698 27.9586 9.51144 27.9586 9.51589 27.9586C10.24 27.9586 10.881 28.3707 11.1514 29.0113C11.2273 29.1909 11.2734 29.3808 11.2885 29.5757L11.7153 35.0713C11.7221 35.1594 11.6917 35.2472 11.6319 35.3122C11.5721 35.3771 11.4871 35.4144 11.3989 35.4144H10.6686C10.3451 35.4144 10.0828 35.6775 10.0828 36.0021C10.0828 36.3268 10.3451 36.59 10.6686 36.59H11.3989C11.8126 36.59 12.211 36.4152 12.4918 36.1105C12.7728 35.8058 12.9155 35.3936 12.8833 34.9798L12.4565 29.4843C12.4315 29.1627 12.3553 28.8492 12.2301 28.5526C11.8442 27.6387 11.0192 27.0032 10.0474 26.8313V25.3177L12.061 24.708C12.2442 25.0952 12.6073 25.932 13.3264 27.7357C14.0512 29.5557 14.9521 31.8885 15.816 34.1563C15.8222 34.1753 15.8293 34.1939 15.8373 34.2121C16.4138 35.7261 16.9731 37.209 17.4515 38.4881C17.5373 38.7175 17.7558 38.8695 17.9999 38.8695C18.2441 38.8695 18.4626 38.7175 18.5484 38.4881C19.0267 37.209 19.586 35.7261 20.1626 34.2121C20.1706 34.1939 20.1777 34.1753 20.1838 34.1563C21.0472 31.8898 21.9476 29.5585 22.672 27.7391C23.3921 25.933 23.7555 25.0955 23.9388 24.708L25.9523 25.3177V28.7896C24.5572 29.0616 23.5004 30.2964 23.5004 31.7749C23.5004 33.4519 24.86 34.8164 26.5313 34.8164C28.2025 34.8164 29.5621 33.452 29.5621 31.7749C29.5621 30.3013 28.5123 29.0695 27.1238 28.7922V25.6725L31.5384 27.0091C32.1942 27.2076 32.6732 27.7519 32.7886 28.4296L34.5581 38.8256C34.5875 38.9981 34.5418 39.1666 34.4294 39.3003C34.317 39.4339 34.1591 39.5076 33.9848 39.5076H2.01504C1.84074 39.5076 1.68293 39.434 1.57051 39.3003C1.45816 39.1666 1.41238 38.9981 1.44176 38.8256L2.02574 35.3947C2.08019 35.0747 1.86582 34.771 1.54699 34.7164C1.22824 34.6615 0.925509 34.8769 0.870977 35.1968L0.286994 38.6278C0.199885 39.1399 0.341369 39.6613 0.675118 40.0584C1.00902 40.4554 1.49738 40.6831 2.01504 40.6831H33.9848C34.5025 40.6831 34.9909 40.4554 35.3248 40.0583C35.6585 39.6612 35.8 39.1398 35.7129 38.6277ZM25.7672 12.466C26.0793 12.3879 26.3298 12.3894 26.3327 12.3894C26.4336 12.3908 26.5317 12.3671 26.6189 12.3212C26.645 12.3864 26.6604 12.4564 26.6604 12.5293V13.4228C26.6604 13.7356 26.4068 13.9901 26.0951 13.9901H25.7672V12.466ZM10.2327 13.9901H9.90479C9.59308 13.9901 9.33948 13.7356 9.33948 13.4228V12.5293C9.33948 12.4564 9.35495 12.3864 9.38097 12.3213C9.46808 12.3672 9.5662 12.3908 9.66722 12.3894C9.67167 12.3902 9.92151 12.3888 10.2327 12.4663V13.9901ZM11.4042 14.6492V13.1048C11.5817 13.1582 11.7758 13.1509 11.955 13.0759C12.2624 12.9472 12.461 12.6482 12.461 12.3142V6.88779C12.461 6.22734 12.9965 5.68999 13.6546 5.68999H15.2714C15.5596 5.68999 15.841 5.79073 16.0641 5.97372L16.2227 6.10386C16.7228 6.51421 17.3539 6.74008 17.9999 6.74008C18.646 6.74008 19.2771 6.51413 19.7772 6.10386L19.9358 5.97372C20.1588 5.79073 20.4403 5.68999 20.7284 5.68999H22.3452C23.0034 5.68999 23.5388 6.22734 23.5388 6.88779V12.3143C23.5388 12.6482 23.7374 12.9473 24.0449 13.076C24.1475 13.119 24.255 13.1398 24.3616 13.1398C24.441 13.1398 24.5198 13.1281 24.5957 13.1054V14.6492C24.5957 15.5074 24.0045 17.174 22.9087 18.5725C22.5457 19.0358 22.0792 19.5335 21.5047 19.9685C21.4865 19.9807 21.4691 19.9939 21.4524 20.008C20.5625 20.6683 19.4182 21.1742 17.9999 21.1742C16.5817 21.1742 15.4374 20.6683 14.5474 20.008C14.5307 19.9939 14.5134 19.9807 14.4953 19.9685C13.9208 19.5335 13.4542 19.0358 13.0912 18.5725C11.9955 17.1741 11.4042 15.5074 11.4042 14.6492ZM21.8374 24.1462L17.9999 27.0245L14.1624 24.1462C14.543 23.6608 14.7562 23.0377 14.7562 22.4817V21.5342C15.6586 22.0212 16.7354 22.3499 17.9999 22.3499C19.2645 22.3499 20.3413 22.0212 21.2437 21.5342V22.4817C21.2437 23.0377 21.4569 23.6608 21.8374 24.1462ZM13.1849 23.49C12.8721 23.3705 12.5253 23.3509 12.1972 23.4402C12.1828 23.4435 12.1688 23.4474 12.1551 23.4515L10.1314 24.0642C10.4737 22.3753 11.8403 21.0311 13.5847 20.7707V22.4817C13.5847 22.8505 13.4206 23.2318 13.1849 23.49ZM14.7746 28.2088C14.7735 28.206 14.7724 28.2033 14.7714 28.2006C14.7417 28.1253 14.7124 28.051 14.6834 27.9775C14.6781 27.9642 14.6729 27.9509 14.6677 27.9378C14.6392 27.8659 14.611 27.7945 14.5832 27.7243C14.5813 27.7194 14.5793 27.7145 14.5774 27.7095C14.4906 27.4906 14.4069 27.2805 14.3264 27.0793C14.3206 27.0647 14.3147 27.0499 14.3089 27.0354C14.2857 26.9777 14.263 26.9208 14.2404 26.8647C14.2321 26.8441 14.2239 26.8237 14.2157 26.8033C14.1938 26.7489 14.1721 26.6948 14.1507 26.6419C14.1443 26.626 14.1381 26.6107 14.1317 26.5949C14.0929 26.4988 14.0549 26.4051 14.0179 26.3138C14.0079 26.2891 13.9977 26.2639 13.9878 26.2395C13.9732 26.2039 13.9591 26.1693 13.9449 26.1344C13.9296 26.0968 13.9142 26.0594 13.8992 26.0228C13.8936 26.009 13.8878 25.9945 13.8821 25.9809C13.8776 25.9699 13.8735 25.9598 13.869 25.9489C13.8014 25.7839 13.7371 25.6285 13.676 25.4823C13.6756 25.4811 13.675 25.4799 13.6746 25.4787C13.6421 25.4009 13.6103 25.3248 13.5797 25.2524C13.5639 25.2148 13.5482 25.1779 13.5329 25.1417L16.8333 27.6171L15.4542 28.205C15.4518 28.206 15.4493 28.2071 15.4469 28.2082L14.8711 28.4536C14.8385 28.3708 14.8065 28.2895 14.7746 28.2088ZM16.1723 31.808C16.0566 31.5067 15.94 31.2037 15.8232 30.901C15.6406 30.4275 15.4661 29.9773 15.2992 29.5485L15.5178 29.4553L16.4109 30.4971L16.1723 31.808ZM18.0113 36.5855C17.9945 36.5506 17.9745 36.5176 17.9513 36.4868C17.6867 35.7847 17.3507 34.8964 16.9789 33.919L17.5258 30.9143H18.4741L19.021 33.919C18.6313 34.943 18.2814 35.8689 18.0113 36.5855ZM18.6938 29.7388H17.3061L16.6495 28.9728L17.9999 28.3971L19.3504 28.9728L18.6938 29.7388ZM20.1767 30.901C20.0599 31.2037 19.9433 31.5067 19.8276 31.808L19.589 30.497L20.4821 29.4552L20.7007 29.5484C20.5338 29.9773 20.3593 30.4275 20.1767 30.901ZM22.4202 25.2524C22.3913 25.3211 22.3611 25.3931 22.3304 25.4667C22.3264 25.4762 22.3224 25.4859 22.3184 25.4955C22.288 25.5684 22.257 25.6429 22.225 25.7204C22.2229 25.7255 22.2207 25.7309 22.2186 25.7361C22.1909 25.803 22.1626 25.872 22.1338 25.9423C22.1284 25.9555 22.1233 25.9676 22.1179 25.9809C22.1115 25.9966 22.1046 26.0133 22.0981 26.0293C22.0853 26.0606 22.0723 26.0926 22.0592 26.1246C22.0431 26.164 22.027 26.2033 22.0106 26.2437C22.0053 26.2565 21.9999 26.2699 21.9946 26.2829C21.9538 26.3832 21.912 26.4865 21.8692 26.5926C21.8624 26.6093 21.8558 26.6256 21.8491 26.6424C21.8279 26.6949 21.8063 26.7484 21.7847 26.8023C21.7763 26.8234 21.7677 26.8444 21.7592 26.8657C21.7369 26.9213 21.7143 26.9776 21.6915 27.0347C21.6851 27.0506 21.6786 27.0669 21.6722 27.0829C21.5927 27.2814 21.5103 27.4884 21.4248 27.7042C21.422 27.7113 21.4192 27.7183 21.4163 27.7255C21.3887 27.7952 21.3607 27.8661 21.3324 27.9375C21.3272 27.9508 21.3219 27.9642 21.3166 27.9776C21.2874 28.0514 21.2579 28.1261 21.2281 28.2019C21.2275 28.2033 21.227 28.2047 21.2264 28.206C21.1942 28.2877 21.1619 28.3699 21.1289 28.4538L20.5526 28.2081C20.5506 28.2072 20.5485 28.2064 20.5466 28.2055L19.1667 27.6173L22.4671 25.1418C22.4517 25.1779 22.436 25.2148 22.4202 25.2524ZM23.8448 23.4515C23.8447 23.4515 23.8445 23.4515 23.8445 23.4515C23.844 23.4513 23.8434 23.4512 23.843 23.451C23.5031 23.3487 23.1406 23.3656 22.8151 23.49C22.5792 23.2318 22.4152 22.8505 22.4152 22.4817V20.7699C24.1706 21.0295 25.5331 22.3612 25.8709 24.0649L23.8448 23.4515ZM28.3906 31.7749C28.3906 32.8038 27.5565 33.6408 26.5313 33.6408C25.506 33.6408 24.6719 32.8038 24.6719 31.7749C24.6719 30.746 25.506 29.909 26.5313 29.909C27.5565 29.909 28.3906 30.746 28.3906 31.7749Z" fill="url(#paint0_linear)"/>

</symbol><symbol id="icon-implant" viewBox="0 0 113 112">
<g filter="url(#filter0_d)">
<rect x="6.84619" y="6.00012" width="99.4385" height="99.4385" rx="10" fill="white"/>
</g>
<g clip-path="url(#clip0)">
<path d="M32.6127 56.1707C34.6273 57.9094 38.683 60.1664 46.5698 61.2207L48.0797 68.5613L46.4876 69.0821C45.421 69.394 44.6091 70.2621 44.369 71.3471C44.1285 72.4317 44.498 73.5616 45.3326 74.2946C46.1677 75.028 47.3354 75.2487 48.3803 74.8702L49.3259 74.5654L49.7654 76.691L48.3439 77.1537C46.7971 77.7142 45.9744 79.4013 46.4857 80.965C46.997 82.5288 48.6577 83.404 50.2366 82.9418L51.1444 82.6455C52.2082 85.0216 54.6835 86.4399 57.2718 86.1563C59.8597 85.8732 61.9693 83.9527 62.4938 81.4026L63.0453 78.7543L65.6062 77.9174C67.0741 77.4448 67.9554 75.9486 67.6577 74.4359C67.3595 72.9232 65.9767 71.8731 64.4394 71.9922L64.9664 69.4478L67.7154 68.549C69.1964 68.0504 70.0598 66.5117 69.7139 64.9876C69.368 63.464 67.9252 62.4489 66.3737 62.638L66.6653 61.2165C74.5522 60.1626 78.6078 57.9051 80.6224 56.167C81.9003 55.0531 82.7854 53.5578 83.1479 51.9019C84.8997 44.2325 84.2008 34.1004 79.4741 29.5745C73.6131 23.948 63.1531 23.8156 56.6197 29.1265C50.0844 23.8156 39.6262 23.948 33.7611 29.5816C29.0343 34.1075 28.3354 44.2395 30.0872 51.909C30.4502 53.5635 31.3358 55.0578 32.6127 56.1707ZM48.6931 61.4613C51.1231 61.6966 53.7705 61.8237 56.6197 61.8237C59.4689 61.8237 62.1172 61.6966 64.5472 61.4613L64.1705 63.3024L50.0192 67.9266L48.6931 61.4613ZM60.51 80.9934C60.1243 82.836 58.502 84.1578 56.6197 84.1634C55.1353 84.1639 53.7762 83.3312 53.1023 82.0085L60.8195 79.4854L60.51 80.9934ZM65.1228 74.1197C65.489 74.3055 65.7069 74.6939 65.6752 75.1032C65.644 75.5124 65.369 75.8626 64.9787 75.9902L51.5423 80.3838L49.6132 81.0156C49.2654 81.1404 48.877 81.0662 48.5996 80.8223C48.3222 80.578 48.1993 80.2023 48.2787 79.8417C48.3581 79.4807 48.6274 79.1914 48.9814 79.0861L64.3482 74.0597C64.4503 74.0266 64.5571 74.0092 64.6649 74.0092C64.8241 74.0096 64.981 74.0474 65.1228 74.1197ZM62.242 72.6117L51.7077 76.054L51.2682 73.9298L62.7429 70.178L62.242 72.6117ZM66.774 64.6408C67.127 64.6403 67.455 64.8236 67.6397 65.1247C67.8245 65.4257 67.8396 65.8009 67.6799 66.1161C67.5594 66.3576 67.3467 66.5405 67.0897 66.6237L47.7499 72.943C47.2239 73.0957 46.6714 72.8041 46.5013 72.2833C46.3312 71.7625 46.6043 71.2006 47.119 71.0135L66.4574 64.6923C66.5594 64.6587 66.6662 64.6412 66.774 64.6408ZM35.1665 31.0466C37.9349 28.5594 41.5501 27.2248 45.2712 27.317C49.1837 27.2612 52.9799 28.6492 55.933 31.2162C56.3721 31.6397 62.4452 37.4533 67.7896 37.4533C68.35 37.4533 68.8046 36.9987 68.8046 36.4377C68.8046 35.8768 68.35 35.4222 67.7896 35.4222C64.2221 35.4222 59.9443 32.0489 58.1712 30.5045C63.8931 26.1015 73.0777 26.2551 78.0738 31.0466C82.2098 35.0073 82.7571 44.5174 81.172 51.4572C80.9046 52.6892 80.2481 53.8026 79.2997 54.6334C77.4372 56.2397 73.5654 58.355 65.6989 59.3044C62.6848 59.6461 59.6532 59.8091 56.6197 59.793C53.5867 59.8082 50.5551 59.6447 47.5415 59.3025C39.674 58.355 35.8031 56.2388 33.9397 54.6334C32.9912 53.8026 32.3348 52.6892 32.0673 51.4572C30.4823 44.5188 31.0305 35.0082 35.1665 31.0466Z" fill="url(#paint0_linear)"/>
<path d="M35.0437 46.5079C35.3603 46.5084 35.6589 46.361 35.8513 46.1096C36.0436 45.8577 36.1079 45.5311 36.0243 45.2254C33.7568 36.9132 39.0525 34.1722 39.2964 34.0517C39.7846 33.7984 39.9826 33.203 39.7434 32.7082C39.5038 32.2129 38.9141 31.9984 38.4127 32.2238C38.3418 32.2573 31.3353 35.7516 34.0645 45.7594C34.185 46.2012 34.5857 46.5075 35.0437 46.5079Z" fill="url(#paint1_linear)"/>
<path d="M43.4187 31.3604C43.4187 31.9214 42.964 32.376 42.4036 32.376C41.8426 32.376 41.388 31.9214 41.388 31.3604C41.388 30.8 41.8426 30.3453 42.4036 30.3453C42.964 30.3453 43.4187 30.8 43.4187 31.3604Z" fill="url(#paint2_linear)"/>
</g>

</symbol><symbol id="icon-location" viewBox="0 0 30 41">
<path d="M14.9999 2.14726C22.3484 2.14726 28.3268 8.1467 28.3268 15.5211C28.3268 15.9098 28.6409 16.225 29.0282 16.225C29.4156 16.225 29.7296 15.9098 29.7296 15.5211C29.7296 7.37046 23.1219 0.739502 14.9999 0.739502C6.87799 0.739502 0.270264 7.37046 0.270264 15.5211C0.270264 20.7119 1.63995 25.8126 4.23135 30.2718C6.74557 34.5982 10.3458 38.2327 14.6429 40.7826C14.753 40.8479 14.8764 40.8806 14.9999 40.8806C15.1233 40.8806 15.2467 40.8479 15.3568 40.7829C19.1105 38.5555 22.378 35.4547 24.8059 31.8159C27.2859 28.0992 28.9022 23.7944 29.4803 19.3667C29.5306 18.9813 29.2601 18.6278 28.876 18.5773C28.4913 18.5265 28.1397 18.7983 28.0894 19.1838C27.0077 27.4682 22.1259 34.9779 14.9997 39.3553C6.76862 34.3011 1.67307 25.208 1.67307 15.5211C1.67307 8.1467 7.65151 2.14726 14.9999 2.14726Z" fill="url(#paint0_linear)"/>
<path d="M14.9999 6.37068C9.97205 6.37068 5.88158 10.4756 5.88158 15.5212C5.88158 15.9099 6.19565 16.2251 6.58299 16.2251C6.97033 16.2251 7.2844 15.9099 7.2844 15.5212C7.2844 11.2518 10.7456 7.77844 14.9999 7.77844C19.2543 7.77844 22.7155 11.2518 22.7155 15.5212C22.7155 19.7906 19.2543 23.264 14.9999 23.264C11.735 23.264 8.81064 21.1896 7.7233 18.1021C7.59416 17.7356 7.19361 17.5435 6.82822 17.6731C6.46299 17.8027 6.27158 18.2049 6.40065 18.5713C7.6858 22.2201 11.1417 24.6717 14.9999 24.6717C20.0278 24.6717 24.1183 20.5668 24.1183 15.5212C24.1183 10.4756 20.0278 6.37068 14.9999 6.37068Z" fill="url(#paint1_linear)"/>

</symbol><symbol id="icon-phone" viewBox="0 0 35 35">
<path d="M34.9802 27.6214C34.8967 27.1053 34.5732 26.6642 34.0887 26.4021L26.9212 22.1779L26.8622 22.1449C26.5616 21.9944 26.2297 21.9173 25.8937 21.9198C25.2932 21.9198 24.7197 22.1474 24.3217 22.5465L22.2062 24.6636C22.1156 24.7496 21.8207 24.8741 21.7311 24.8786C21.7066 24.8766 19.2696 24.7011 14.7831 20.2128C10.3046 15.734 10.1146 13.2888 10.1131 13.2888C10.1156 13.1638 10.2386 12.8697 10.3261 12.7787L12.1301 10.9747C12.7656 10.3375 12.9561 9.28117 12.5791 8.46293L8.59511 0.964277C8.30561 0.368106 7.74311 0 7.1191 0C6.6776 0 6.2516 0.183053 5.9186 0.515648L1.00109 5.42356C0.529585 5.89269 0.123584 6.71293 0.0350833 7.37312C-0.00791683 7.68871 -0.880419 15.2219 9.44461 25.5513C18.2101 34.3184 25.0452 34.9996 26.9327 34.9996C27.1625 35.0025 27.3923 34.9907 27.6207 34.964C28.2787 34.876 29.0977 34.4709 29.5662 34.0013L34.4797 29.0869C34.8807 28.6837 35.0637 28.1511 34.9802 27.6214Z" fill="url(#paint0_linear)"/>

</symbol><symbol id="icon-surgery" viewBox="0 0 113 112">
<g filter="url(#filter0_d)">
<rect x="6.89996" y="6.36938" width="99.4385" height="99.4385" rx="10" fill="white"/>
</g>
<g clip-path="url(#clip0)">
<path d="M81.3908 30.3691C80.5038 27.6561 78.0095 25.7918 75.1561 25.7091C72.1941 25.8046 70.3472 28.3697 69.6058 30.7387C69.4238 31.3734 69.2981 32.0231 69.231 32.68C69.1885 33.0051 69.146 33.3312 69.0831 33.6601C69.0647 33.7617 69.0392 33.8501 69.0188 33.9456C59.6487 33.9158 54.9542 42.4112 54.0922 44.1706C53.5894 45.2088 53.3687 46.361 53.4523 47.5117L51.709 49.5801L50.5918 50.9C46.3732 50.1397 38.1552 51.2209 26.8829 64.5919C25.7691 65.9137 25.9373 67.8885 27.2591 69.0024C28.5809 70.1167 30.5557 69.948 31.6696 68.6262C32.3369 67.8342 32.9895 67.1031 33.618 66.4146L33.6284 66.4065V66.3985C44.1819 54.9372 50.0782 57.2178 50.0923 57.2188C51.4051 57.9659 53.0639 57.671 54.0383 56.5175L56.4399 53.6679L57.1507 54.0743C57.1667 54.0852 57.1842 54.0956 57.2017 54.1055L57.6351 54.3536L55.0751 57.3894C54.1163 58.5118 54.0813 60.1544 54.992 61.3165C55.0293 61.3732 58.3345 66.7945 48.7885 79.1787H48.7824V79.1887C48.2101 79.9301 47.5986 80.6924 46.9313 81.4844C46.1478 82.4149 45.9743 83.715 46.4861 84.8184C46.9979 85.9219 48.1023 86.6288 49.3187 86.6317C49.409 86.6317 49.4993 86.6279 49.59 86.6194C50.4175 86.5518 51.1835 86.1553 51.717 85.5188C62.9813 72.1568 62.6594 63.8783 61.194 59.8458L62.3112 58.5198L64.0375 56.4688C65.1929 56.3559 66.2973 55.9348 67.2349 55.2501C70.0576 53.2076 72.2961 50.461 73.7276 47.2839C74.3547 47.1261 74.9444 46.8463 75.4638 46.4607C76.3796 45.827 77.2392 45.1158 78.0332 44.3341C78.6782 43.7694 79.4282 43.337 80.2405 43.062C80.5449 42.9462 80.8639 42.8498 81.1777 42.7571C81.8128 42.5795 82.4314 42.346 83.0259 42.0596C85.2342 40.9283 87.4501 38.6741 87.0437 35.7418C86.4908 32.9324 84.2248 30.7784 81.3908 30.3691ZM66.7822 42.6007C67.0681 42.8521 67.4381 42.9878 67.819 42.9816C68.5297 42.9816 69.5907 42.5757 71.2541 41.3153C70.4474 43.0275 69.3789 44.6035 68.0869 45.9862C67.1205 46.9025 65.6626 47.0637 64.5195 46.3804L63.6982 45.9092L63.6514 45.8808L61.0347 44.3738C62.0134 42.1976 64.6192 39.8532 66.9466 38.1056C66.8044 38.3717 66.6702 38.6429 66.5482 38.918C66.2052 39.6755 65.4008 41.4373 66.7822 42.6007ZM65.9433 36.3146C63.5063 38.1118 60.4365 40.7823 59.1856 43.5402C58.2021 43.3502 57.1847 43.5856 56.3842 44.1871C57.5987 42.0615 60.6954 37.6141 65.9433 36.3146ZM29.3667 67.7094C29.0756 67.7378 28.786 67.6461 28.5643 67.4557C28.1012 67.0639 28.0421 66.3716 28.4325 65.907C28.863 65.3995 29.2874 64.9109 29.707 64.4378L31.3842 65.8541C30.965 66.3253 30.5416 66.8115 30.1101 67.3233C29.9234 67.5459 29.656 67.6848 29.3667 67.7094ZM32.7631 64.3584L31.0798 62.9398C35.9426 57.7854 40.0611 55.1456 43.3204 53.864L44.1228 55.9296C41.19 57.0747 37.3754 59.4914 32.7631 64.3584ZM56.6256 58.7036L59.4233 55.3843L60.1789 55.8167C60.1907 55.8238 60.2049 55.8257 60.2181 55.8327C60.2314 55.8398 60.2304 55.8441 60.2385 55.8483C60.6553 56.0374 61.09 56.1848 61.5361 56.2878L59.2494 59.0042C59.0013 59.2986 58.9412 59.7088 59.0944 60.0623C59.7796 61.7881 60.0239 63.6576 59.8051 65.502L57.6095 65.055C57.8222 63.3788 57.4957 61.678 56.6776 60.1993C56.6587 60.1705 56.6384 60.1426 56.6167 60.1161C56.2755 59.7041 56.2797 59.1062 56.6266 58.6994L56.6256 58.7036ZM52.6343 81.1087L50.9515 79.6872C54.9674 74.3188 56.7088 70.1493 57.3364 67.0658L59.5074 67.5072C58.8009 70.9385 56.8879 75.445 52.6343 81.1087ZM49.4114 84.6062C49.1203 84.6355 48.8301 84.5434 48.6089 84.352C48.1458 83.9607 48.0867 83.2679 48.4771 82.8038C48.9085 82.2958 49.3168 81.7883 49.7096 81.2997L51.3881 82.7155C50.9931 83.2098 50.5871 83.7093 50.1566 84.2201C49.9699 84.4432 49.701 84.5826 49.4114 84.6062ZM66.0497 53.606C65.2955 54.1527 64.3919 54.4557 63.4605 54.4741H63.4534C62.6642 54.4935 61.8797 54.3432 61.1534 54.0337L58.2452 52.3693L58.2007 52.3419L56.7183 51.4898C56.6847 51.4718 56.6469 51.4709 56.6167 51.4553C56.5543 51.427 56.4886 51.4052 56.4215 51.3906C56.361 51.3783 56.2996 51.3712 56.2377 51.3702C56.1696 51.3684 56.1016 51.3736 56.0349 51.3854C55.9735 51.3962 55.9135 51.4132 55.8558 51.4359C55.7944 51.4586 55.7348 51.4874 55.6796 51.5224C55.6233 51.5579 55.5709 51.5994 55.5241 51.6462C55.4929 51.6675 55.4626 51.6911 55.4348 51.7162L52.4897 55.2146C52.1466 55.6191 51.5639 55.7226 51.1027 55.4604C51.0729 55.4429 51.0422 55.4273 51.0105 55.4136C49.4147 54.8555 47.6827 54.8195 46.0651 55.312L45.2532 53.2232C47.0343 52.6953 48.9189 52.6216 50.7365 53.0082C51.1103 53.0989 51.5034 52.9704 51.7515 52.676L57.3496 46.0349C57.8236 45.4763 58.6284 45.3346 59.265 45.697L62.6013 47.61L62.649 47.6393L63.5124 48.1331C65.4476 49.2711 67.904 48.9804 69.5207 47.4224C70.9068 45.9593 72.0617 44.2939 72.9469 42.4831C72.3061 48.8803 66.7921 53.0701 66.0497 53.606ZM82.0996 40.244C81.6091 40.4756 81.0997 40.6646 80.5765 40.8087C80.224 40.9184 79.8719 41.028 79.5317 41.1551C78.4675 41.5228 77.4873 42.0984 76.6471 42.8479C76.0158 43.4542 75.3456 44.0194 74.6415 44.5392C75.1505 42.389 75.1557 40.1504 74.6566 37.9979C74.5541 37.5546 74.1689 37.2332 73.7143 37.212C73.3448 37.2058 72.9998 37.3963 72.8075 37.7115C72.3396 37.8693 71.9096 38.1217 71.5433 38.453C70.5264 39.468 69.3393 40.2974 68.0359 40.9032C68.0827 40.4973 68.2074 40.1046 68.4036 39.7464C68.8284 38.8433 69.3298 37.9776 69.9016 37.1591C70.4961 36.2059 70.8969 35.1445 71.0802 34.0358C71.1492 33.6734 71.1979 33.3085 71.2456 32.9442C71.3014 32.4036 71.403 31.8681 71.5504 31.345C72.058 29.7203 73.3263 27.8002 75.2303 27.7393C77.3697 27.8527 79.1617 29.3975 79.5898 31.4962C79.5898 31.5095 79.6007 31.5184 79.6026 31.5317C79.6049 31.5449 79.6026 31.5614 79.6026 31.5766C79.905 32.7561 79.8927 33.9947 79.5671 35.1681C79.3497 35.6851 79.5926 36.2805 80.1096 36.4984C80.6266 36.7158 81.2221 36.4729 81.4395 35.9559C81.8307 34.8676 81.9565 33.7012 81.8071 32.5543C83.4342 33.0326 84.6714 34.3581 85.0362 36.014C85.2933 37.8934 83.6157 39.4685 82.0996 40.244Z" fill="url(#paint0_linear)"/>
<path d="M61.6439 50.0684C61.6439 50.6294 61.1893 51.084 60.6284 51.084C60.0679 51.084 59.6133 50.6294 59.6133 50.0684C59.6133 49.5075 60.0679 49.0529 60.6284 49.0529C61.1893 49.0529 61.6439 49.5075 61.6439 50.0684Z" fill="url(#paint1_linear)"/>
<path d="M77.1962 29.8117C76.1282 29.4431 74.952 29.5612 73.9785 30.1349C73.1657 30.7724 72.7276 31.7766 72.8136 32.8064C72.8136 33.3673 73.2682 33.8219 73.8291 33.8219C74.3901 33.8219 74.8447 33.3673 74.8447 32.8064C74.8017 32.4359 74.9175 32.0644 75.1632 31.7837C75.6065 31.5937 76.1051 31.5781 76.5597 31.7402C77.0923 31.916 77.6669 31.6263 77.8427 31.0938C78.0185 30.5612 77.7288 29.9865 77.1962 29.8107V29.8117Z" fill="url(#paint2_linear)"/>
</g>

</symbol></svg>