<svg xmlns="http://www.w3.org/2000/svg" xmlns:xlink="http://www.w3.org/1999/xlink"><defs><linearGradient id="paint0_linear" x1="3.372" y1="13.635" x2="-3.726" y2="6.165" gradientUnits="userSpaceOnUse"><stop stop-color="#0082D5"/><stop offset="1" stop-color="#2FCFFE"/></linearGradient><linearGradient id="paint0_linear" x1="4.846" y1="19.875" x2="-5.5" y2="8.986" gradientUnits="userSpaceOnUse"><stop stop-color="#0082D5"/><stop offset="1" stop-color="#2FCFFE"/></linearGradient><linearGradient id="paint0_linear" x1="5.537" y1="50.625" x2="-25.5" y2="17.958" gradientUnits="userSpaceOnUse"><stop stop-color="#0170B0"/><stop offset="1" stop-color="#18BBEB"/></linearGradient><linearGradient id="paint0_linear" x1="30.154" y1="5.938" x2="46.84" y2="15.181" gradientUnits="userSpaceOnUse"><stop stop-color="#0170B0"/><stop offset="1" stop-color="#18BBEB"/></linearGradient><linearGradient id="paint0_linear" x1="26.846" y1="5.938" x2="10.159" y2="15.181" gradientUnits="userSpaceOnUse"><stop stop-color="#0170B0"/><stop offset="1" stop-color="#18BBEB"/></linearGradient><linearGradient id="paint0_linear" x1="5.537" y1="50.625" x2="-25.5" y2="17.958" gradientUnits="userSpaceOnUse"><stop stop-color="#0170B0"/><stop offset="1" stop-color="#18BBEB"/></linearGradient><linearGradient id="paint0_linear" x1="55.973" y1="39.423" x2="55.973" y2="72.763" gradientUnits="userSpaceOnUse"><stop stop-color="#18BBEB"/><stop offset="1" stop-color="#0170B0"/></linearGradient><clipPath id="clip0"><path fill="#fff" transform="translate(25.5 25.615)" d="M0 0h60.946v60.946H0z"/></clipPath><filter id="filter0_d" x=".254" y=".369" width="111.438" height="111.438" filterUnits="userSpaceOnUse" color-interpolation-filters="sRGB"><feFlood flood-opacity="0" result="BackgroundImageFix"/><feColorMatrix in="SourceAlpha" values="0 0 0 0 0 0 0 0 0 0 0 0 0 0 0 0 0 0 127 0"/><feOffset/><feGaussianBlur stdDeviation="3"/><feColorMatrix values="0 0 0 0 0 0 0 0 0 0 0 0 0 0 0 0 0 0 0.15 0"/><feBlend in2="BackgroundImageFix" result="effect1_dropShadow"/><feBlend in="SourceGraphic" in2="effect1_dropShadow" result="shape"/></filter><linearGradient id="paint0_linear" x1="4.614" y1="30.375" x2="-12.764" y2="4.97" gradientUnits="userSpaceOnUse"><stop stop-color="#0170B0"/><stop offset="1" stop-color="#18BBEB"/></linearGradient><linearGradient id="paint0_linear" x1="39.274" y1="47.736" x2="39.274" y2="50.322" gradientUnits="userSpaceOnUse"><stop stop-color="#18BBEB"/><stop offset="1" stop-color="#0170B0"/></linearGradient><linearGradient id="paint1_linear" x1="55.935" y1="27.785" x2="55.935" y2="83.653" gradientUnits="userSpaceOnUse"><stop stop-color="#18BBEB"/><stop offset="1" stop-color="#0170B0"/></linearGradient><linearGradient id="paint2_linear" x1="46.512" y1="55.964" x2="46.512" y2="61.327" gradientUnits="userSpaceOnUse"><stop stop-color="#18BBEB"/><stop offset="1" stop-color="#0170B0"/></linearGradient><linearGradient id="paint3_linear" x1="65.357" y1="55.964" x2="65.357" y2="61.327" gradientUnits="userSpaceOnUse"><stop stop-color="#18BBEB"/><stop offset="1" stop-color="#0170B0"/></linearGradient><linearGradient id="paint4_linear" x1="55.935" y1="68.593" x2="55.935" y2="73.957" gradientUnits="userSpaceOnUse"><stop stop-color="#18BBEB"/><stop offset="1" stop-color="#0170B0"/></linearGradient><clipPath id="clip0"><path fill="#fff" transform="translate(25.462 25.246)" d="M0 0h60.946v60.946H0z"/></clipPath><filter id="filter0_d" x=".215" y="0" width="111.438" height="111.438" filterUnits="userSpaceOnUse" color-interpolation-filters="sRGB"><feFlood flood-opacity="0" result="BackgroundImageFix"/><feColorMatrix in="SourceAlpha" values="0 0 0 0 0 0 0 0 0 0 0 0 0 0 0 0 0 0 127 0"/><feOffset/><feGaussianBlur stdDeviation="3"/><feColorMatrix values="0 0 0 0 0 0 0 0 0 0 0 0 0 0 0 0 0 0 0.15 0"/><feBlend in2="BackgroundImageFix" result="effect1_dropShadow"/><feBlend in="SourceGraphic" in2="effect1_dropShadow" result="shape"/></filter><linearGradient id="paint0_linear" x1="3.692" y1="33.75" x2="-17" y2="11.972" gradientUnits="userSpaceOnUse"><stop stop-color="#0170B0"/><stop offset="1" stop-color="#18BBEB"/></linearGradient><linearGradient id="paint1_linear" x1="3.692" y1="33.75" x2="-17" y2="11.972" gradientUnits="userSpaceOnUse"><stop stop-color="#0170B0"/><stop offset="1" stop-color="#18BBEB"/></linearGradient><linearGradient id="paint0_linear" x1="56.327" y1="57.106" x2="56.327" y2="86.563" gradientUnits="userSpaceOnUse"><stop stop-color="#18BBEB"/><stop offset="1" stop-color="#0170B0"/></linearGradient><linearGradient id="paint1_linear" x1="56.327" y1="25.618" x2="56.327" y2="40.855" gradientUnits="userSpaceOnUse"><stop stop-color="#18BBEB"/><stop offset="1" stop-color="#0170B0"/></linearGradient><linearGradient id="paint2_linear" x1="50.234" y1="42.891" x2="50.234" y2="55.074" gradientUnits="userSpaceOnUse"><stop stop-color="#18BBEB"/><stop offset="1" stop-color="#0170B0"/></linearGradient><linearGradient id="paint3_linear" x1="62.423" y1="42.891" x2="62.423" y2="55.074" gradientUnits="userSpaceOnUse"><stop stop-color="#18BBEB"/><stop offset="1" stop-color="#0170B0"/></linearGradient><linearGradient id="paint4_linear" x1="76.643" y1="44.922" x2="76.643" y2="57.106" gradientUnits="userSpaceOnUse"><stop stop-color="#18BBEB"/><stop offset="1" stop-color="#0170B0"/></linearGradient><linearGradient id="paint5_linear" x1="34.998" y1="44.923" x2="34.998" y2="57.106" gradientUnits="userSpaceOnUse"><stop stop-color="#18BBEB"/><stop offset="1" stop-color="#0170B0"/></linearGradient><clipPath id="clip0"><path fill="#fff" transform="translate(25.854 25.615)" d="M0 0h60.946v60.946H0z"/></clipPath><filter id="filter0_d" x=".608" y=".369" width="111.438" height="111.438" filterUnits="userSpaceOnUse" color-interpolation-filters="sRGB"><feFlood flood-opacity="0" result="BackgroundImageFix"/><feColorMatrix in="SourceAlpha" values="0 0 0 0 0 0 0 0 0 0 0 0 0 0 0 0 0 0 127 0"/><feOffset/><feGaussianBlur stdDeviation="3"/><feColorMatrix values="0 0 0 0 0 0 0 0 0 0 0 0 0 0 0 0 0 0 0.15 0"/><feBlend in2="BackgroundImageFix" result="effect1_dropShadow"/><feBlend in="SourceGraphic" in2="effect1_dropShadow" result="shape"/></filter><linearGradient id="paint0_linear" x1="55.572" y1="44.281" x2="55.572" y2="85.95" gradientUnits="userSpaceOnUse"><stop stop-color="#18BBEB"/><stop offset="1" stop-color="#0170B0"/></linearGradient><linearGradient id="paint1_linear" x1="33.618" y1="49.036" x2="33.618" y2="57.482" gradientUnits="userSpaceOnUse"><stop stop-color="#18BBEB"/><stop offset="1" stop-color="#0170B0"/></linearGradient><linearGradient id="paint2_linear" x1="63.184" y1="25" x2="63.184" y2="44.286" gradientUnits="userSpaceOnUse"><stop stop-color="#18BBEB"/><stop offset="1" stop-color="#0170B0"/></linearGradient><clipPath id="clip0"><path fill="#fff" transform="translate(25 25)" d="M0 0h60.95v60.95H0z"/></clipPath><filter id="filter0_d" x="0" y="0" width="111.438" height="111.438" filterUnits="userSpaceOnUse" color-interpolation-filters="sRGB"><feFlood flood-opacity="0" result="BackgroundImageFix"/><feColorMatrix in="SourceAlpha" values="0 0 0 0 0 0 0 0 0 0 0 0 0 0 0 0 0 0 127 0"/><feOffset/><feGaussianBlur stdDeviation="3"/><feColorMatrix values="0 0 0 0 0 0 0 0 0 0 0 0 0 0 0 0 0 0 0.15 0"/><feBlend in2="BackgroundImageFix" result="effect1_dropShadow"/><feBlend in="SourceGraphic" in2="effect1_dropShadow" result="shape"/></filter><linearGradient id="paint0_linear" x1="18" y1=".542" x2="18" y2="40.683" gradientUnits="userSpaceOnUse"><stop stop-color="#18BBEB"/><stop offset="1" stop-color="#0095C4"/></linearGradient><linearGradient id="paint0_linear" x1="9.753" y1="85.998" x2="-42.971" y2="30.505" gradientUnits="userSpaceOnUse"><stop stop-color="#0170B0"/><stop offset="1" stop-color="#18BBEB"/></linearGradient><linearGradient id="paint0_linear" x1="56.618" y1="25.246" x2="56.618" y2="86.192" gradientUnits="userSpaceOnUse"><stop stop-color="#18BBEB"/><stop offset="1" stop-color="#0170B0"/></linearGradient><linearGradient id="paint1_linear" x1="36.639" y1="32.134" x2="36.639" y2="46.508" gradientUnits="userSpaceOnUse"><stop stop-color="#18BBEB"/><stop offset="1" stop-color="#0170B0"/></linearGradient><linearGradient id="paint2_linear" x1="42.403" y1="30.345" x2="42.403" y2="32.376" gradientUnits="userSpaceOnUse"><stop stop-color="#18BBEB"/><stop offset="1" stop-color="#0170B0"/></linearGradient><clipPath id="clip0"><path fill="#fff" transform="translate(26.092 25.246)" d="M0 0h60.946v60.946H0z"/></clipPath><filter id="filter0_d" x=".846" y="0" width="111.438" height="111.438" filterUnits="userSpaceOnUse" color-interpolation-filters="sRGB"><feFlood flood-opacity="0" result="BackgroundImageFix"/><feColorMatrix in="SourceAlpha" values="0 0 0 0 0 0 0 0 0 0 0 0 0 0 0 0 0 0 127 0"/><feOffset/><feGaussianBlur stdDeviation="3"/><feColorMatrix values="0 0 0 0 0 0 0 0 0 0 0 0 0 0 0 0 0 0 0.15 0"/><feBlend in2="BackgroundImageFix" result="effect1_dropShadow"/><feBlend in="SourceGraphic" in2="effect1_dropShadow" result="shape"/></filter><linearGradient id="paint0_linear" x1="9.445" y1="85.998" x2="-43.279" y2="30.505" gradientUnits="userSpaceOnUse"><stop stop-color="#0170B0"/><stop offset="1" stop-color="#18BBEB"/></linearGradient><linearGradient id="paint1_linear" x1="9.445" y1="85.998" x2="-43.279" y2="30.505" gradientUnits="userSpaceOnUse"><stop stop-color="#0170B0"/><stop offset="1" stop-color="#18BBEB"/></linearGradient><linearGradient id="paint0_linear" x1="15" y1="6.371" x2="15" y2="24.672" gradientUnits="userSpaceOnUse"><stop stop-color="#18BBEB"/><stop offset="1" stop-color="#0196C5"/></linearGradient><linearGradient id="paint1_linear" x1="15" y1="6.371" x2="15" y2="24.672" gradientUnits="userSpaceOnUse"><stop stop-color="#18BBEB"/><stop offset="1" stop-color="#0196C5"/></linearGradient><linearGradient id="paint0_linear" x1="6.46" y1="59.063" x2="-29.75" y2="20.951" gradientUnits="userSpaceOnUse"><stop stop-color="#0170B0"/><stop offset="1" stop-color="#18BBEB"/></linearGradient><linearGradient id="paint0_linear" x1="5.168" y1="74.25" x2="-36.982" y2="46.019" gradientUnits="userSpaceOnUse"><stop stop-color="#0170B0"/><stop offset="1" stop-color="#18BBEB"/></linearGradient><linearGradient id="paint1_linear" x1="5.168" y1="74.25" x2="-36.982" y2="46.019" gradientUnits="userSpaceOnUse"><stop stop-color="#0170B0"/><stop offset="1" stop-color="#18BBEB"/></linearGradient><linearGradient id="paint0_linear" x1="56.619" y1="25.709" x2="56.619" y2="86.632" gradientUnits="userSpaceOnUse"><stop stop-color="#18BBEB"/><stop offset="1" stop-color="#0170B0"/></linearGradient><linearGradient id="paint1_linear" x1="60.629" y1="49.053" x2="60.629" y2="51.084" gradientUnits="userSpaceOnUse"><stop stop-color="#18BBEB"/><stop offset="1" stop-color="#0170B0"/></linearGradient><linearGradient id="paint2_linear" x1="75.349" y1="29.601" x2="75.349" y2="33.822" gradientUnits="userSpaceOnUse"><stop stop-color="#18BBEB"/><stop offset="1" stop-color="#0170B0"/></linearGradient><clipPath id="clip0"><path fill="#fff" transform="translate(26.146 25.616)" d="M0 0h60.946v60.946H0z"/></clipPath><filter id="filter0_d" x=".9" y=".369" width="111.438" height="111.438" filterUnits="userSpaceOnUse" color-interpolation-filters="sRGB"><feFlood flood-opacity="0" result="BackgroundImageFix"/><feColorMatrix in="SourceAlpha" values="0 0 0 0 0 0 0 0 0 0 0 0 0 0 0 0 0 0 127 0"/><feOffset/><feGaussianBlur stdDeviation="3"/><feColorMatrix values="0 0 0 0 0 0 0 0 0 0 0 0 0 0 0 0 0 0 0.15 0"/><feBlend in2="BackgroundImageFix" result="effect1_dropShadow"/><feBlend in="SourceGraphic" in2="effect1_dropShadow" result="shape"/></filter><linearGradient id="paint0_linear" x1="10.099" y1="85.998" x2="-42.625" y2="30.505" gradientUnits="userSpaceOnUse"><stop stop-color="#0170B0"/><stop offset="1" stop-color="#18BBEB"/></linearGradient><linearGradient id="paint0_linear" x1="9.406" y1="85.998" x2="-43.317" y2="30.505" gradientUnits="userSpaceOnUse"><stop stop-color="#0170B0"/><stop offset="1" stop-color="#18BBEB"/></linearGradient></defs><symbol id="icon-active-dots"><circle cx="5.535" cy="5.488" r="5.238" stroke="#18BBEB" stroke-width=".5"/><circle cx="5.536" cy="5.488" r="3.43" fill="url(#paint0_linear)"/></symbol><symbol id="icon-active"><circle cx="8" cy="8" r="7.75" stroke="#18BBEB" stroke-width=".5"/><circle cx="8" cy="8" r="5" fill="url(#paint0_linear)"/></symbol><symbol id="icon-arrow-down"><rect width="30" height="30" rx="10" fill="url(#paint0_linear)"/><path d="M19.198 16.982a.484.484 0 000-.672.479.479 0 00-.67 0l-3.393 3.408V8.471a.472.472 0 00-.944 0v11.247l-3.386-3.408a.479.479 0 00-.67 0 .484.484 0 000 .672l4.197 4.215a.48.48 0 00.67 0l4.196-4.215z" fill="#fff"/></symbol><symbol id="icon-arrow-left-slider"><path d="M.345 17.678l10.618 14.835c.466.65 1.22.65 1.688 0 .466-.65.466-1.705 0-2.354L2.875 16.5 12.65 2.843c.466-.65.466-1.705 0-2.356-.465-.65-1.221-.65-1.687 0L.344 15.322c-.459.643-.459 1.715.001 2.356z" fill="#DEDEDE"/></symbol><symbol id="icon-arrow-left"><circle cx="28.5" cy="28.5" r="28.5" transform="rotate(180 28.5 28.5)" fill="#fff"/><circle cx="28.5" cy="28.5" r="25" transform="rotate(180 28.5 28.5)" stroke="#18BBEB" stroke-opacity=".2" stroke-width="7"/><circle cx="28.5" cy="28.5" r="28" transform="rotate(180 28.5 28.5)" stroke="#18BBEB" stroke-opacity=".5"/><path d="M22.265 29.178l8.168 8.541a.891.891 0 001.298 0 .989.989 0 000-1.355l-7.52-7.863 7.52-7.864a.99.99 0 000-1.357.891.891 0 00-1.299 0l-8.167 8.542a1 1 0 000 1.356z" fill="url(#paint0_linear)"/></symbol><symbol id="icon-arrow-right-slider"><path d="M12.655 15.322L2.037.487c-.466-.65-1.22-.65-1.688 0-.465.65-.465 1.705 0 2.354L10.125 16.5.35 30.157c-.466.65-.466 1.705 0 2.356.465.65 1.221.65 1.687 0l10.618-14.835c.459-.643.459-1.715-.001-2.356z" fill="#DEDEDE"/></symbol><symbol id="icon-arrow-right"><circle r="28.5" transform="matrix(1 0 0 -1 28.5 28.5)" fill="#fff"/><circle r="25" transform="matrix(1 0 0 -1 28.5 28.5)" stroke="#18BBEB" stroke-opacity=".2" stroke-width="7"/><circle r="28" transform="matrix(1 0 0 -1 28.5 28.5)" stroke="#18BBEB" stroke-opacity=".5"/><path d="M34.734 29.178l-8.167 8.541a.891.891 0 01-1.298 0 .989.989 0 010-1.355l7.52-7.863-7.52-7.864a.99.99 0 010-1.357.891.891 0 011.299 0l8.167 8.542a1 1 0 010 1.356z" fill="url(#paint0_linear)"/></symbol><symbol id="icon-arrow-up"><rect width="30" height="30" rx="10" fill="url(#paint0_linear)"/><path d="M19.865 13.243c.18.183.18.472 0 .655a.45.45 0 01-.639 0l-3.271-3.323v10.966c0 .256-.2.459-.452.459a.458.458 0 01-.458-.459V10.575l-3.264 3.323a.458.458 0 01-.646 0 .464.464 0 010-.655l4.046-4.11a.45.45 0 01.639 0l4.045 4.11z" fill="#fff"/></symbol><symbol id="icon-braces"><g filter="url(#filter0_d)"><rect x="6.254" y="6.369" width="99.439" height="99.439" rx="10" fill="#fff"/></g><g clip-path="url(#clip0)"><path d="M80.961 40.747a236.497 236.497 0 00-49.976 0 6.105 6.105 0 00-5.485 6.067v19.48a4.47 4.47 0 004.482 4.454h7.289a4.454 4.454 0 002.71-.932 4.39 4.39 0 004.141 2.947h8.465a4.385 4.385 0 003.386-1.614 4.385 4.385 0 003.386 1.614h8.465a4.39 4.39 0 004.14-2.946c.777.601 1.73.928 2.712.932h7.289a4.469 4.469 0 004.481-4.455v-19.48a6.105 6.105 0 00-5.485-6.067zM70.194 57.508v2.71c-.964.053-1.98.101-3.047.143v-1.819c0-1.122-.91-2.031-2.032-2.031h-3.047c-1.122 0-2.032.91-2.032 2.031v2.005c-.982.013-2 .02-3.047.024v-2.773a7.424 7.424 0 017.449-7.382c4.544 0 5.756 3.684 5.756 5.86v1.232zm8.717-6.625h.203a4.942 4.942 0 015.3 5.097v2.753c-.458.089-1.13.203-2.03.343v-1.55c0-1.122-.91-2.031-2.032-2.031h-3.048c-1.122 0-2.031.91-2.031 2.031v2.348c-.942.079-1.958.154-3.047.225v-2.59a6.663 6.663 0 016.685-6.626zm1.44 12.738h-3.047v-1.88a108.84 108.84 0 003.048-.33v2.21zm-3.047-3.931v-2.164h3.048v1.829c-.885.109-1.897.223-3.048.335zm-12.189 4.947h-3.047v-2.09a243.65 243.65 0 003.047-.077v2.167zm-3.047-4.124v-1.97h3.047v1.892c-.974.031-1.992.057-3.047.078zm-7.11.06c-1.048 0-2.066-.01-3.048-.022v-2.009c0-1.122-.91-2.031-2.031-2.031H46.83c-1.122 0-2.031.91-2.031 2.031v1.82c-1.068-.043-2.084-.09-3.047-.144v-3.942c0-2.177 1.211-5.86 5.755-5.86a7.424 7.424 0 017.45 7.382v2.776zm-5.08 4.064h-3.047V62.47c.975.03 1.994.056 3.048.076v2.09zm-3.047-4.202v-1.893h3.048v1.971a261.57 261.57 0 01-3.048-.078zm-7.11-.336a162.709 162.709 0 01-3.047-.225v-2.348c0-1.122-.91-2.031-2.032-2.031h-3.048c-1.122 0-2.031.91-2.031 2.031v1.55a51.385 51.385 0 01-2.031-.343V55.98a4.94 4.94 0 015.304-5.097h.203a6.663 6.663 0 016.682 6.625v2.59zm-5.079 3.522h-3.048v-2.21c.892.11 1.907.22 3.048.33v1.88zm-3.048-4.266v-1.829h3.048v2.164a120.19 120.19 0 01-3.048-.335zm5.677 9.363h-7.29a2.437 2.437 0 01-2.45-2.424v-5.486c.508.096 1.183.21 2.032.334v2.479c0 1.122.91 2.032 2.032 2.032h3.047c1.122 0 2.031-.91 2.031-2.032v-1.7c.946.077 1.957.152 3.048.221v4.152a2.438 2.438 0 01-2.45 2.422v.002zm15.316 2.013h-8.465a2.36 2.36 0 01-2.37-2.343v-6.129c.965.05 1.98.098 3.048.14v2.238c0 1.122.91 2.031 2.031 2.031h3.048c1.122 0 2.031-.91 2.031-2.031V62.58c.981.012 2 .02 3.047.022v5.79a2.36 2.36 0 01-2.37 2.34zm17.607-2.343a2.36 2.36 0 01-2.37 2.343H59.36a2.36 2.36 0 01-2.37-2.343v-5.783c1.046 0 2.066-.01 3.047-.022v2.054c0 1.122.91 2.031 2.032 2.031h3.047c1.122 0 2.032-.91 2.032-2.031v-2.235c1.068-.041 2.083-.088 3.047-.14v6.13-.004zm11.77.328h-7.288a2.438 2.438 0 01-2.45-2.422v-4.152c1.09-.069 2.1-.144 3.047-.22v1.699c0 1.122.91 2.032 2.031 2.032h3.048c1.122 0 2.031-.91 2.031-2.032v-2.483a49.99 49.99 0 002.032-.334v5.485a2.437 2.437 0 01-2.45 2.427zM79.11 48.852h-.203a8.724 8.724 0 00-7.362 4.043 7.278 7.278 0 00-7.11-4.51 9.491 9.491 0 00-8.46 5.197 9.492 9.492 0 00-8.465-5.198 7.277 7.277 0 00-7.11 4.51 8.724 8.724 0 00-7.363-4.042h-.203a7.22 7.22 0 00-5.301 2.02v-4.063a4.077 4.077 0 013.67-4.042 233.85 233.85 0 017.001-.63.98.98 0 00.502.153c.44 0 1.016 1.97 1.016 4.063a1.016 1.016 0 002.032 0 11.688 11.688 0 00-.794-4.397c4.66-.3 9.326-.462 13.998-.488v5.9a1.016 1.016 0 002.032 0v-5.9c4.672.02 9.338.183 13.998.488a11.7 11.7 0 00-.793 4.397 1.016 1.016 0 002.032 0c0-2.093.574-4.063 1.015-4.063a.988.988 0 00.502-.151c2.336.177 4.672.38 7.003.628a4.077 4.077 0 013.669 4.047v4.063a7.222 7.222 0 00-5.306-2.025z" fill="url(#paint0_linear)"/></g></symbol><symbol id="icon-burger-menu"><path d="M0 0h25v3H0V0zm6.25 7.5H25v3H6.25v-3zm7.813 7.5H25v3H14.062v-3z" fill="url(#paint0_linear)"/></symbol><symbol id="icon-child"><g filter="url(#filter0_d)"><rect x="6.215" y="6" width="99.439" height="99.439" rx="10" fill="#fff"/></g><g clip-path="url(#clip0)"><path d="M39.897 47.892a1.27 1.27 0 00-1.724.504l-.025.046a1.27 1.27 0 102.227 1.22l.025-.046a1.27 1.27 0 00-.503-1.724z" fill="url(#paint0_linear)"/><path d="M80.53 51.93c-1.996-7.772-7.594-14.233-15.148-17.252-1.305-4.074-5.142-6.893-9.447-6.893-4.416 0-8.166 2.901-9.447 6.897a25.337 25.337 0 00-11.295 8.923 25.22 25.22 0 00-3.86 8.325c-3.278.245-5.871 2.989-5.871 6.328a6.356 6.356 0 005.877 6.33c2.82 10.95 12.778 19.065 24.596 19.065S77.71 75.538 80.53 64.588c3.281-.242 5.878-2.988 5.878-6.33 0-3.341-2.596-6.086-5.877-6.329zm-52.529 6.328a3.816 3.816 0 012.803-3.674 25.627 25.627 0 00-.226 2.288c0 .01 0 .021-.002.032l-.018.42-.005.16-.008.302a27.567 27.567 0 00.003 1.05 17.898 17.898 0 00.02.599l.009.178c.009.174.02.349.033.523l.02.245a29.213 29.213 0 00.055.582c.01.107.024.213.036.319.017.138.034.277.053.415.01.079.02.158.032.236a3.816 3.816 0 01-2.805-3.675zm27.934-27.933a7.415 7.415 0 016.157 3.313h-.124l-.02.001c-3.953.037-7.158 3.263-7.158 7.225 0 1.542.484 3.008 1.355 4.217a7.73 7.73 0 01-.21.003c-4.07 0-7.38-3.31-7.38-7.38 0-4.069 3.31-7.38 7.38-7.38zM78.78 58.86l-.003.093c-.006.17-.012.34-.02.51l-.006.091c-.01.17-.02.34-.034.51l-.01.102c-.013.164-.028.328-.045.492l-.015.136c-.017.15-.034.3-.054.45l-.026.187c-.018.13-.036.259-.057.388l-.041.25a21.709 21.709 0 01-.162.866c-2.164 10.367-11.374 18.178-22.374 18.178-11.007 0-20.222-7.823-22.377-18.2-.02-.095-.038-.19-.056-.284a23.925 23.925 0 01-.118-.657l-.03-.178a24.369 24.369 0 01-.07-.49l-.011-.083a22.981 22.981 0 01-.068-.579v-.003a22.997 22.997 0 01-.097-3.457l.01-.21c.006-.108.014-.215.021-.322.013-.184.028-.368.046-.552l.005-.063c.78-7.903 5.675-14.916 12.828-18.37l-.001.04c0 .909.125 1.788.355 2.625a20.146 20.146 0 00-5.958 4.819 1.27 1.27 0 101.941 1.637 17.625 17.625 0 015.007-4.104c1.72 2.952 4.918 4.942 8.574 4.942a9.892 9.892 0 003.273-.554 1.27 1.27 0 00.27-2.265 4.674 4.674 0 01-2.149-3.94c0-2.533 2.019-4.6 4.531-4.684 8.434 2.257 14.707 9.077 16.445 17.388.028.138.056.275.082.414l.04.217a22.922 22.922 0 01.147.926l.022.16c.048.37.087.743.118 1.117l.01.129a22.177 22.177 0 01.053 1.01l.005.158a22.607 22.607 0 010 1.16zm2.282 3.073l.04-.288a27.728 27.728 0 00.108-.943l.03-.332c.006-.077.013-.153.018-.23.013-.176.025-.353.034-.53l.008-.17c.006-.142.012-.284.016-.426l.005-.178a26.478 26.478 0 00.002-1.08l-.005-.183-.01-.315-.01-.224a22.12 22.12 0 00-.069-1.017 27.93 27.93 0 00-.023-.244l-.025-.25c-.01-.095-.022-.19-.033-.284-.013-.105-.025-.21-.04-.314-.014-.114-.03-.228-.046-.341a3.816 3.816 0 012.805 3.674 3.816 3.816 0 01-2.805 3.675z" fill="url(#paint1_linear)"/><path d="M51.418 59.728a5.086 5.086 0 00-4.906-3.764 5.087 5.087 0 00-4.906 3.764 1.27 1.27 0 002.453.658 2.543 2.543 0 012.453-1.883c1.147 0 2.156.774 2.453 1.883a1.27 1.27 0 002.453-.658z" fill="url(#paint2_linear)"/><path d="M65.358 55.964a5.086 5.086 0 00-4.906 3.764 1.27 1.27 0 002.453.658 2.543 2.543 0 012.452-1.883c1.148 0 2.156.774 2.453 1.883a1.27 1.27 0 102.453-.658 5.086 5.086 0 00-4.905-3.764z" fill="url(#paint3_linear)"/><path d="M59.943 68.637a1.27 1.27 0 00-1.555.898 2.543 2.543 0 01-2.453 1.882 2.543 2.543 0 01-2.453-1.882 1.27 1.27 0 10-2.453.657 5.086 5.086 0 004.906 3.765 5.086 5.086 0 004.906-3.765 1.27 1.27 0 00-.898-1.555z" fill="url(#paint4_linear)"/></g></symbol><symbol id="icon-close"><path d="M2.143 0L20 17.857 17.857 20 0 2.143 2.143 0z" fill="url(#paint0_linear)"/><path d="M20 2.143L2.143 20 0 17.857 17.857 0 20 2.143z" fill="url(#paint1_linear)"/></symbol><symbol id="icon-cursor"><path d="M7.64 19.97a.99.99 0 01-1.33-.47l-2.18-4.74-2.51 2.02c-.17.14-.38.22-.62.22a1 1 0 01-1-1V1A1 1 0 011.64.23l.01-.01 11.49 9.64a1 1 0 01-.44 1.75l-3.16.62 2.2 4.73c.26.5.02 1.09-.48 1.32l-3.62 1.69z" fill="#000"/></symbol><symbol id="icon-dental"><g filter="url(#filter0_d)"><rect x="6.608" y="6.369" width="99.439" height="99.439" rx="10" fill="#fff"/></g><g clip-path="url(#clip0)"><path d="M80.705 63.776v-1.591a3.048 3.048 0 00-3.047-3.048h-2.032a3.048 3.048 0 00-3.047 3.04 110.94 110.94 0 00-6.095-.62v-1.404a3.047 3.047 0 00-3.046-3.047h-2.032a3.048 3.048 0 00-3.047 3.047v1.033a129.304 129.304 0 00-4.063 0v-1.033a3.048 3.048 0 00-3.048-3.047h-2.031a3.047 3.047 0 00-3.047 3.047v1.405c-2.032.152-4.099.356-6.095.619a3.047 3.047 0 00-3.047-3.04h-2.031a3.048 3.048 0 00-3.048 3.048v1.591c-3.638 1.069-6.094 2.53-6.094 4.503v8.126c.002.722.39 1.39 1.015 1.749v1.298a3.048 3.048 0 003.048 3.048h1.203a3.047 3.047 0 002.86 2.031h3.047a3.017 3.017 0 001.494-.406 3.042 3.042 0 002.57 1.422h4.062a3.013 3.013 0 001.494-.406 3.04 3.04 0 002.569 1.421h5.079a3.028 3.028 0 002.031-.792c.555.508 1.28.79 2.032.793h5.078a3.041 3.041 0 002.569-1.422c.454.263.97.403 1.494.406h4.063a3.041 3.041 0 002.57-1.422c.453.263.968.403 1.493.406h3.047a3.047 3.047 0 002.86-2.031h1.203a3.047 3.047 0 003.047-3.048v-1.298a2.024 2.024 0 001.016-1.749V68.28c0-1.972-2.456-3.434-6.094-4.503zm-6.094-1.591c0-.561.454-1.016 1.015-1.016h2.032c.56 0 1.016.455 1.016 1.016v1.06a57.878 57.878 0 00-4.063-.776v-.284zM60.39 60.153c0-.56.455-1.016 1.016-1.016h2.032c.56 0 1.015.456 1.015 1.016v1.268a140.664 140.664 0 00-4.063-.185v-1.083zm-12.189 0c0-.56.455-1.016 1.016-1.016h2.031c.562 0 1.016.456 1.016 1.016v1.083c-1.3.04-2.664.102-4.063.185v-1.268zm-14.22 2.032c0-.561.454-1.016 1.016-1.016h2.031c.56 0 1.016.455 1.016 1.016v.284a57.878 57.878 0 00-4.063.776v-1.06zM56.327 63.2c18.402 0 28.44 3.352 28.44 5.078v6.02a2.616 2.616 0 00-1.804-.678 3.022 3.022 0 00-1.811.61 3.962 3.962 0 00-3.607-2.006 4.94 4.94 0 00-3.646 1.62 4.342 4.342 0 00-3.92-2.067 5.515 5.515 0 00-4.191 1.93 4.774 4.774 0 00-4.382-2.382 6.095 6.095 0 00-5.079 2.733 6.095 6.095 0 00-5.079-2.733 4.773 4.773 0 00-4.384 2.385 5.515 5.515 0 00-4.192-1.93 4.342 4.342 0 00-3.917 2.065 4.94 4.94 0 00-3.643-1.617 3.961 3.961 0 00-3.61 2.005 3.02 3.02 0 00-1.81-.61 2.618 2.618 0 00-1.806.675v-6.02c0-1.726 10.04-5.078 28.441-5.078zM28.902 79.452v-2.709c0-.181.038-1.09.79-1.09a1.49 1.49 0 011.242 1.618v3.197h-1.016c-.56 0-1.016-.455-1.016-1.016zm8.126 3.048h-3.047a1.016 1.016 0 01-1.016-1.016v-5.079a2.018 2.018 0 012.144-2.144 2.937 2.937 0 012.935 2.934v4.289c0 .56-.455 1.016-1.016 1.016zm8.126 1.015h-4.063a1.016 1.016 0 01-1.016-1.015v-6.095a2.48 2.48 0 012.596-2.596 3.503 3.503 0 013.499 3.5v5.19c0 .561-.455 1.016-1.016 1.016zm9.142 1.016h-5.08c-.56 0-1.015-.455-1.015-1.016v-7.11a2.91 2.91 0 013.047-3.047 4.063 4.063 0 014.063 4.063v6.094c0 .561-.455 1.016-1.015 1.016zm10.157-1.016c0 .561-.455 1.016-1.016 1.016H58.36a1.016 1.016 0 01-1.016-1.016v-6.094a4.063 4.063 0 014.063-4.063 2.91 2.91 0 013.047 3.047v7.11zm8.126-1.015c0 .56-.455 1.015-1.016 1.015H67.5a1.016 1.016 0 01-1.016-1.015v-5.192a3.503 3.503 0 013.499-3.5 2.48 2.48 0 012.596 2.597V82.5zm7.11-1.016c0 .56-.455 1.016-1.015 1.016h-3.048c-.56 0-1.015-.455-1.015-1.016v-4.289a2.937 2.937 0 012.934-2.934 2.017 2.017 0 012.144 2.144v5.079zm4.063-2.032c0 .561-.455 1.016-1.016 1.016H81.72v-3.197a1.49 1.49 0 011.243-1.618c.752 0 .789.914.789 1.09v2.71z" fill="url(#paint0_linear)"/><path d="M86.411 27.833l.321-.834a1.016 1.016 0 00-1.897-.73l-.32.835a18.392 18.392 0 01-17.064 11.72H45.206a18.392 18.392 0 01-17.067-11.72l-.32-.834a1.017 1.017 0 00-1.897.73l.32.833a20.437 20.437 0 0018.962 13.022h22.244a20.436 20.436 0 0018.963-13.022z" fill="url(#paint1_linear)"/><path d="M50.233 55.074c.56 0 1.015-.454 1.015-1.015v-7.706l1.314 1.314a1.016 1.016 0 001.436-1.436l-3.047-3.048c-.01-.01-.022-.012-.03-.02a1.025 1.025 0 00-.3-.203c-.008 0-.018 0-.026-.007a1.008 1.008 0 00-.32-.062.93.93 0 00-.101.006.951.951 0 00-.25.049 1.01 1.01 0 00-.406.239L46.47 46.23a1.015 1.015 0 001.437 1.437l1.31-1.315v7.706c0 .56.455 1.015 1.016 1.015z" fill="url(#paint2_linear)"/><path d="M62.422 55.074c.56 0 1.016-.454 1.016-1.015v-7.706l1.313 1.314a1.016 1.016 0 001.436-1.436l-3.047-3.048c-.01-.01-.022-.012-.03-.02a1.023 1.023 0 00-.3-.203c-.008 0-.018 0-.026-.007a1.005 1.005 0 00-.32-.062.938.938 0 00-.102.006.955.955 0 00-.25.049 1.006 1.006 0 00-.406.239L58.66 46.23a1.016 1.016 0 001.437 1.437l1.31-1.315v7.706c0 .56.455 1.015 1.016 1.015z" fill="url(#paint3_linear)"/><path d="M76.642 57.106c.56 0 1.016-.455 1.016-1.016v-7.705l1.313 1.313a1.016 1.016 0 001.436-1.436l-3.047-3.047c-.01-.01-.021-.012-.03-.02a1.035 1.035 0 00-.3-.204c-.008 0-.017 0-.027-.006a1.024 1.024 0 00-.319-.063.926.926 0 00-.101.006.965.965 0 00-.251.05c-.033.01-.066.02-.101.033a1.02 1.02 0 00-.305.204l-3.047 3.047a1.015 1.015 0 001.436 1.436l1.311-1.313v7.705c0 .561.455 1.016 1.016 1.016z" fill="url(#paint4_linear)"/><path d="M34.997 57.106c.56 0 1.015-.455 1.015-1.016v-7.705l1.314 1.313a1.016 1.016 0 001.436-1.436l-3.047-3.047c-.01-.01-.022-.013-.03-.02a1.037 1.037 0 00-.3-.204c-.008 0-.018 0-.027-.006a.98.98 0 00-.671-.008.972.972 0 00-.406.236l-3.048 3.047a1.016 1.016 0 001.436 1.436l1.312-1.311v7.705c0 .561.454 1.016 1.016 1.016z" fill="url(#paint5_linear)"/></g></symbol><symbol id="icon-dentist"><g filter="url(#filter0_d)"><rect x="6" y="6" width="99.439" height="99.439" rx="10" fill="#fff"/></g><g clip-path="url(#clip0)"><path d="M85.008 69.663H59.486c.234-.546.494-1.098.798-1.665.348-.655.73-1.284 1.11-1.912a24.15 24.15 0 001.95-3.695c1.845-4.702 2.334-11.14-1.806-15.11-4.003-3.842-11.082-3.985-15.611-.476-4.531-3.51-11.612-3.365-15.611.475-4.144 3.97-3.654 10.409-1.807 15.111a24.176 24.176 0 001.954 3.697c.379.628.76 1.256 1.108 1.91.304.567.563 1.116.797 1.665h-6.232a1.015 1.015 0 100 2.03h6.943c.206.697.353 1.41.443 2.13a45.06 45.06 0 001.203 7.092c.475 1.76 1.358 5.035 4.288 5.035.853 0 3.451 0 5.152-12.202.33-2.335 1.266-2.591 1.76-2.657.493.065 1.433.319 1.764 2.655 1.7 12.204 4.298 12.204 5.153 12.204 2.93 0 3.813-3.276 4.285-5.027.587-2.332.99-4.705 1.206-7.1.088-.72.236-1.433.441-2.13h26.235a1.015 1.015 0 000-2.03zM55.166 80.38c-.461 1.71-1.058 3.534-2.326 3.534-.56-.066-2.065-2.707-3.147-10.455-.38-2.697-1.611-4.178-3.654-4.405a.863.863 0 00-.116.01.924.924 0 00-.121-.01c-2.043.227-3.273 1.709-3.654 4.407-1.08 7.742-2.585 10.386-3.142 10.455-1.269 0-1.867-1.827-2.329-3.54a43.057 43.057 0 01-1.144-6.785 18.224 18.224 0 00-2.178-6.547 42.617 42.617 0 00-1.164-2.007 22.536 22.536 0 01-1.793-3.388c-1.604-4.09-2.099-9.627 1.32-12.904 3.419-3.276 9.861-3.223 13.522.12.01.01.023.011.034.02.011.01.015.024.027.032.042.033 4.2 3.297 5.234 6.82a1.014 1.014 0 001.262.687 1.016 1.016 0 00.69-1.26c-.888-3.021-3.515-5.712-4.962-7.018 3.744-2.605 9.456-2.424 12.607.6 3.42 3.276 2.925 8.813 1.32 12.902a22.386 22.386 0 01-1.798 3.385c-.399.66-.8 1.32-1.165 2.009a18.177 18.177 0 00-2.177 6.546 44.144 44.144 0 01-1.146 6.792z" fill="url(#paint0_linear)"/><path d="M34.615 49.147a6.957 6.957 0 00-3.303 7.53 1.015 1.015 0 001.208.784 1.016 1.016 0 00.783-1.204 4.936 4.936 0 012.287-5.33 1.015 1.015 0 00-.975-1.78z" fill="url(#paint1_linear)"/><path d="M83.993 31.09H74.9l-22.469-1.954A5.075 5.075 0 0047.451 25h-2.03a5.081 5.081 0 00-5.075 5.076v7.105a2.03 2.03 0 002.03 2.03h3.045v3.045a1.015 1.015 0 000 2.03h2.03a1.015 1.015 0 100-2.03V39.21h3.045a2.03 2.03 0 002.03-2.03v-.717l22.076 5.76c.084.02.17.032.255.032h9.136a2.03 2.03 0 002.03-2.03V33.12a2.03 2.03 0 00-2.03-2.03zm-41.617 6.09v-7.104a3.045 3.045 0 013.045-3.046h2.03a3.045 3.045 0 013.045 3.046v7.105h-8.12zm10.15-5.997l21.317 1.853v6.891l-21.316-5.56v-3.184zm31.467 9.043h-8.12V33.12h8.12v7.105z" fill="url(#paint2_linear)"/></g></symbol><symbol id="icon-doctor"><path d="M35.713 38.628l-1.77-10.396a2.956 2.956 0 00-2.066-2.348l-4.773-1.446A5.336 5.336 0 0023.41 19.8a9.72 9.72 0 00.42-.5c1.135-1.448 1.742-3.044 1.897-4.133h.368c.958 0 1.737-.782 1.737-1.743v-.894c0-.641-.36-1.222-.9-1.524V8.857a.587.587 0 10-1.172 0v2.412a3.596 3.596 0 00-.86.263 2.56 2.56 0 00-.19.093V6.888a2.372 2.372 0 00-2.365-2.374H20.73c-.558 0-1.103.195-1.534.55l-.16.13a1.637 1.637 0 01-2.07 0l-.16-.13a2.425 2.425 0 00-1.533-.55h-1.617a2.372 2.372 0 00-2.365 2.374v4.737a3.022 3.022 0 00-.271-.13 3.598 3.598 0 00-.78-.226v-6.1a3.45 3.45 0 013.44-3.451h8.641a3.45 3.45 0 013.44 3.452v.924a.587.587 0 101.172 0V5.17c0-2.552-2.069-4.628-4.612-4.628h-8.64c-2.543 0-4.612 2.076-4.612 4.628v5.835c-.54.302-.9.883-.9 1.524v.894c0 .96.78 1.743 1.737 1.743h.368c.155 1.089.762 2.685 1.897 4.133.129.164.269.332.42.5a5.358 5.358 0 00-3.694 4.64l-4.773 1.445a2.956 2.956 0 00-2.066 2.348l-.719 4.221a.586.586 0 101.155.198l.718-4.221a1.788 1.788 0 011.25-1.421l4.415-1.337v1.163c-1.012.187-1.873.885-2.227 1.851a2.99 2.99 0 00-.174.798l-.427 5.496a1.49 1.49 0 001.484 1.61h.73a.587.587 0 000-1.176h-.73a.317.317 0 01-.316-.343l.427-5.495a1.81 1.81 0 01.105-.484c.247-.672.913-1.127 1.658-1.133h.11c.724 0 1.365.412 1.635 1.052.076.18.122.37.138.565l.426 5.495a.318.318 0 01-.316.343h-.73a.587.587 0 000 1.176h.73a1.49 1.49 0 001.484-1.61l-.426-5.496a2.902 2.902 0 00-2.41-2.653v-1.513l2.014-.61c.183.387.546 1.224 1.265 3.028a489.654 489.654 0 012.511 6.476 788.35 788.35 0 011.614 4.276.586.586 0 001.097 0 771.967 771.967 0 011.636-4.332 491.653 491.653 0 012.488-6.417c.72-1.806 1.084-2.643 1.267-3.031l2.013.61v3.472a3.044 3.044 0 00.58 6.026 3.044 3.044 0 00.592-6.024v-3.12l4.414 1.337a1.788 1.788 0 011.25 1.42l1.77 10.397a.576.576 0 01-.129.474.572.572 0 01-.444.208H2.015a.572.572 0 01-.444-.208.576.576 0 01-.13-.474l.585-3.431a.586.586 0 10-1.155-.198l-.584 3.43a1.76 1.76 0 001.728 2.056h31.97a1.76 1.76 0 001.728-2.055zm-9.946-26.162c.312-.078.563-.077.566-.077.1.002.199-.022.286-.068a.559.559 0 01.041.208v.894a.567.567 0 01-.565.567h-.328v-1.524zM10.233 13.99h-.328a.567.567 0 01-.566-.567v-.894a.56.56 0 01.042-.208c.087.046.185.07.286.068.005.001.255 0 .566.077v1.524zm1.171.66v-1.545a.823.823 0 001.057-.79V6.887c0-.66.535-1.198 1.194-1.198h1.616c.289 0 .57.1.793.284l.159.13c.5.41 1.13.636 1.777.636a2.81 2.81 0 001.777-.636l.159-.13c.223-.183.504-.284.792-.284h1.617c.658 0 1.194.537 1.194 1.198v5.426a.823.823 0 001.057.791v1.544c0 .858-.591 2.525-1.687 3.924a7.736 7.736 0 01-1.457 1.435c-.89.66-2.034 1.166-3.452 1.166-1.418 0-2.563-.506-3.453-1.166a7.737 7.737 0 01-1.456-1.435c-1.095-1.399-1.687-3.066-1.687-3.924zm10.433 9.496L18 27.024l-3.838-2.878a2.79 2.79 0 00.594-1.664v-.948A6.74 6.74 0 0018 22.35a6.74 6.74 0 003.244-.816v.948c0 .556.213 1.179.593 1.664zm-8.652-.656a1.597 1.597 0 00-1.03-.038l-2.024.612a4.168 4.168 0 013.454-3.293v1.71c0 .37-.164.75-.4 1.009zm1.59 4.719l-.004-.008-.088-.224-.015-.04-.085-.213-.006-.015a220.14 220.14 0 00-.268-.674l-.069-.17-.024-.062-.065-.161-.02-.047-.113-.281-.03-.075a40.6 40.6 0 01-.043-.105l-.046-.111-.017-.042-.013-.032-.193-.467-.001-.003a59.694 59.694 0 00-.095-.227l-.047-.11 3.3 2.475-1.379.588a.231.231 0 00-.007.003l-.576.246-.096-.245zm1.397 3.599a601.189 601.189 0 00-.873-2.26l.219-.093.893 1.042-.239 1.311zm1.84 4.778a.587.587 0 00-.06-.1c-.265-.701-.601-1.59-.973-2.567l.547-3.005h.948l.547 3.005c-.39 1.024-.74 1.95-1.01 2.667zm.682-6.847h-1.388l-.657-.766 1.35-.576 1.351.576-.656.766zm1.483 1.162l-.35.907-.238-1.311.893-1.042.219.093c-.167.43-.342.88-.524 1.353zm2.243-5.649l-.09.215-.012.029a68.952 68.952 0 00-.184.446l-.016.039-.02.048-.039.096-.048.119-.016.039a115.191 115.191 0 00-.21.52l-.026.063-.067.169-.02.048a180.454 180.454 0 00-.256.643l-.084.212-.015.04c-.03.073-.06.148-.089.224l-.002.004-.097.248-.576-.246-.006-.002-1.38-.589 3.3-2.475-.047.11zm1.425-1.8l-.002-.001a1.596 1.596 0 00-1.028.039c-.236-.258-.4-.64-.4-1.008V20.77a4.135 4.135 0 013.456 3.295l-2.026-.614zm4.546 8.323a1.865 1.865 0 01-1.86 1.866 1.865 1.865 0 01-1.86-1.866c0-1.029.835-1.866 1.86-1.866 1.026 0 1.86.837 1.86 1.866z" fill="url(#paint0_linear)"/></symbol><symbol id="icon-facebook"><path d="M5.478 0A5.466 5.466 0 000 5.478v19.044A5.466 5.466 0 005.478 30H15.8V18.272h-3.102v-4.223H15.8v-3.607c0-2.834 1.832-5.437 6.053-5.437 1.71 0 2.973.164 2.973.164l-.1 3.944S23.439 9.1 22.032 9.1c-1.522 0-1.766.702-1.766 1.866v3.083h4.582l-.2 4.223h-4.382V30h4.257A5.466 5.466 0 0030 24.522V5.478A5.466 5.466 0 0024.522 0H5.478z" fill="#fff"/></symbol><symbol id="icon-fb_menu"><path d="M9.652 0A9.285 9.285 0 00.346 9.305v32.351a9.285 9.285 0 009.306 9.306h17.534V31.039h-5.269v-7.173h5.268v-6.128c0-4.815 3.113-9.235 10.284-9.235 2.903 0 5.05.278 5.05.278l-.17 6.699s-2.189-.021-4.578-.021c-2.586 0-3 1.191-3 3.17v5.237h7.784l-.339 7.173h-7.445v19.923h7.231a9.285 9.285 0 009.306-9.306V9.306A9.285 9.285 0 0042.002 0H9.652z" fill="url(#paint0_linear)"/></symbol><symbol id="icon-form-close"><path d="M8.22.543L7.677 0 4.11 3.567.543 0 0 .543 3.567 4.11 0 7.677l.543.543L4.11 4.653 7.677 8.22l.543-.543L4.653 4.11 8.22.543z" fill="#fff"/></symbol><symbol id="icon-form-phone"><path d="M19.48 2.079l-.032-.021L15.27 0l-4.508 6.01 2.075 2.766a4.273 4.273 0 01-3.997 4.008h-.01L6.063 10.71l-6.01 4.508 2.058 4.177.02.033A1.21 1.21 0 003.16 20h1.082c8.733 0 15.812-7.08 15.812-15.812V3.106c0-.432-.226-.81-.567-1.024l-.005-.003zm-.97 2.109c0 7.867-6.402 14.269-14.27 14.269h-.872l-1.365-2.773 4.06-3.044 2.26 1.695h.258a5.815 5.815 0 005.808-5.806v-.257l-1.696-2.26 3.045-4.061 2.771 1.365v.872z" fill="#A3A3A3"/></symbol><symbol id="icon-implant"><g filter="url(#filter0_d)"><rect x="6.846" y="6" width="99.439" height="99.439" rx="10" fill="#fff"/></g><g clip-path="url(#clip0)"><path d="M32.613 56.17c2.014 1.74 6.07 3.996 13.957 5.05l1.51 7.341-1.592.521a3.045 3.045 0 101.892 5.788l.946-.305.44 2.126-1.422.463a3.047 3.047 0 001.893 5.788l.907-.296a5.997 5.997 0 0011.35-1.243l.551-2.649 2.561-.837a3.04 3.04 0 00-1.167-5.925l.527-2.544 2.75-.899a3.046 3.046 0 00-1.342-5.911l.291-1.421c7.887-1.054 11.943-3.312 13.957-5.05a7.898 7.898 0 002.526-4.265C84.9 44.232 84.2 34.1 79.474 29.574c-5.86-5.626-16.32-5.758-22.854-.448-6.536-5.31-16.994-5.178-22.859.456-4.727 4.526-5.426 14.657-3.674 22.327a7.9 7.9 0 002.526 4.262zm16.08 5.291c2.43.236 5.078.363 7.927.363 2.849 0 5.497-.127 7.927-.363l-.376 1.841-14.152 4.625-1.326-6.466zM60.51 80.993a3.987 3.987 0 01-3.89 3.17 3.946 3.946 0 01-3.518-2.154l7.718-2.524-.31 1.508zm4.613-6.873a1.015 1.015 0 01-.144 1.87l-13.437 4.394-1.929.632a1.016 1.016 0 11-.632-1.93l15.367-5.026a1.014 1.014 0 01.775.06zm-2.881-1.508l-10.534 3.442-.44-2.124 11.475-3.752-.501 2.434zm4.532-7.971a1.014 1.014 0 01.906 1.475c-.12.242-.333.424-.59.508l-19.34 6.319a1.015 1.015 0 01-.631-1.93l19.338-6.32c.102-.034.21-.052.317-.052zM35.166 31.047a14.58 14.58 0 0110.105-3.73 15.906 15.906 0 0110.662 3.9c.44.423 6.512 6.236 11.857 6.236a1.015 1.015 0 000-2.03c-3.568 0-7.846-3.374-9.619-4.919 5.722-4.402 14.907-4.249 19.903.543 4.136 3.96 4.683 13.47 3.098 20.41a5.881 5.881 0 01-1.872 3.176c-1.863 1.607-5.735 3.722-13.601 4.671a76.972 76.972 0 01-9.08.489 77.042 77.042 0 01-9.078-.49c-7.867-.948-11.738-3.064-13.601-4.67a5.881 5.881 0 01-1.873-3.176c-1.585-6.938-1.037-16.449 3.1-20.41z" fill="url(#paint0_linear)"/><path d="M35.044 46.508a1.015 1.015 0 00.98-1.283c-2.267-8.312 3.029-11.053 3.272-11.173a1.016 1.016 0 00-.883-1.828c-.071.033-7.078 3.528-4.348 13.535.12.442.52.748.979.749z" fill="url(#paint1_linear)"/><path d="M43.419 31.36a1.015 1.015 0 11-2.031 0 1.015 1.015 0 012.03 0z" fill="url(#paint2_linear)"/></g></symbol><symbol id="icon-insta"><path d="M29.903 8.855a10.845 10.845 0 00-.698-3.686A7.667 7.667 0 0024.82.79a11.021 11.021 0 00-3.642-.699C19.575.02 19.067 0 14.998 0c-4.068 0-4.59 0-6.18.091a11.021 11.021 0 00-3.64.699A7.676 7.676 0 00.79 5.17a10.884 10.884 0 00-.698 3.633C.022 10.405 0 10.912 0 14.973c0 4.062 0 4.58.093 6.17.025 1.245.26 2.472.698 3.638a7.665 7.665 0 004.388 4.377c1.162.455 2.393.708 3.64.749 1.605.071 2.113.093 6.181.093s4.59 0 6.18-.093a10.996 10.996 0 003.642-.697 7.689 7.689 0 004.387-4.38c.438-1.163.673-2.39.698-3.636.071-1.6.093-2.108.093-6.17-.003-4.062-.003-4.578-.097-6.17zM14.988 22.654c-4.254 0-7.701-3.441-7.701-7.689s3.447-7.689 7.701-7.689c2.043 0 4.002.81 5.446 2.252a7.682 7.682 0 010 10.874 7.708 7.708 0 01-5.446 2.252zm8.008-13.87a1.792 1.792 0 110-3.584 1.797 1.797 0 011.795 1.792c0 .991-.803 1.793-1.795 1.793z" fill="#fff"/><path d="M14.988 19.96a4.999 4.999 0 005.003-4.994 4.999 4.999 0 00-5.003-4.995 4.999 4.999 0 00-5.003 4.995 4.999 4.999 0 005.003 4.994z" fill="#fff"/></symbol><symbol id="icon-insta_menu"><path d="M50.836 15.041a18.42 18.42 0 00-1.186-6.26 13.023 13.023 0 00-7.45-7.439A18.722 18.722 0 0036.013.155C33.29.034 32.427 0 25.517 0c-6.911 0-7.797 0-10.5.155a18.722 18.722 0 00-6.183 1.187 13.04 13.04 0 00-7.451 7.439 18.49 18.49 0 00-1.186 6.173C.075 17.674.04 18.536.04 25.436c0 6.899 0 7.78.158 10.481a18.607 18.607 0 001.186 6.179 13.023 13.023 0 007.454 7.436 18.659 18.659 0 006.183 1.271c2.726.122 3.589.159 10.5.159 6.91 0 7.796 0 10.498-.159a18.677 18.677 0 006.187-1.183 13.062 13.062 0 007.45-7.44 18.583 18.583 0 001.187-6.178c.121-2.718.158-3.58.158-10.482-.006-6.899-.006-7.775-.164-10.479zM25.5 38.483c-7.228 0-13.083-5.846-13.083-13.062 0-7.215 5.855-13.06 13.083-13.06 3.47 0 6.797 1.375 9.25 3.825a13.05 13.05 0 013.832 9.235 13.05 13.05 0 01-3.831 9.236 13.094 13.094 0 01-9.251 3.826zm13.603-23.56a3.044 3.044 0 11-.001-6.09 3.054 3.054 0 012.817 1.88 3.045 3.045 0 01-2.816 4.21z" fill="url(#paint0_linear)"/><path d="M25.5 33.906c4.693 0 8.498-3.798 8.498-8.484 0-4.685-3.805-8.484-8.499-8.484-4.693 0-8.498 3.799-8.498 8.484 0 4.686 3.805 8.484 8.498 8.484z" fill="url(#paint1_linear)"/></symbol><symbol id="icon-location"><path d="M15 2.147c7.348 0 13.327 6 13.327 13.374 0 .389.314.704.701.704a.703.703 0 00.702-.704C29.73 7.371 23.122.74 15 .74S.27 7.37.27 15.52c0 5.19 1.37 10.292 3.961 14.75a29.46 29.46 0 0010.412 10.512.7.7 0 00.714 0 29.574 29.574 0 009.449-8.967 29.41 29.41 0 004.674-12.45.701.701 0 10-1.39-.183C27.007 27.469 22.125 34.979 15 39.356 6.769 34.301 1.673 25.208 1.673 15.521 1.673 8.147 7.652 2.147 15 2.147z" fill="url(#paint0_linear)"/><path d="M15 6.37c-5.028 0-9.118 4.106-9.118 9.151 0 .389.314.704.701.704a.703.703 0 00.701-.704c0-4.27 3.462-7.743 7.716-7.743s7.715 3.474 7.715 7.743c0 4.27-3.46 7.743-7.715 7.743a7.73 7.73 0 01-7.277-5.162.7.7 0 10-1.322.47 9.136 9.136 0 008.599 6.1c5.028 0 9.118-4.105 9.118-9.15 0-5.046-4.09-9.151-9.118-9.151z" fill="url(#paint1_linear)"/></symbol><symbol id="icon-phone"><path d="M34.98 27.621c-.083-.516-.407-.957-.891-1.219l-7.168-4.224-.059-.033c-.3-.15-.632-.228-.968-.225-.6 0-1.174.227-1.572.627l-2.116 2.117a1.24 1.24 0 01-.475.215c-.024-.002-2.461-.178-6.948-4.666-4.478-4.479-4.668-6.924-4.67-6.924a1.13 1.13 0 01.213-.51l1.804-1.804c.636-.637.826-1.694.45-2.512L8.594.964C8.305.368 7.743 0 7.12 0c-.441 0-.867.183-1.2.516L1 5.424c-.47.469-.876 1.289-.965 1.95-.043.315-.915 7.848 9.41 18.177C18.21 34.318 25.045 35 26.933 35c.23.002.46-.01.688-.036.658-.088 1.477-.493 1.945-.963l4.914-4.914c.4-.403.584-.936.5-1.466z" fill="url(#paint0_linear)"/></symbol><symbol id="icon-slider"><path d="M21 35.75H7v-5.5l-7 6.875L7 44v-5.5h14V44l7-6.875-7-6.875v5.5z" fill="url(#paint0_linear)"/><path d="M22.4 4.125h-7V0h-2.8v4.125h-7c-.743 0-1.455.29-1.98.805a2.725 2.725 0 00-.82 1.945v16.5c0 .73.295 1.429.82 1.945a2.826 2.826 0 001.98.805h7v4.125h2.8v-4.125h7c.743 0 1.455-.29 1.98-.805.525-.516.82-1.216.82-1.945v-16.5c0-.73-.295-1.429-.82-1.945a2.826 2.826 0 00-1.98-.805zM5.6 23.375v-16.5h7v16.5h-7z" fill="url(#paint1_linear)"/></symbol><symbol id="icon-surgery"><g filter="url(#filter0_d)"><rect x="6.9" y="6.369" width="99.439" height="99.439" rx="10" fill="#fff"/></g><g clip-path="url(#clip0)"><path d="M81.39 30.37a6.765 6.765 0 00-6.234-4.66c-2.962.095-4.809 2.66-5.55 5.029a11.157 11.157 0 00-.375 1.941 16.24 16.24 0 01-.148.98c-.018.102-.044.19-.064.286-9.37-.03-14.065 8.465-14.927 10.225a6.572 6.572 0 00-.64 3.34l-1.743 2.07-1.117 1.319c-4.219-.76-12.437.32-23.71 13.692a3.13 3.13 0 004.788 4.034 73.632 73.632 0 011.948-2.211l.01-.009v-.008c10.554-11.46 16.45-9.18 16.464-9.18a3.135 3.135 0 003.946-.7l2.402-2.85.71.406.052.032.433.248-2.56 3.035a3.101 3.101 0 00-.083 3.927c.037.057 3.343 5.478-6.203 17.863h-.007v.01a68.672 68.672 0 01-1.85 2.295 3.13 3.13 0 004.785 4.035c11.264-13.362 10.942-21.64 9.477-25.673l1.117-1.326 1.726-2.051a6.493 6.493 0 003.198-1.219 19.947 19.947 0 006.493-7.966 4.931 4.931 0 001.736-.823 19.382 19.382 0 002.57-2.127 6.53 6.53 0 012.206-1.272c.305-.116.624-.212.938-.305a11.223 11.223 0 001.848-.697c2.208-1.132 4.424-3.386 4.018-6.318a6.744 6.744 0 00-5.653-5.373zM66.783 42.6c.286.252.656.388 1.037.382.71 0 1.772-.406 3.435-1.667a18.208 18.208 0 01-3.167 4.671 2.97 2.97 0 01-3.568.394l-.82-.47-.048-.03-2.616-1.506c.978-2.176 3.584-4.52 5.912-6.268-.143.266-.277.537-.399.812-.343.758-1.147 2.52.234 3.683zm-.839-6.285c-2.437 1.797-5.506 4.467-6.757 7.225a3.548 3.548 0 00-2.802.647c1.215-2.125 4.311-6.573 9.56-7.872zM29.367 67.709a1.071 1.071 0 01-.803-.253 1.1 1.1 0 01-.131-1.549c.43-.507.854-.996 1.274-1.47l1.677 1.417c-.419.471-.842.957-1.274 1.47a1.09 1.09 0 01-.743.385zm3.396-3.35l-1.683-1.42c4.863-5.154 8.981-7.793 12.24-9.075l.803 2.066c-2.933 1.145-6.748 3.561-11.36 8.428zm23.863-5.655l2.797-3.32.756.433c.012.007.026.009.04.016.012.007.011.011.02.015.416.19.851.337 1.297.44l-2.287 2.716a1.016 1.016 0 00-.155 1.058c.686 1.726.93 3.596.711 5.44l-2.196-.447a7.96 7.96 0 00-.931-4.856.98.98 0 00-.061-.083 1.101 1.101 0 01.01-1.417l-.001.005zm-3.992 22.405l-1.682-1.422c4.015-5.368 5.757-9.538 6.384-12.621l2.171.441c-.706 3.431-2.62 7.938-6.873 13.602zm-3.223 3.497a1.1 1.1 0 01-.934-1.802c.431-.508.84-1.016 1.233-1.504l1.678 1.416c-.395.494-.8.993-1.231 1.504a1.088 1.088 0 01-.746.386zm16.639-31a4.566 4.566 0 01-2.59.868h-.007a5.507 5.507 0 01-2.3-.44l-2.908-1.665-.044-.027-1.483-.852c-.033-.018-.071-.02-.101-.035a.976.976 0 00-.761-.02.935.935 0 00-.332.211.844.844 0 00-.09.07l-2.944 3.499a1.104 1.104 0 01-1.387.245.84.84 0 00-.093-.046 7.958 7.958 0 00-4.945-.102l-.812-2.089a11.139 11.139 0 015.483-.215c.374.09.767-.038 1.016-.332l5.598-6.641a1.524 1.524 0 011.915-.338l3.336 1.913.048.03.863.493a5.004 5.004 0 006.009-.71 19.869 19.869 0 003.426-4.94c-.64 6.397-6.155 10.587-6.897 11.123zM82.1 40.244c-.49.232-1 .42-1.523.565-.353.11-.705.219-1.045.346a8.507 8.507 0 00-2.885 1.693 20.314 20.314 0 01-2.006 1.691c.51-2.15.515-4.389.016-6.541a1.016 1.016 0 00-.943-.786 1.042 1.042 0 00-.906.5c-.468.157-.898.41-1.265.741a12.309 12.309 0 01-3.507 2.45c.047-.406.171-.798.368-1.157.424-.903.926-1.768 1.498-2.587a8.532 8.532 0 001.178-3.123c.07-.363.118-.727.166-1.092a9.49 9.49 0 01.304-1.599c.508-1.625 1.776-3.545 3.68-3.606a4.703 4.703 0 014.36 3.757c0 .014.01.022.013.036.002.013 0 .03 0 .045a6.965 6.965 0 01-.036 3.591 1.016 1.016 0 001.873.788 7.278 7.278 0 00.367-3.402 4.648 4.648 0 013.23 3.46c.256 1.88-1.421 3.454-2.937 4.23z" fill="url(#paint0_linear)"/><path d="M61.644 50.068a1.015 1.015 0 11-2.031 0 1.015 1.015 0 012.03 0z" fill="url(#paint1_linear)"/><path d="M77.196 29.812a3.859 3.859 0 00-3.218.323 3.07 3.07 0 00-1.164 2.671 1.015 1.015 0 102.03 0c-.042-.37.074-.742.32-1.022.442-.19.941-.206 1.396-.044a1.016 1.016 0 00.636-1.93v.002z" fill="url(#paint2_linear)"/></g></symbol><symbol id="icon-user"><path d="M19.268 17.33a9.977 9.977 0 00-2.143-3.189 9.988 9.988 0 00-3.178-2.15l-.032-.013a6.608 6.608 0 002.734-5.362C16.649 2.96 13.697 0 10.053 0S3.457 2.961 3.457 6.616a6.617 6.617 0 002.734 5.364c-.01.006-.021.008-.032.014a9.902 9.902 0 00-3.178 2.15 10.022 10.022 0 00-2.928 6.872.214.214 0 00.213.219h1.596c.117 0 .21-.094.212-.209a7.965 7.965 0 012.335-5.45 7.914 7.914 0 015.644-2.344c2.133 0 4.136.832 5.644 2.345a7.964 7.964 0 012.335 5.45.21.21 0 00.212.208h1.596a.212.212 0 00.198-.136.215.215 0 00.015-.083 9.967 9.967 0 00-.785-3.687zm-9.215-6.126c-1.22 0-2.37-.477-3.234-1.344a4.566 4.566 0 01-1.34-3.244c0-1.225.476-2.377 1.34-3.244a4.538 4.538 0 013.234-1.345c1.22 0 2.37.478 3.234 1.345a4.565 4.565 0 011.34 3.244 4.565 4.565 0 01-1.34 3.244 4.538 4.538 0 01-3.234 1.344z" fill="#A3A3A3"/></symbol><symbol id="icon-vk"><path d="M19.61 0h-9.204C1.998 0 0 2 0 10.39v9.204C0 28 1.984 30 10.39 30h9.204C28 30 30 28.015 30 19.61v-9.204C30 1.998 28.015 0 19.61 0zm4.609 21.405H22.03c-.828 0-1.077-.67-2.562-2.155-1.296-1.25-1.843-1.406-2.171-1.406-.454 0-.578.124-.578.75v1.968c0 .532-.172.845-1.563.845a8.538 8.538 0 01-6.672-4.001 17.439 17.439 0 01-3.453-7.25c0-.328.125-.625.75-.625h2.187c.563 0 .765.25.986.828 1.061 3.126 2.873 5.844 3.608 5.844.283 0 .405-.125.405-.828v-3.219c-.093-1.469-.873-1.593-.873-2.124a.54.54 0 01.562-.501h3.437c.47 0 .626.234.626.796v4.345c0 .469.203.625.343.625.282 0 .5-.156 1.016-.672a17.999 17.999 0 002.688-4.47.942.942 0 01.953-.624h2.188c.655 0 .795.329.655.796a27.312 27.312 0 01-2.937 5.048c-.235.36-.33.547 0 .969.218.328.985.969 1.5 1.578a9.729 9.729 0 011.844 2.562c.188.609-.126.922-.75.922v-.001z" fill="#fff"/></symbol><symbol id="icon-vk_menu"><path d="M34.003 0H18.368C4.09 0 .692 3.397.692 17.65v15.636c0 14.276 3.371 17.675 17.65 17.675h15.636c14.277 0 17.676-3.37 17.676-17.65V17.676C51.654 3.396 48.283 0 34.004 0zm7.83 36.361h-3.717c-1.407 0-1.83-1.139-4.352-3.662-2.202-2.122-3.132-2.387-3.69-2.387-.77 0-.98.211-.98 1.274v3.343c0 .905-.294 1.435-2.656 1.435a14.503 14.503 0 01-11.334-6.796A29.625 29.625 0 019.24 17.253c0-.558.211-1.063 1.274-1.063h3.715c.955 0 1.3.426 1.674 1.407 1.804 5.31 4.882 9.927 6.13 9.927.48 0 .689-.211.689-1.406V20.65c-.159-2.495-1.483-2.706-1.483-3.608a.917.917 0 01.953-.852h5.84c.797 0 1.062.398 1.062 1.354v7.379c0 .797.344 1.062.584 1.062.479 0 .848-.265 1.725-1.141a30.571 30.571 0 004.566-7.594 1.6 1.6 0 011.618-1.06h3.718c1.113 0 1.35.558 1.113 1.354a46.394 46.394 0 01-4.989 8.574c-.4.611-.56.93 0 1.646.37.558 1.672 1.646 2.548 2.68a16.528 16.528 0 013.132 4.353c.318 1.034-.214 1.567-1.274 1.567v-.003z" fill="url(#paint0_linear)"/></symbol><symbol id="icon-whatsup"><path d="M30 6.825a18.922 18.922 0 00-.15-1.935 6.437 6.437 0 00-.555-1.62 5.49 5.49 0 00-1.065-1.5 5.866 5.866 0 00-1.5-1.065 6.42 6.42 0 00-1.62-.54A15.315 15.315 0 0023.19 0H6.825C6.178.017 5.532.067 4.89.15a6.435 6.435 0 00-1.62.555 5.49 5.49 0 00-1.5 1.065c-.432.44-.791.947-1.065 1.5a6.42 6.42 0 00-.54 1.62A15.43 15.43 0 000 6.81v16.365c.017.647.067 1.293.15 1.935.112.562.299 1.107.555 1.62a5.49 5.49 0 001.065 1.5c.44.432.947.791 1.5 1.065a6.423 6.423 0 001.62.54c.636.095 1.277.15 1.92.165h16.365a18.923 18.923 0 001.935-.15 6.437 6.437 0 001.62-.555 5.49 5.49 0 001.5-1.065c.432-.44.791-.947 1.065-1.5a6.423 6.423 0 00.54-1.62c.095-.636.15-1.277.165-1.92V6.825zM15.345 25.5a10.68 10.68 0 01-5.145-1.35l-5.7 1.5L6 20.07a10.665 10.665 0 01-1.5-5.37 10.77 10.77 0 1110.845 10.8zm0-19.695A9 9 0 007.77 19.5l.21.345-.9 3.285 3.42-.93.33.195a9 9 0 004.5 1.245 9 9 0 000-18l.015.165zm5.25 12.78a2.73 2.73 0 01-1.815 1.275 3.495 3.495 0 01-1.68-.105 13.37 13.37 0 01-1.5-.57 12 12 0 01-4.59-4.05 5.22 5.22 0 01-1.095-2.775 3 3 0 01.945-2.25.975.975 0 01.72-.33H12c.165 0 .39 0 .6.465.21.465.765 1.86.84 1.995a.51.51 0 010 .465 1.71 1.71 0 01-.27.45c-.135.165-.285.36-.405.48-.12.12-.27.27-.12.54a8.339 8.339 0 001.5 1.86 7.502 7.502 0 002.16 1.335c.27.135.435.12.585 0 .15-.12.675-.78.855-1.05.18-.27.36-.225.6-.135s1.575.735 1.845.87.435.195.51.315a2.34 2.34 0 01-.105 1.17v.045z" fill="#fff"/></symbol><symbol id="icon-whatsup_menu"><path d="M50.962 11.594a32.13 32.13 0 00-.255-3.287 10.94 10.94 0 00-.943-2.752 9.327 9.327 0 00-1.81-2.548 9.963 9.963 0 00-2.547-1.81A10.907 10.907 0 0042.655.28 26.016 26.016 0 0039.393 0h-27.8a32.13 32.13 0 00-3.286.255 10.9 10.9 0 00-2.752.943 9.326 9.326 0 00-2.548 1.809 9.963 9.963 0 00-1.81 2.548A10.906 10.906 0 00.28 8.307 26.016 26.016 0 000 11.568v27.8c.029 1.1.114 2.196.255 3.287.19.955.507 1.88.943 2.752a9.326 9.326 0 001.809 2.548 9.965 9.965 0 002.548 1.809c.872.427 1.798.735 2.752.917 1.08.162 2.17.256 3.261.28h27.8a32.13 32.13 0 003.287-.254c.955-.19 1.88-.508 2.752-.943a9.327 9.327 0 002.548-1.81 9.965 9.965 0 001.809-2.547 10.91 10.91 0 00.917-2.752c.162-1.08.256-2.17.28-3.262V11.594zM26.067 43.317a18.142 18.142 0 01-8.74-2.293l-9.683 2.548 2.548-9.479a18.117 18.117 0 01-2.548-9.122 18.296 18.296 0 1118.423 18.346zm0-33.456a15.288 15.288 0 00-12.868 23.264l.357.586-1.53 5.58 5.81-1.58.561.332a15.29 15.29 0 007.644 2.115 15.289 15.289 0 000-30.577l.026.28zm8.918 21.71a4.638 4.638 0 01-3.083 2.165 5.937 5.937 0 01-2.854-.178 22.675 22.675 0 01-2.548-.968 20.385 20.385 0 01-7.797-6.88 8.867 8.867 0 01-1.86-4.714 5.096 5.096 0 011.605-3.822 1.657 1.657 0 011.223-.56h.714c.28 0 .662 0 1.019.79.357.79 1.3 3.159 1.427 3.388a.865.865 0 010 .79 2.904 2.904 0 01-.459.765c-.23.28-.484.611-.688.815-.204.204-.459.459-.204.917a14.165 14.165 0 002.548 3.16 12.74 12.74 0 003.67 2.268c.458.229.738.204.993 0s1.147-1.325 1.453-1.784c.306-.459.611-.382 1.019-.23.408.154 2.675 1.25 3.134 1.479.459.229.739.33.866.535.11.667.05 1.35-.178 1.987v.077z" fill="url(#paint0_linear)"/></symbol></svg>