<svg width="112" height="112" viewBox="0 0 112 112" fill="none" xmlns="http://www.w3.org/2000/svg">
<g filter="url(#filter0_d)">
<rect x="6.25385" y="6.36902" width="99.4385" height="99.4385" rx="10" fill="white"/>
</g>
<g clip-path="url(#clip0)">
<path d="M80.9612 40.747C64.3493 38.9819 47.5969 38.9819 30.9849 40.747C27.8719 41.0646 25.5033 43.6848 25.5 46.8141V66.2936C25.5084 68.7608 27.5143 70.7547 29.9815 70.7477H37.2706C38.2526 70.7444 39.2054 70.4171 39.9819 69.8163C40.5956 71.5786 42.2561 72.7601 44.1221 72.7629H52.5875C53.9006 72.7592 55.1431 72.1668 55.9731 71.149C56.8031 72.1668 58.0455 72.7592 59.3586 72.7629H67.8241C69.6896 72.7606 71.35 71.5791 71.9643 69.8172C72.7408 70.418 73.694 70.7454 74.6756 70.7486H81.9646C84.4323 70.7556 86.4382 68.7613 86.4461 66.2936V46.8141C86.4429 43.6848 84.0743 41.0646 80.9612 40.747ZM70.1936 57.5082V60.2182C69.2302 60.2712 68.2147 60.3191 67.1466 60.3614V58.5424C67.1466 57.4204 66.2371 56.5109 65.1151 56.5109H62.0676C60.9456 56.5109 60.0361 57.4204 60.0361 58.5424V60.5474C59.054 60.5595 58.0362 60.5678 56.9891 60.5706V57.7979C57.0123 53.7047 60.3444 50.4024 64.4376 50.4163C68.9819 50.4163 70.1936 54.0995 70.1936 56.276V57.5082ZM78.9111 50.8832H79.1143C80.5134 50.7809 81.8903 51.2775 82.9011 52.2498C83.9125 53.2225 84.4625 54.5784 84.4146 55.9803V58.733C83.9557 58.8218 83.2843 58.9362 82.3831 59.0757V57.5264C82.3831 56.4044 81.4736 55.4949 80.3516 55.4949H77.3041C76.1821 55.4949 75.2726 56.4044 75.2726 57.5264V59.8741C74.3306 59.9526 73.3151 60.0275 72.2256 60.0987V57.5082C72.2465 53.8344 75.2373 50.8711 78.9111 50.8832ZM80.3516 63.6209H77.3041V61.7419C78.4438 61.6322 79.4598 61.522 80.3516 61.4118V63.6209ZM77.3041 59.6899V57.5264H80.3516V59.3547C79.4668 59.4635 78.455 59.5783 77.3041 59.6899ZM65.1151 64.6369H62.0676V62.5463C63.1222 62.5263 64.141 62.5008 65.1151 62.4701V64.6369ZM62.0676 60.513V58.5424H65.1151V60.4348C64.141 60.466 63.1231 60.4916 62.0676 60.513ZM54.9571 60.5739C53.9099 60.5739 52.8921 60.5627 51.9101 60.5506V58.5424C51.9101 57.4204 51.0006 56.5109 49.8786 56.5109H46.8311C45.7091 56.5109 44.7996 57.4204 44.7996 58.5424V60.3614C43.7324 60.3191 42.7164 60.2712 41.7525 60.2182V56.276C41.7525 54.0995 42.9643 50.4163 47.5085 50.4163C51.6018 50.4024 54.9338 53.7047 54.9571 57.7979V60.5739ZM49.8786 64.6369H46.8311V62.4701C47.8061 62.5008 48.8249 62.5263 49.8786 62.5463V64.6369ZM46.8311 60.4348V58.5424H49.8786V60.513C48.824 60.4916 47.8061 60.466 46.8311 60.4348ZM39.7206 60.0987C38.6297 60.0275 37.6142 59.9526 36.6735 59.8741V57.5264C36.6735 56.4044 35.764 55.4949 34.642 55.4949H31.5945C30.4725 55.4949 29.563 56.4044 29.563 57.5264V59.0757C28.6619 58.9395 27.9904 58.8218 27.5315 58.733V55.9803C27.4836 54.5779 28.0342 53.2206 29.0464 52.2484C30.0582 51.2756 31.436 50.7795 32.836 50.8832H33.0392C36.7112 50.8734 39.6996 53.8358 39.7206 57.5082V60.0987ZM34.642 63.6209H31.5945V61.4118C32.4859 61.5201 33.5014 61.6303 34.642 61.7419V63.6209ZM31.5945 59.3547V57.5264H34.642V59.6899C33.4912 59.5783 32.4794 59.4635 31.5945 59.3547ZM37.2706 68.718H29.9815C28.6354 68.725 27.5389 67.6397 27.5315 66.2936V60.8082C28.0393 60.904 28.714 61.0179 29.563 61.1425V63.6209C29.563 64.7429 30.4725 65.6529 31.5945 65.6529H34.642C35.764 65.6529 36.6735 64.7429 36.6735 63.6209V61.9218C37.6193 61.9981 38.6297 62.073 39.7206 62.1423V66.2936C39.7122 67.6388 38.6158 68.7231 37.2706 68.7162V68.718ZM52.5875 70.7314H44.1221C42.8211 70.737 41.7614 69.6889 41.7525 68.3879V62.259C42.7174 62.3096 43.7329 62.3566 44.7996 62.3989V64.6369C44.7996 65.7589 45.7091 66.6684 46.8311 66.6684H49.8786C51.0006 66.6684 51.9101 65.7589 51.9101 64.6369V62.5798C52.8912 62.5924 53.9109 62.5993 54.9571 62.6021V68.3921C54.9459 69.6912 53.8867 70.737 52.5875 70.7314ZM70.1936 68.3879C70.1848 69.6889 69.1251 70.737 67.8241 70.7314H59.3586C58.0576 70.737 56.9979 69.6889 56.9891 68.3879V62.6054C58.0353 62.6054 59.055 62.5951 60.0361 62.5831V64.6369C60.0361 65.7589 60.9456 66.6684 62.0676 66.6684H65.1151C66.2371 66.6684 67.1466 65.7589 67.1466 64.6369V62.4022C68.2147 62.3608 69.2302 62.3143 70.1936 62.2622V68.3911V68.3879ZM81.9646 68.7162H74.6756C73.3304 68.7231 72.234 67.6388 72.2256 66.2936V62.1423C73.3164 62.073 74.3269 61.9981 75.2726 61.9218V63.6209C75.2726 64.7429 76.1821 65.6529 77.3041 65.6529H80.3516C81.4736 65.6529 82.3831 64.7429 82.3831 63.6209V61.1384C83.2322 61.0137 83.9069 60.8998 84.4146 60.8045V66.2894C84.4118 66.9362 84.1519 67.5551 83.6925 68.0103C83.2327 68.4655 82.6114 68.7194 81.9646 68.7162ZM79.1092 48.8517H78.906C75.9222 48.8517 73.1449 50.3763 71.5439 52.8947C70.3722 50.0336 67.5209 48.2249 64.4334 48.3844C60.8596 48.3862 57.5898 50.3949 55.9731 53.5824C54.3559 50.394 51.0838 48.3848 47.5085 48.3844C44.4211 48.2249 41.5698 50.0336 40.3985 52.8947C38.7971 50.3763 36.0202 48.8517 33.036 48.8517H32.8328C30.864 48.7735 28.9488 49.5036 27.5315 50.872V46.809C27.5394 44.7208 29.1236 42.9761 31.2016 42.7674C33.5307 42.5195 35.8658 42.3154 38.2033 42.1378C38.3535 42.2331 38.5269 42.2856 38.705 42.2898C39.1458 42.2898 39.7206 44.2604 39.7206 46.3528C39.7206 46.9141 40.1758 47.3688 40.7365 47.3688C41.2973 47.3688 41.7525 46.9141 41.7525 46.3528C41.773 44.85 41.5038 43.357 40.9588 41.956C45.6189 41.6565 50.2849 41.4938 54.9571 41.4682V47.3688C54.9571 47.9296 55.4123 48.3844 55.9731 48.3844C56.5338 48.3844 56.9891 47.9296 56.9891 47.3688V41.4682C61.6612 41.4887 66.3273 41.6509 70.9874 41.956C70.4429 43.357 70.1732 44.85 70.1936 46.3528C70.1936 46.9141 70.6488 47.3688 71.2096 47.3688C71.7704 47.3688 72.2256 46.9141 72.2256 46.3528C72.2256 44.2604 72.8003 42.2898 73.2411 42.2898C73.4192 42.2856 73.5922 42.2331 73.7428 42.1387C76.0794 42.3163 78.4154 42.5195 80.7455 42.7674C82.8249 42.9766 84.4095 44.7245 84.4146 46.8141V50.8771C82.9969 49.5059 81.0803 48.774 79.1092 48.8517Z" fill="url(#paint0_linear)"/>
</g>
<defs>
<filter id="filter0_d" x="0.253845" y="0.369019" width="111.438" height="111.438" filterUnits="userSpaceOnUse" color-interpolation-filters="sRGB">
<feFlood flood-opacity="0" result="BackgroundImageFix"/>
<feColorMatrix in="SourceAlpha" type="matrix" values="0 0 0 0 0 0 0 0 0 0 0 0 0 0 0 0 0 0 127 0"/>
<feOffset/>
<feGaussianBlur stdDeviation="3"/>
<feColorMatrix type="matrix" values="0 0 0 0 0 0 0 0 0 0 0 0 0 0 0 0 0 0 0.15 0"/>
<feBlend mode="normal" in2="BackgroundImageFix" result="effect1_dropShadow"/>
<feBlend mode="normal" in="SourceGraphic" in2="effect1_dropShadow" result="shape"/>
</filter>
<linearGradient id="paint0_linear" x1="55.9731" y1="39.4232" x2="55.9731" y2="72.7629" gradientUnits="userSpaceOnUse">
<stop stop-color="#18BBEB"/>
<stop offset="1" stop-color="#0170B0"/>
</linearGradient>
<clipPath id="clip0">
<rect width="60.9461" height="60.9461" fill="white" transform="translate(25.5 25.6151)"/>
</clipPath>
</defs>
</svg>
