<svg width="52" height="51" fill="none" xmlns="http://www.w3.org/2000/svg"><path d="M34.003 0H18.368C4.09 0 .692 3.397.692 17.65v15.636c0 14.276 3.371 17.675 17.65 17.675h15.636c14.277 0 17.676-3.37 17.676-17.65V17.676C51.654 3.396 48.283 0 34.004 0zm7.83 36.361h-3.717c-1.407 0-1.83-1.139-4.352-3.662-2.202-2.122-3.132-2.387-3.69-2.387-.77 0-.98.211-.98 1.274v3.343c0 .905-.294 1.435-2.656 1.435a14.503 14.503 0 01-11.334-6.796A29.625 29.625 0 019.24 17.253c0-.558.211-1.063 1.274-1.063h3.715c.955 0 1.3.426 1.674 1.407 1.804 5.31 4.882 9.927 6.13 9.927.48 0 .689-.211.689-1.406V20.65c-.159-2.495-1.483-2.706-1.483-3.608a.917.917 0 01.953-.852h5.84c.797 0 1.062.398 1.062 1.354v7.379c0 .797.344 1.062.584 1.062.479 0 .848-.265 1.725-1.141a30.571 30.571 0 004.566-7.594 1.6 1.6 0 011.618-1.06h3.718c1.113 0 1.35.558 1.113 1.354a46.394 46.394 0 01-4.989 8.574c-.4.611-.56.93 0 1.646.37.558 1.672 1.646 2.548 2.68a16.528 16.528 0 013.132 4.353c.318 1.034-.214 1.567-1.274 1.567v-.003z" fill="url(#paint0_linear)"/><defs><linearGradient id="paint0_linear" x1="10.099" y1="85.998" x2="-42.625" y2="30.505" gradientUnits="userSpaceOnUse"><stop stop-color="#0170B0"/><stop offset="1" stop-color="#18BBEB"/></linearGradient></defs></svg>