<svg width="21" height="20" viewBox="0 0 21 20" fill="none" xmlns="http://www.w3.org/2000/svg">
<path d="M19.4809 2.07851L19.4479 2.05793L15.2714 0L10.7635 6.01019L12.8379 8.77605C12.7752 9.81658 12.3343 10.7983 11.5983 11.5364C10.8622 12.2746 9.88172 12.7182 8.84137 12.7839L8.82902 12.7849L6.06317 10.7105L0.0529785 15.2184L2.11091 19.395L2.13149 19.4279C2.3486 19.7736 2.72726 20 3.15943 20H4.24087C12.9737 20 20.053 12.9207 20.053 4.18789V3.11056V3.10645C20.053 2.67428 19.8266 2.29562 19.486 2.0816L19.4809 2.07851ZM18.5095 4.18789C18.5095 12.0554 12.1083 18.4566 4.24087 18.4566H3.3683L2.00287 15.6845L6.06317 12.6398L8.3238 14.3355H8.58104C10.1205 14.3336 11.5964 13.7213 12.6851 12.6328C13.7738 11.5444 14.3863 10.0686 14.3885 8.52909V8.27185L12.6928 6.01122L15.7375 1.95092L18.5095 3.31636V4.18789Z" fill="#A3A3A3"/>
</svg>
