<svg width="112" height="112" viewBox="0 0 112 112" fill="none" xmlns="http://www.w3.org/2000/svg">
<g filter="url(#filter0_d)">
<rect x="6" y="6" width="99.4385" height="99.4385" rx="10" fill="white"/>
</g>
<g clip-path="url(#clip0)">
<path d="M85.0085 69.6626H59.4848C59.7191 69.1174 59.9789 68.5652 60.2826 67.9978C60.6308 67.3431 61.0125 66.7139 61.3933 66.0856C62.1486 64.9126 62.801 63.6763 63.3429 62.3905C65.1876 57.6887 65.6775 51.2503 61.5373 47.2817C57.5338 43.4387 50.4548 43.2956 45.9255 46.8046C41.3947 43.2956 34.3144 43.4397 30.315 47.2803C26.1707 51.2503 26.661 57.6887 28.5081 62.3914C29.0514 63.6777 29.7047 64.915 30.4615 66.0884C30.8408 66.7158 31.2225 67.344 31.5697 67.9978C31.8744 68.5652 32.1333 69.1141 32.3667 69.6626H26.1352C25.5745 69.6626 25.1201 70.117 25.1201 70.6773C25.1201 71.238 25.5745 71.6925 26.1352 71.6925H33.0781C33.2836 72.3897 33.4315 73.1026 33.5207 73.8239C33.7324 76.2162 34.1349 78.5876 34.7244 80.9151C35.1987 82.6744 36.0816 85.95 39.0119 85.95C39.8646 85.95 42.4633 85.95 44.1644 73.7479C44.4946 71.4133 45.4304 71.1568 45.9245 71.0906C46.4168 71.1558 47.3569 71.4095 47.688 73.746C49.3872 85.95 51.9864 85.95 52.8414 85.95C55.7708 85.95 56.6537 82.6744 57.1256 80.9227C57.7133 78.5914 58.1162 76.2176 58.3316 73.823C58.4205 73.1021 58.5683 72.3897 58.7733 71.6925H85.0085C85.5688 71.6925 86.0232 71.238 86.0232 70.6773C86.0232 70.117 85.5688 69.6626 85.0085 69.6626ZM55.1656 80.3813C54.705 82.0909 54.1079 83.9149 52.84 83.9149C52.2797 83.8487 50.7747 81.2076 49.6933 73.4597C49.3121 70.7628 48.0815 69.2818 46.0393 69.0546C46.0001 69.0555 45.9614 69.0593 45.9226 69.0655C45.8825 69.0593 45.8423 69.0555 45.8017 69.0546C43.7586 69.2818 42.5294 70.7637 42.1477 73.4616C41.0687 81.2038 39.5632 83.8478 39.0062 83.9168C37.7374 83.9168 37.1393 82.09 36.6773 80.3761C36.1156 78.1488 35.7325 75.8803 35.5327 73.5915C35.2304 71.2905 34.4915 69.0683 33.3554 67.0445C32.9898 66.3586 32.5901 65.6977 32.1909 65.0378C31.4984 63.9617 30.8984 62.8279 30.3982 61.6497C28.7944 57.5602 28.2993 52.0227 31.7181 48.7461C35.1368 45.4696 41.5794 45.5234 45.2396 48.8661C45.2495 48.8751 45.2627 48.877 45.274 48.8864C45.2854 48.8954 45.2892 48.9096 45.3014 48.9176C45.343 48.9512 49.5006 52.2145 50.5352 55.7381C50.6622 56.1708 51.06 56.468 51.5116 56.4666C51.608 56.467 51.7043 56.4529 51.7969 56.425C52.0553 56.3494 52.2731 56.1742 52.4026 55.938C52.5315 55.7018 52.5618 55.424 52.4862 55.1656C51.599 52.1436 48.972 49.4529 47.5255 48.1471C51.2688 45.5419 56.9815 45.7233 60.1324 48.7471C63.5521 52.0227 63.0566 57.5602 61.4518 61.6488C60.9506 62.8265 60.3493 63.9588 59.6544 65.034C59.2552 65.6935 58.8546 66.3534 58.4889 67.0427C57.3519 69.0655 56.6131 71.2876 56.3117 73.5887C56.1071 75.8794 55.724 78.1507 55.1656 80.3813Z" fill="url(#paint0_linear)"/>
<path d="M34.6148 49.1472C31.9896 50.6683 30.6532 53.7153 31.3117 56.6768C31.4114 57.1473 31.8276 57.4836 32.3085 57.4818C32.3794 57.4818 32.4502 57.4747 32.5197 57.4605C32.7833 57.4048 33.0143 57.247 33.1612 57.0212C33.3081 56.7954 33.3591 56.5204 33.3034 56.2568C32.8315 54.1721 33.7545 52.0208 35.5903 50.9267C36.0636 50.6485 36.2304 50.0448 35.9663 49.5634C35.7027 49.082 35.1037 48.8978 34.6148 49.1472Z" fill="url(#paint1_linear)"/>
<path d="M83.9932 31.0902H74.9005L52.4313 29.1363C51.9801 26.7403 49.8893 25.0038 47.4512 25H45.4209C42.6195 25.0033 40.3492 27.2737 40.3459 30.0755V37.1808C40.3459 38.3018 41.2548 39.2107 42.3758 39.2107H45.4209V42.2558C44.8606 42.2558 44.4062 42.7103 44.4062 43.271C44.4062 43.8317 44.8606 44.2862 45.4209 44.2862H47.4512C48.012 44.2862 48.4664 43.8317 48.4664 43.271C48.4664 42.7103 48.012 42.2558 47.4512 42.2558V39.2107H50.4963C51.6178 39.2107 52.5267 38.3018 52.5267 37.1808V36.4642L74.6019 42.2237C74.6856 42.2449 74.7715 42.2558 74.8575 42.2558H83.9932C85.1142 42.2558 86.0231 41.3469 86.0231 40.2259V33.1206C86.0231 31.9991 85.1142 31.0902 83.9932 31.0902ZM42.3758 37.1808V30.0755C42.3758 28.3932 43.7391 27.0299 45.4209 27.0299H47.4512C49.133 27.0299 50.4963 28.3932 50.4963 30.0755V37.1808H42.3758ZM52.5267 31.1828L73.8428 33.036V39.9274L52.5267 34.3667V31.1828ZM83.9932 40.2259H75.8727V33.1206H83.9932V40.2259Z" fill="url(#paint2_linear)"/>
</g>
<defs>
<filter id="filter0_d" x="0" y="0" width="111.438" height="111.438" filterUnits="userSpaceOnUse" color-interpolation-filters="sRGB">
<feFlood flood-opacity="0" result="BackgroundImageFix"/>
<feColorMatrix in="SourceAlpha" type="matrix" values="0 0 0 0 0 0 0 0 0 0 0 0 0 0 0 0 0 0 127 0"/>
<feOffset/>
<feGaussianBlur stdDeviation="3"/>
<feColorMatrix type="matrix" values="0 0 0 0 0 0 0 0 0 0 0 0 0 0 0 0 0 0 0.15 0"/>
<feBlend mode="normal" in2="BackgroundImageFix" result="effect1_dropShadow"/>
<feBlend mode="normal" in="SourceGraphic" in2="effect1_dropShadow" result="shape"/>
</filter>
<linearGradient id="paint0_linear" x1="55.5716" y1="44.2812" x2="55.5716" y2="85.95" gradientUnits="userSpaceOnUse">
<stop stop-color="#18BBEB"/>
<stop offset="1" stop-color="#0170B0"/>
</linearGradient>
<linearGradient id="paint1_linear" x1="33.6185" y1="49.0361" x2="33.6185" y2="57.4818" gradientUnits="userSpaceOnUse">
<stop stop-color="#18BBEB"/>
<stop offset="1" stop-color="#0170B0"/>
</linearGradient>
<linearGradient id="paint2_linear" x1="63.1845" y1="25" x2="63.1845" y2="44.2862" gradientUnits="userSpaceOnUse">
<stop stop-color="#18BBEB"/>
<stop offset="1" stop-color="#0170B0"/>
</linearGradient>
<clipPath id="clip0">
<rect width="60.95" height="60.95" fill="white" transform="translate(25 25)"/>
</clipPath>
</defs>
</svg>
