<svg width="113" height="112" viewBox="0 0 113 112" fill="none" xmlns="http://www.w3.org/2000/svg">
<g filter="url(#filter0_d)">
<rect x="6.60791" y="6.36926" width="99.4385" height="99.4385" rx="10" fill="white"/>
</g>
<g clip-path="url(#clip0)">
<path d="M80.705 63.7763V62.1847C80.705 60.502 79.3408 59.1373 77.6576 59.1373H75.6261C73.9462 59.1373 72.5834 60.4969 72.5787 62.1768C70.5822 61.9145 68.5158 61.7104 66.4844 61.5579V60.1532C66.4844 58.4705 65.1202 57.1058 63.4375 57.1058H61.406C59.7228 57.1058 58.3586 58.4705 58.3586 60.1532V61.1864C57.6477 61.1752 56.9711 61.1692 56.3272 61.1692C55.6832 61.1692 55.0066 61.1752 54.2957 61.1864V60.1532C54.2957 58.4705 52.9315 57.1058 51.2483 57.1058H49.2169C47.5341 57.1058 46.1699 58.4705 46.1699 60.1532V61.5579C44.1385 61.7104 42.0712 61.9145 40.0751 62.1768C40.0709 60.4969 38.7076 59.1373 37.0282 59.1373H34.9967C33.3135 59.1373 31.9493 60.502 31.9493 62.1847V63.7763C28.3109 64.8448 25.855 66.3066 25.855 68.279V76.4053C25.8573 77.1274 26.2442 77.7941 26.8705 78.154V79.4522C26.8705 81.1354 28.2352 82.4996 29.9179 82.4996H31.1207C31.5494 83.7127 32.6942 84.5255 33.9808 84.5311H37.0282C37.5531 84.5278 38.0678 84.3879 38.5221 84.1247C39.0778 85.0081 40.0477 85.5447 41.0911 85.5466H45.154C45.6789 85.5438 46.1941 85.4038 46.6484 85.1406C47.2035 86.0236 48.1735 86.5607 49.2169 86.5625H54.2957C55.0476 86.5597 55.772 86.2775 56.3272 85.7702C56.8823 86.2775 57.6067 86.5597 58.3586 86.5625H63.4375C64.4808 86.5607 65.4503 86.0236 66.0059 85.1406C66.4602 85.4038 66.9754 85.5438 67.5003 85.5466H71.5632C72.6066 85.5447 73.5766 85.0081 74.1322 84.1247C74.586 84.3879 75.1012 84.5278 75.6261 84.5311H78.6735C79.9601 84.5255 81.1049 83.7127 81.5336 82.4996H82.7364C84.4192 82.4996 85.7834 81.1354 85.7834 79.4522V78.154C86.4101 77.7941 86.797 77.1274 86.7993 76.4053V68.279C86.7993 66.3066 84.3434 64.8448 80.705 63.7763ZM74.6106 62.1847C74.6106 61.6239 75.0654 61.1692 75.6261 61.1692H77.6576C78.2188 61.1692 78.6735 61.6239 78.6735 62.1847V63.2453C77.4018 62.9505 76.0325 62.6924 74.6106 62.4692V62.1847ZM60.39 60.1532C60.39 59.5925 60.8448 59.1373 61.406 59.1373H63.4375C63.9982 59.1373 64.4529 59.5925 64.4529 60.1532V61.4207C63.0543 61.3366 61.6901 61.2766 60.39 61.2362V60.1532ZM48.2014 60.1532C48.2014 59.5925 48.6561 59.1373 49.2169 59.1373H51.2483C51.8095 59.1373 52.2643 59.5925 52.2643 60.1532V61.2362C50.9642 61.2766 49.6 61.3375 48.2014 61.4207V60.1532ZM33.9808 62.1847C33.9808 61.6239 34.4355 61.1692 34.9967 61.1692H37.0282C37.5889 61.1692 38.0437 61.6239 38.0437 62.1847V62.4692C36.6218 62.6924 35.2525 62.9505 33.9808 63.2453V62.1847ZM56.3272 63.2006C74.7292 63.2006 84.7679 66.5526 84.7679 68.279V74.2994C84.2745 73.8517 83.6287 73.609 82.9629 73.6211C82.3091 73.6229 81.6735 73.8368 81.1518 74.2302C80.42 72.9389 79.0278 72.1652 77.5451 72.2252C76.1562 72.2285 74.8329 72.8167 73.8992 73.8456C73.0693 72.4912 71.566 71.6979 69.9796 71.7775C68.3675 71.777 66.8359 72.4823 65.7879 73.7071C64.8905 72.1531 63.198 71.2334 61.406 71.3264C59.362 71.3278 57.4547 72.354 56.3272 74.0586C55.1996 72.354 53.2923 71.3278 51.2483 71.3264C49.4545 71.233 47.7601 72.1545 46.8636 73.7113C45.8156 72.4861 44.2835 71.7812 42.6715 71.7816C41.0869 71.7026 39.5855 72.4935 38.7551 73.8456C37.8214 72.819 36.4995 72.2327 35.1125 72.2294C33.6283 72.168 32.2348 72.9422 31.5025 74.2343C30.9808 73.8405 30.3452 73.6266 29.6914 73.6248C29.0261 73.6122 28.3802 73.8531 27.8864 74.2994V68.279C27.8864 66.5526 37.9251 63.2006 56.3272 63.2006ZM28.9024 79.4522V76.7433C28.9024 76.5615 28.9396 75.6525 29.6914 75.6525C30.4679 75.779 31.0119 76.4876 30.9338 77.2706V80.4682H29.9179C29.3571 80.4682 28.9024 80.0134 28.9024 79.4522ZM37.0282 82.4996H33.9808C33.42 82.4996 32.9653 82.0449 32.9653 81.4837V76.4053C32.9276 75.8259 33.1415 75.2582 33.5521 74.8476C33.9626 74.4371 34.5299 74.2232 35.1092 74.2608C36.7292 74.2627 38.0423 75.5753 38.0437 77.1953V81.4837C38.0437 82.0449 37.5889 82.4996 37.0282 82.4996ZM45.154 83.5151H41.0911C40.5299 83.5151 40.0751 83.0604 40.0751 82.4996V76.4053C40.0412 75.7064 40.3039 75.0262 40.7981 74.5319C41.2929 74.0372 41.9731 73.775 42.6715 73.8089C44.603 73.8112 46.1681 75.3768 46.1699 77.3083V82.4996C46.1699 83.0604 45.7152 83.5151 45.154 83.5151ZM54.2957 84.5311H49.2169C48.6561 84.5311 48.2014 84.0763 48.2014 83.5151V76.4053C48.1614 75.5855 48.4701 74.7872 49.0499 74.2069C49.6302 73.6266 50.4286 73.3184 51.2483 73.3579C53.4922 73.3579 55.3112 75.1768 55.3112 77.4208V83.5151C55.3112 84.0763 54.8565 84.5311 54.2957 84.5311ZM64.4529 83.5151C64.4529 84.0763 63.9982 84.5311 63.4375 84.5311H58.3586C57.7978 84.5311 57.3426 84.0763 57.3426 83.5151V77.4208C57.3426 75.1768 59.1621 73.3579 61.406 73.3579C62.2253 73.3184 63.0236 73.6266 63.6039 74.2069C64.1842 74.7872 64.4925 75.5855 64.4529 76.4053V83.5151ZM72.5787 82.4996C72.5787 83.0604 72.124 83.5151 71.5632 83.5151H67.5003C66.9391 83.5151 66.4844 83.0604 66.4844 82.4996V77.3083C66.4862 75.3768 68.0513 73.8112 69.9828 73.8089C70.6812 73.775 71.3614 74.0372 71.8562 74.5319C72.3504 75.0262 72.6131 75.7064 72.5787 76.4053V82.4996ZM79.689 81.4837C79.689 82.0449 79.2343 82.4996 78.6735 82.4996H75.6261C75.0654 82.4996 74.6106 82.0449 74.6106 81.4837V77.1953C74.612 75.5753 75.9251 74.2627 77.5451 74.2608C78.1244 74.2232 78.6917 74.4371 79.1022 74.8476C79.5128 75.2582 79.7267 75.8259 79.689 76.4053V81.4837ZM83.7519 79.4522C83.7519 80.0134 83.2972 80.4682 82.7364 80.4682H81.7205V77.2706C81.6424 76.4876 82.1864 75.779 82.9629 75.6525C83.7147 75.6525 83.7519 76.5666 83.7519 76.7433V79.4522Z" fill="url(#paint0_linear)"/>
<path d="M86.4111 27.8328L86.7324 26.9991C86.9337 26.4751 86.6724 25.8869 86.1484 25.6856C85.6243 25.4843 85.0362 25.7456 84.8348 26.2696L84.5149 27.1038C81.7739 34.1443 75.0059 38.7926 67.4506 38.8233H45.2056C37.6498 38.7935 30.8804 34.1452 28.1394 27.1038L27.8195 26.2696C27.6181 25.7456 27.03 25.4843 26.5059 25.6856C25.9819 25.8869 25.7206 26.4751 25.9219 26.9991L26.2428 27.8328C29.2888 35.6559 36.8087 40.8203 45.2037 40.8547H67.4483C75.8442 40.8213 83.3651 35.6564 86.4111 27.8328Z" fill="url(#paint1_linear)"/>
<path d="M50.2327 55.0743C50.7935 55.0743 51.2482 54.6196 51.2482 54.0588V46.3534L52.5617 47.6669C52.9602 48.0514 53.594 48.0463 53.9855 47.6543C54.3774 47.2624 54.383 46.6291 53.998 46.2306L50.9506 43.1832C50.9418 43.1739 50.9292 43.1711 50.9204 43.1628C50.8334 43.0777 50.7325 43.0093 50.6214 42.9596C50.6135 42.9596 50.6033 42.9596 50.5954 42.9535C50.4926 42.9154 50.3848 42.894 50.275 42.8907C50.2411 42.8907 50.2076 42.8931 50.1737 42.8968C50.0886 42.9019 50.0044 42.9182 49.924 42.9456C49.8891 42.9554 49.8552 42.967 49.8221 42.981C49.7092 43.0293 49.6059 43.0986 49.5176 43.1841L46.4702 46.2315C46.0852 46.63 46.0908 47.2633 46.4827 47.6553C46.8742 48.0472 47.508 48.0528 47.9065 47.6678L49.2168 46.3534V54.0588C49.2168 54.6196 49.6715 55.0743 50.2327 55.0743Z" fill="url(#paint2_linear)"/>
<path d="M62.4215 55.0743C62.9827 55.0743 63.4375 54.6196 63.4375 54.0588V46.3534L64.7505 47.6669C65.149 48.0514 65.7828 48.0463 66.1747 47.6543C66.5662 47.2624 66.5718 46.6291 66.1868 46.2306L63.1399 43.1832C63.1306 43.1739 63.1185 43.1711 63.1092 43.1628C63.0227 43.0777 62.9213 43.0093 62.8107 42.9596C62.8023 42.9596 62.7921 42.9596 62.7842 42.9535C62.6819 42.9154 62.5736 42.894 62.4643 42.8907C62.4303 42.8907 62.3964 42.8931 62.3625 42.8968C62.2774 42.9019 62.1937 42.9182 62.1128 42.9456C62.0784 42.9554 62.0444 42.967 62.0114 42.981C61.898 43.0293 61.7947 43.0986 61.7064 43.1841L58.6594 46.2315C58.2745 46.63 58.28 47.2633 58.6715 47.6553C59.0635 48.0472 59.6968 48.0528 60.0957 47.6678L61.406 46.3534V54.0588C61.406 54.6196 61.8608 55.0743 62.4215 55.0743Z" fill="url(#paint3_linear)"/>
<path d="M76.6421 57.1058C77.2028 57.1058 77.6576 56.6511 77.6576 56.0903V48.3849L78.9711 49.6984C79.3696 50.0829 80.0029 50.0778 80.3948 49.6858C80.7868 49.2939 80.7924 48.6606 80.4074 48.2621L77.36 45.2147C77.3507 45.2054 77.3386 45.2026 77.3298 45.1942C77.2428 45.1096 77.1419 45.0408 77.0308 44.9911C77.022 44.9911 77.0127 44.9911 77.0034 44.985C76.9011 44.9473 76.7937 44.926 76.6844 44.9222C76.6505 44.9222 76.6165 44.9246 76.583 44.9283C76.4975 44.9334 76.4133 44.9497 76.332 44.9771C76.2985 44.9883 76.2659 44.9976 76.2306 45.0115C76.1176 45.0603 76.0144 45.1292 75.926 45.2147L72.8786 48.2621C72.4936 48.6606 72.4992 49.2939 72.8912 49.6858C73.2827 50.0778 73.9164 50.0829 74.3149 49.6984L75.6261 48.3849V56.0903C75.6261 56.6511 76.0809 57.1058 76.6421 57.1058Z" fill="url(#paint4_linear)"/>
<path d="M34.9967 57.1057C35.5575 57.1057 36.0122 56.651 36.0122 56.0902V48.3848L37.3257 49.6983C37.7242 50.0828 38.358 50.0777 38.7495 49.6857C39.1414 49.2938 39.147 48.6605 38.762 48.262L35.7146 45.2146C35.7058 45.2053 35.6932 45.2025 35.6844 45.1941C35.5974 45.1095 35.4965 45.0407 35.3854 44.9909C35.3775 44.9909 35.3673 44.9909 35.358 44.9849C35.2562 44.9468 35.1483 44.9258 35.039 44.9231C35.0055 44.9226 34.9716 44.924 34.9376 44.9282C34.8521 44.9333 34.7679 44.9496 34.6866 44.977C34.5341 45.0212 34.3946 45.1021 34.2806 45.2127L31.2332 48.2597C30.8482 48.6582 30.8538 49.2919 31.2458 49.6839C31.6373 50.0754 32.2711 50.081 32.6695 49.696L33.9807 48.3848V56.0902C33.9807 56.651 34.4355 57.1057 34.9967 57.1057Z" fill="url(#paint5_linear)"/>
</g>
<defs>
<filter id="filter0_d" x="0.60791" y="0.369263" width="111.438" height="111.438" filterUnits="userSpaceOnUse" color-interpolation-filters="sRGB">
<feFlood flood-opacity="0" result="BackgroundImageFix"/>
<feColorMatrix in="SourceAlpha" type="matrix" values="0 0 0 0 0 0 0 0 0 0 0 0 0 0 0 0 0 0 127 0"/>
<feOffset/>
<feGaussianBlur stdDeviation="3"/>
<feColorMatrix type="matrix" values="0 0 0 0 0 0 0 0 0 0 0 0 0 0 0 0 0 0 0.15 0"/>
<feBlend mode="normal" in2="BackgroundImageFix" result="effect1_dropShadow"/>
<feBlend mode="normal" in="SourceGraphic" in2="effect1_dropShadow" result="shape"/>
</filter>
<linearGradient id="paint0_linear" x1="56.3272" y1="57.1058" x2="56.3272" y2="86.5625" gradientUnits="userSpaceOnUse">
<stop stop-color="#18BBEB"/>
<stop offset="1" stop-color="#0170B0"/>
</linearGradient>
<linearGradient id="paint1_linear" x1="56.3272" y1="25.6177" x2="56.3272" y2="40.8547" gradientUnits="userSpaceOnUse">
<stop stop-color="#18BBEB"/>
<stop offset="1" stop-color="#0170B0"/>
</linearGradient>
<linearGradient id="paint2_linear" x1="50.2341" y1="42.8907" x2="50.2341" y2="55.0743" gradientUnits="userSpaceOnUse">
<stop stop-color="#18BBEB"/>
<stop offset="1" stop-color="#0170B0"/>
</linearGradient>
<linearGradient id="paint3_linear" x1="62.4231" y1="42.8907" x2="62.4231" y2="55.0743" gradientUnits="userSpaceOnUse">
<stop stop-color="#18BBEB"/>
<stop offset="1" stop-color="#0170B0"/>
</linearGradient>
<linearGradient id="paint4_linear" x1="76.643" y1="44.9222" x2="76.643" y2="57.1058" gradientUnits="userSpaceOnUse">
<stop stop-color="#18BBEB"/>
<stop offset="1" stop-color="#0170B0"/>
</linearGradient>
<linearGradient id="paint5_linear" x1="34.9976" y1="44.923" x2="34.9976" y2="57.1057" gradientUnits="userSpaceOnUse">
<stop stop-color="#18BBEB"/>
<stop offset="1" stop-color="#0170B0"/>
</linearGradient>
<clipPath id="clip0">
<rect width="60.9461" height="60.9461" fill="white" transform="translate(25.854 25.6154)"/>
</clipPath>
</defs>
</svg>
