<svg width="112" height="112" viewBox="0 0 112 112" fill="none" xmlns="http://www.w3.org/2000/svg">
<g filter="url(#filter0_d)">
<rect x="6.21533" y="6" width="99.4385" height="99.4385" rx="10" fill="white"/>
</g>
<g clip-path="url(#clip0)">
<path d="M39.8969 47.8923C39.2821 47.5553 38.5103 47.7806 38.1732 48.3957L38.1477 48.4419C37.8107 49.0568 38.0359 49.8287 38.6511 50.1656C38.8448 50.2718 39.0539 50.3221 39.2602 50.3221C39.709 50.3221 40.1439 50.0836 40.3749 49.6622L40.4003 49.6161C40.7373 49.0011 40.5119 48.2293 39.8969 47.8923Z" fill="url(#paint0_linear)"/>
<path d="M80.5307 51.9294C78.534 44.1578 72.9357 37.6974 65.3819 34.6784C64.077 30.6036 60.2404 27.7852 55.9347 27.7852C51.519 27.7852 47.7695 30.6863 46.4882 34.6821C41.9388 36.5043 38.0429 39.5782 35.1926 43.6053C33.3919 46.1496 32.0937 48.9622 31.3336 51.9297C28.055 52.1746 25.4615 54.9185 25.4615 58.2585C25.4615 61.6004 28.0576 64.3457 31.3388 64.5878C34.1584 75.538 44.1165 83.6529 55.9347 83.6529C67.7527 83.6529 77.7108 75.538 80.5303 64.5878C83.8115 64.3457 86.4077 61.6004 86.4077 58.2582C86.4077 54.9167 83.8118 52.1717 80.5307 51.9294ZM28.0012 58.2582C28.0012 56.5061 29.1907 55.0267 30.8043 54.5843C30.6953 55.34 30.6194 56.103 30.5782 56.8718C30.5775 56.8825 30.5771 56.893 30.5765 56.9037C30.5691 57.0437 30.5626 57.1838 30.5576 57.3242C30.5556 57.3774 30.5545 57.4306 30.5531 57.4838C30.55 57.5845 30.5467 57.6851 30.5448 57.7859C30.5421 57.9434 30.5404 58.1009 30.5404 58.2584C30.5404 58.4506 30.5434 58.6427 30.5479 58.8351C30.5492 58.8953 30.5509 58.9553 30.5528 59.0153C30.5569 59.1552 30.5623 59.295 30.5688 59.4348C30.5714 59.4941 30.5738 59.5535 30.5767 59.6129C30.586 59.7874 30.5972 59.9616 30.6099 60.1359C30.616 60.2178 30.6232 60.2992 30.6298 60.3809C30.6385 60.4842 30.6476 60.5876 30.6574 60.6908C30.6661 60.7818 30.6751 60.8728 30.6847 60.9634C30.6959 61.0696 30.7086 61.1757 30.7211 61.2816C30.7377 61.4204 30.7554 61.5588 30.7741 61.6968C30.7848 61.7758 30.7947 61.8548 30.8061 61.9333C29.1915 61.4916 28.0012 60.0113 28.0012 58.2582ZM55.9347 30.3248C58.4496 30.3248 60.7497 31.6163 62.0922 33.6379C62.067 33.6377 62.0416 33.6375 62.0163 33.6375C61.9998 33.6375 61.9839 33.6387 61.9675 33.6388C61.9611 33.6391 61.9547 33.639 61.9483 33.6393C57.9948 33.6761 54.7899 36.9022 54.7899 40.8641C54.7899 42.4058 55.2742 43.8716 56.1445 45.081C56.0746 45.0829 56.0045 45.084 55.9347 45.084C51.8658 45.084 48.5554 41.7736 48.5554 37.7046C48.5553 33.6353 51.8656 30.3248 55.9347 30.3248ZM78.7812 58.86C78.7805 58.8909 78.7787 58.9216 78.7778 58.9526C78.7725 59.1227 78.7663 59.2929 78.7574 59.463C78.7559 59.4933 78.7535 59.5237 78.7517 59.5541C78.7421 59.7239 78.7313 59.8939 78.718 60.0636C78.7154 60.0979 78.7117 60.132 78.7088 60.1662C78.6953 60.3303 78.6804 60.4942 78.6634 60.6579C78.6587 60.7035 78.6528 60.7488 78.6478 60.7943C78.6311 60.9443 78.6137 61.094 78.5942 61.2436C78.586 61.3063 78.5767 61.3685 78.5679 61.4309C78.55 61.5603 78.5317 61.6895 78.5114 61.8185C78.4981 61.9024 78.4839 61.9857 78.4697 62.0694C78.4522 62.1738 78.4347 62.2781 78.4157 62.3821C78.3964 62.4879 78.3758 62.5931 78.3549 62.6983C78.3395 62.7771 78.324 62.856 78.3076 62.9347C76.1436 73.3016 66.9343 81.1133 55.9345 81.1133C44.9266 81.1133 35.7118 73.2905 33.5566 62.9123C33.537 62.8182 33.5191 62.7236 33.5008 62.6291C33.4832 62.5389 33.4653 62.4486 33.4488 62.3581C33.4255 62.2297 33.4042 62.1008 33.383 61.972C33.3734 61.9129 33.3628 61.8538 33.3536 61.7945C33.3284 61.6315 33.3053 61.4681 33.2834 61.3045C33.2797 61.2767 33.2752 61.2491 33.2717 61.2214C33.2467 61.0287 33.2238 60.8353 33.2037 60.642C33.2037 60.6412 33.2035 60.6401 33.2035 60.6393C33.1212 59.8489 33.0797 59.0536 33.0797 58.2587C33.0797 58.0793 33.0827 57.8998 33.087 57.7204C33.0885 57.6615 33.0903 57.6027 33.0922 57.5439C33.0959 57.4232 33.1009 57.3025 33.1066 57.1818C33.1098 57.1116 33.1129 57.0412 33.1168 56.9711C33.1229 56.8642 33.1305 56.7573 33.138 56.6505C33.1512 56.466 33.1661 56.2819 33.1836 56.0982C33.1856 56.0771 33.1873 56.0561 33.1893 56.0351C33.9697 48.1324 38.8641 41.1193 46.0167 37.6646C46.0167 37.6781 46.0158 37.6913 46.0158 37.7047C46.0158 38.6137 46.141 39.4934 46.3711 40.3302C44.092 41.5437 42.0907 43.1607 40.4131 45.1487C39.9608 45.6848 40.0287 46.4859 40.5648 46.938C40.8031 47.1391 41.0938 47.2372 41.383 47.2372C41.7442 47.2372 42.1029 47.0839 42.354 46.7863C43.7711 45.107 45.452 43.7307 47.3606 42.6822C49.0809 45.6339 52.2789 47.6236 55.9347 47.6236C57.0558 47.6236 58.1574 47.4372 59.2082 47.0697C59.6659 46.9096 59.9925 46.5029 60.0499 46.0213C60.1073 45.5398 59.8853 45.0676 59.478 44.8046C58.1326 43.9355 57.3294 42.4626 57.3294 40.8643C57.3294 38.3323 59.3478 36.2643 61.8602 36.1813C70.2943 38.4379 76.5669 45.2575 78.3047 53.5693C78.3334 53.7068 78.3614 53.8445 78.3874 53.9826C78.401 54.0547 78.4135 54.1273 78.4267 54.1997C78.447 54.3127 78.4668 54.4259 78.4854 54.5392C78.4966 54.6071 78.5072 54.675 78.5178 54.7431C78.5374 54.8706 78.5562 54.9982 78.5736 55.1261C78.581 55.1793 78.5886 55.2325 78.5956 55.2858C78.644 55.6569 78.6834 56.0295 78.7137 56.4028C78.7172 56.4456 78.7199 56.4886 78.7231 56.5316C78.7341 56.6752 78.7435 56.819 78.7517 56.9628C78.7548 57.0186 78.7578 57.0747 78.7605 57.1306C78.7674 57.2675 78.7725 57.4045 78.7768 57.5414C78.7786 57.5944 78.7805 57.6473 78.7819 57.7002C78.7865 57.8864 78.7893 58.0725 78.7893 58.2585C78.7892 58.459 78.7865 58.6596 78.7812 58.86ZM81.0631 61.9333C81.0771 61.8374 81.0897 61.741 81.1025 61.6447C81.1161 61.543 81.1292 61.4411 81.1417 61.339C81.1573 61.2109 81.1722 61.0826 81.1858 60.9543C81.1948 60.8702 81.203 60.7859 81.2108 60.7016C81.2216 60.591 81.2313 60.4804 81.2405 60.3698C81.2468 60.2931 81.2536 60.2167 81.2592 60.1398C81.2723 59.9635 81.2835 59.7872 81.2929 59.6106C81.2961 59.5537 81.298 59.4967 81.3007 59.4397C81.3071 59.2976 81.3126 59.1558 81.3168 59.0136C81.3186 58.9545 81.3202 58.8952 81.3218 58.8359C81.326 58.6434 81.329 58.4509 81.329 58.2582C81.329 58.0907 81.327 57.9233 81.3238 57.7558C81.3225 57.695 81.3205 57.6342 81.3188 57.5734C81.3161 57.4683 81.3129 57.3632 81.3089 57.258C81.306 57.1832 81.3021 57.1085 81.2988 57.0338C81.2944 56.9434 81.2899 56.8531 81.2844 56.7629C81.2798 56.6817 81.2746 56.6008 81.2691 56.5198C81.2633 56.4365 81.2571 56.3534 81.2506 56.2702C81.2441 56.1858 81.2375 56.1013 81.23 56.0172C81.2227 55.9357 81.2148 55.8547 81.2068 55.7734C81.1987 55.6897 81.1908 55.6059 81.1819 55.5222C81.1718 55.4277 81.1603 55.3336 81.1489 55.2393C81.1364 55.1344 81.1237 55.0298 81.1099 54.9252C81.0948 54.8112 81.0799 54.6972 81.0634 54.5835C82.6782 55.0251 83.8683 56.5052 83.8683 58.258C83.8681 60.0115 82.678 61.4916 81.0631 61.9333Z" fill="url(#paint1_linear)"/>
<path d="M51.4178 59.7282C50.8238 57.5118 48.8067 55.9637 46.512 55.9637C44.2177 55.9637 42.2003 57.5118 41.6062 59.7282C41.4247 60.4057 41.8267 61.1019 42.504 61.2834C43.1815 61.4647 43.8776 61.063 44.0592 60.3857C44.3563 59.2773 45.3649 58.5032 46.5119 58.5032C47.659 58.5032 48.6676 59.2773 48.9646 60.3857C49.1166 60.9529 49.6298 61.327 50.1903 61.327C50.299 61.327 50.4097 61.313 50.5198 61.2834C51.1975 61.1019 51.5994 60.4057 51.4178 59.7282Z" fill="url(#paint2_linear)"/>
<path d="M65.3576 55.9637C63.0629 55.9637 61.0455 57.5119 60.4516 59.7284C60.2702 60.4058 60.6722 61.102 61.3496 61.2834C62.0268 61.4651 62.7232 61.0629 62.9046 60.3856C63.2016 59.2773 64.2102 58.5033 65.3574 58.5033C66.5046 58.5033 67.5132 59.2773 67.8102 60.3857C67.9622 60.9529 68.4751 61.327 69.0359 61.327C69.1445 61.327 69.2552 61.313 69.3654 61.2834C70.0428 61.1019 70.4446 60.4056 70.2631 59.7282C69.6691 57.5119 67.652 55.9637 65.3576 55.9637Z" fill="url(#paint3_linear)"/>
<path d="M59.9428 68.637C59.2656 68.4556 58.5691 68.8573 58.3876 69.5349C58.0905 70.6432 57.0819 71.4173 55.9349 71.4173C54.7876 71.4173 53.779 70.6432 53.4822 69.5349C53.3006 68.8574 52.6044 68.4554 51.927 68.637C51.2495 68.8185 50.8477 69.5147 51.0292 70.1922C51.6232 72.4089 53.6404 73.9568 55.935 73.9568C58.2294 73.9568 60.2468 72.4087 60.8408 70.1922C61.0221 69.5149 60.6201 68.8185 59.9428 68.637Z" fill="url(#paint4_linear)"/>
</g>
<defs>
<filter id="filter0_d" x="0.215332" y="0" width="111.438" height="111.438" filterUnits="userSpaceOnUse" color-interpolation-filters="sRGB">
<feFlood flood-opacity="0" result="BackgroundImageFix"/>
<feColorMatrix in="SourceAlpha" type="matrix" values="0 0 0 0 0 0 0 0 0 0 0 0 0 0 0 0 0 0 127 0"/>
<feOffset/>
<feGaussianBlur stdDeviation="3"/>
<feColorMatrix type="matrix" values="0 0 0 0 0 0 0 0 0 0 0 0 0 0 0 0 0 0 0.15 0"/>
<feBlend mode="normal" in2="BackgroundImageFix" result="effect1_dropShadow"/>
<feBlend mode="normal" in="SourceGraphic" in2="effect1_dropShadow" result="shape"/>
</filter>
<linearGradient id="paint0_linear" x1="39.274" y1="47.7358" x2="39.274" y2="50.3221" gradientUnits="userSpaceOnUse">
<stop stop-color="#18BBEB"/>
<stop offset="1" stop-color="#0170B0"/>
</linearGradient>
<linearGradient id="paint1_linear" x1="55.9346" y1="27.7852" x2="55.9346" y2="83.6529" gradientUnits="userSpaceOnUse">
<stop stop-color="#18BBEB"/>
<stop offset="1" stop-color="#0170B0"/>
</linearGradient>
<linearGradient id="paint2_linear" x1="46.512" y1="55.9637" x2="46.512" y2="61.327" gradientUnits="userSpaceOnUse">
<stop stop-color="#18BBEB"/>
<stop offset="1" stop-color="#0170B0"/>
</linearGradient>
<linearGradient id="paint3_linear" x1="65.3574" y1="55.9637" x2="65.3574" y2="61.3271" gradientUnits="userSpaceOnUse">
<stop stop-color="#18BBEB"/>
<stop offset="1" stop-color="#0170B0"/>
</linearGradient>
<linearGradient id="paint4_linear" x1="55.935" y1="68.5934" x2="55.935" y2="73.9568" gradientUnits="userSpaceOnUse">
<stop stop-color="#18BBEB"/>
<stop offset="1" stop-color="#0170B0"/>
</linearGradient>
<clipPath id="clip0">
<rect width="60.9461" height="60.9461" fill="white" transform="translate(25.4615 25.2461)"/>
</clipPath>
</defs>
</svg>
