<svg width="113" height="112" viewBox="0 0 113 112" fill="none" xmlns="http://www.w3.org/2000/svg">
<g filter="url(#filter0_d)">
<rect x="6.89996" y="6.36938" width="99.4385" height="99.4385" rx="10" fill="white"/>
</g>
<g clip-path="url(#clip0)">
<path d="M81.3908 30.3691C80.5038 27.6561 78.0095 25.7918 75.1561 25.7091C72.1941 25.8046 70.3472 28.3697 69.6058 30.7387C69.4238 31.3734 69.2981 32.0231 69.231 32.68C69.1885 33.0051 69.146 33.3312 69.0831 33.6601C69.0647 33.7617 69.0392 33.8501 69.0188 33.9456C59.6487 33.9158 54.9542 42.4112 54.0922 44.1706C53.5894 45.2088 53.3687 46.361 53.4523 47.5117L51.709 49.5801L50.5918 50.9C46.3732 50.1397 38.1552 51.2209 26.8829 64.5919C25.7691 65.9137 25.9373 67.8885 27.2591 69.0024C28.5809 70.1167 30.5557 69.948 31.6696 68.6262C32.3369 67.8342 32.9895 67.1031 33.618 66.4146L33.6284 66.4065V66.3985C44.1819 54.9372 50.0782 57.2178 50.0923 57.2188C51.4051 57.9659 53.0639 57.671 54.0383 56.5175L56.4399 53.6679L57.1507 54.0743C57.1667 54.0852 57.1842 54.0956 57.2017 54.1055L57.6351 54.3536L55.0751 57.3894C54.1163 58.5118 54.0813 60.1544 54.992 61.3165C55.0293 61.3732 58.3345 66.7945 48.7885 79.1787H48.7824V79.1887C48.2101 79.9301 47.5986 80.6924 46.9313 81.4844C46.1478 82.4149 45.9743 83.715 46.4861 84.8184C46.9979 85.9219 48.1023 86.6288 49.3187 86.6317C49.409 86.6317 49.4993 86.6279 49.59 86.6194C50.4175 86.5518 51.1835 86.1553 51.717 85.5188C62.9813 72.1568 62.6594 63.8783 61.194 59.8458L62.3112 58.5198L64.0375 56.4688C65.1929 56.3559 66.2973 55.9348 67.2349 55.2501C70.0576 53.2076 72.2961 50.461 73.7276 47.2839C74.3547 47.1261 74.9444 46.8463 75.4638 46.4607C76.3796 45.827 77.2392 45.1158 78.0332 44.3341C78.6782 43.7694 79.4282 43.337 80.2405 43.062C80.5449 42.9462 80.8639 42.8498 81.1777 42.7571C81.8128 42.5795 82.4314 42.346 83.0259 42.0596C85.2342 40.9283 87.4501 38.6741 87.0437 35.7418C86.4908 32.9324 84.2248 30.7784 81.3908 30.3691ZM66.7822 42.6007C67.0681 42.8521 67.4381 42.9878 67.819 42.9816C68.5297 42.9816 69.5907 42.5757 71.2541 41.3153C70.4474 43.0275 69.3789 44.6035 68.0869 45.9862C67.1205 46.9025 65.6626 47.0637 64.5195 46.3804L63.6982 45.9092L63.6514 45.8808L61.0347 44.3738C62.0134 42.1976 64.6192 39.8532 66.9466 38.1056C66.8044 38.3717 66.6702 38.6429 66.5482 38.918C66.2052 39.6755 65.4008 41.4373 66.7822 42.6007ZM65.9433 36.3146C63.5063 38.1118 60.4365 40.7823 59.1856 43.5402C58.2021 43.3502 57.1847 43.5856 56.3842 44.1871C57.5987 42.0615 60.6954 37.6141 65.9433 36.3146ZM29.3667 67.7094C29.0756 67.7378 28.786 67.6461 28.5643 67.4557C28.1012 67.0639 28.0421 66.3716 28.4325 65.907C28.863 65.3995 29.2874 64.9109 29.707 64.4378L31.3842 65.8541C30.965 66.3253 30.5416 66.8115 30.1101 67.3233C29.9234 67.5459 29.656 67.6848 29.3667 67.7094ZM32.7631 64.3584L31.0798 62.9398C35.9426 57.7854 40.0611 55.1456 43.3204 53.864L44.1228 55.9296C41.19 57.0747 37.3754 59.4914 32.7631 64.3584ZM56.6256 58.7036L59.4233 55.3843L60.1789 55.8167C60.1907 55.8238 60.2049 55.8257 60.2181 55.8327C60.2314 55.8398 60.2304 55.8441 60.2385 55.8483C60.6553 56.0374 61.09 56.1848 61.5361 56.2878L59.2494 59.0042C59.0013 59.2986 58.9412 59.7088 59.0944 60.0623C59.7796 61.7881 60.0239 63.6576 59.8051 65.502L57.6095 65.055C57.8222 63.3788 57.4957 61.678 56.6776 60.1993C56.6587 60.1705 56.6384 60.1426 56.6167 60.1161C56.2755 59.7041 56.2797 59.1062 56.6266 58.6994L56.6256 58.7036ZM52.6343 81.1087L50.9515 79.6872C54.9674 74.3188 56.7088 70.1493 57.3364 67.0658L59.5074 67.5072C58.8009 70.9385 56.8879 75.445 52.6343 81.1087ZM49.4114 84.6062C49.1203 84.6355 48.8301 84.5434 48.6089 84.352C48.1458 83.9607 48.0867 83.2679 48.4771 82.8038C48.9085 82.2958 49.3168 81.7883 49.7096 81.2997L51.3881 82.7155C50.9931 83.2098 50.5871 83.7093 50.1566 84.2201C49.9699 84.4432 49.701 84.5826 49.4114 84.6062ZM66.0497 53.606C65.2955 54.1527 64.3919 54.4557 63.4605 54.4741H63.4534C62.6642 54.4935 61.8797 54.3432 61.1534 54.0337L58.2452 52.3693L58.2007 52.3419L56.7183 51.4898C56.6847 51.4718 56.6469 51.4709 56.6167 51.4553C56.5543 51.427 56.4886 51.4052 56.4215 51.3906C56.361 51.3783 56.2996 51.3712 56.2377 51.3702C56.1696 51.3684 56.1016 51.3736 56.0349 51.3854C55.9735 51.3962 55.9135 51.4132 55.8558 51.4359C55.7944 51.4586 55.7348 51.4874 55.6796 51.5224C55.6233 51.5579 55.5709 51.5994 55.5241 51.6462C55.4929 51.6675 55.4626 51.6911 55.4348 51.7162L52.4897 55.2146C52.1466 55.6191 51.5639 55.7226 51.1027 55.4604C51.0729 55.4429 51.0422 55.4273 51.0105 55.4136C49.4147 54.8555 47.6827 54.8195 46.0651 55.312L45.2532 53.2232C47.0343 52.6953 48.9189 52.6216 50.7365 53.0082C51.1103 53.0989 51.5034 52.9704 51.7515 52.676L57.3496 46.0349C57.8236 45.4763 58.6284 45.3346 59.265 45.697L62.6013 47.61L62.649 47.6393L63.5124 48.1331C65.4476 49.2711 67.904 48.9804 69.5207 47.4224C70.9068 45.9593 72.0617 44.2939 72.9469 42.4831C72.3061 48.8803 66.7921 53.0701 66.0497 53.606ZM82.0996 40.244C81.6091 40.4756 81.0997 40.6646 80.5765 40.8087C80.224 40.9184 79.8719 41.028 79.5317 41.1551C78.4675 41.5228 77.4873 42.0984 76.6471 42.8479C76.0158 43.4542 75.3456 44.0194 74.6415 44.5392C75.1505 42.389 75.1557 40.1504 74.6566 37.9979C74.5541 37.5546 74.1689 37.2332 73.7143 37.212C73.3448 37.2058 72.9998 37.3963 72.8075 37.7115C72.3396 37.8693 71.9096 38.1217 71.5433 38.453C70.5264 39.468 69.3393 40.2974 68.0359 40.9032C68.0827 40.4973 68.2074 40.1046 68.4036 39.7464C68.8284 38.8433 69.3298 37.9776 69.9016 37.1591C70.4961 36.2059 70.8969 35.1445 71.0802 34.0358C71.1492 33.6734 71.1979 33.3085 71.2456 32.9442C71.3014 32.4036 71.403 31.8681 71.5504 31.345C72.058 29.7203 73.3263 27.8002 75.2303 27.7393C77.3697 27.8527 79.1617 29.3975 79.5898 31.4962C79.5898 31.5095 79.6007 31.5184 79.6026 31.5317C79.6049 31.5449 79.6026 31.5614 79.6026 31.5766C79.905 32.7561 79.8927 33.9947 79.5671 35.1681C79.3497 35.6851 79.5926 36.2805 80.1096 36.4984C80.6266 36.7158 81.2221 36.4729 81.4395 35.9559C81.8307 34.8676 81.9565 33.7012 81.8071 32.5543C83.4342 33.0326 84.6714 34.3581 85.0362 36.014C85.2933 37.8934 83.6157 39.4685 82.0996 40.244Z" fill="url(#paint0_linear)"/>
<path d="M61.6439 50.0684C61.6439 50.6294 61.1893 51.084 60.6284 51.084C60.0679 51.084 59.6133 50.6294 59.6133 50.0684C59.6133 49.5075 60.0679 49.0529 60.6284 49.0529C61.1893 49.0529 61.6439 49.5075 61.6439 50.0684Z" fill="url(#paint1_linear)"/>
<path d="M77.1962 29.8117C76.1282 29.4431 74.952 29.5612 73.9785 30.1349C73.1657 30.7724 72.7276 31.7766 72.8136 32.8064C72.8136 33.3673 73.2682 33.8219 73.8291 33.8219C74.3901 33.8219 74.8447 33.3673 74.8447 32.8064C74.8017 32.4359 74.9175 32.0644 75.1632 31.7837C75.6065 31.5937 76.1051 31.5781 76.5597 31.7402C77.0923 31.916 77.6669 31.6263 77.8427 31.0938C78.0185 30.5612 77.7288 29.9865 77.1962 29.8107V29.8117Z" fill="url(#paint2_linear)"/>
</g>
<defs>
<filter id="filter0_d" x="0.899963" y="0.369385" width="111.438" height="111.438" filterUnits="userSpaceOnUse" color-interpolation-filters="sRGB">
<feFlood flood-opacity="0" result="BackgroundImageFix"/>
<feColorMatrix in="SourceAlpha" type="matrix" values="0 0 0 0 0 0 0 0 0 0 0 0 0 0 0 0 0 0 127 0"/>
<feOffset/>
<feGaussianBlur stdDeviation="3"/>
<feColorMatrix type="matrix" values="0 0 0 0 0 0 0 0 0 0 0 0 0 0 0 0 0 0 0.15 0"/>
<feBlend mode="normal" in2="BackgroundImageFix" result="effect1_dropShadow"/>
<feBlend mode="normal" in="SourceGraphic" in2="effect1_dropShadow" result="shape"/>
</filter>
<linearGradient id="paint0_linear" x1="56.6192" y1="25.7091" x2="56.6192" y2="86.6317" gradientUnits="userSpaceOnUse">
<stop stop-color="#18BBEB"/>
<stop offset="1" stop-color="#0170B0"/>
</linearGradient>
<linearGradient id="paint1_linear" x1="60.6286" y1="49.0529" x2="60.6286" y2="51.084" gradientUnits="userSpaceOnUse">
<stop stop-color="#18BBEB"/>
<stop offset="1" stop-color="#0170B0"/>
</linearGradient>
<linearGradient id="paint2_linear" x1="75.3485" y1="29.6006" x2="75.3485" y2="33.8219" gradientUnits="userSpaceOnUse">
<stop stop-color="#18BBEB"/>
<stop offset="1" stop-color="#0170B0"/>
</linearGradient>
<clipPath id="clip0">
<rect width="60.9461" height="60.9461" fill="white" transform="translate(26.1462 25.6155)"/>
</clipPath>
</defs>
</svg>
