<svg width="21" height="22" viewBox="0 0 21 22" fill="none" xmlns="http://www.w3.org/2000/svg">
<path d="M19.2683 17.3291C18.7666 16.1371 18.0386 15.0544 17.1247 14.1413C16.2137 13.2255 15.1344 12.4953 13.9466 11.9911C13.9359 11.9858 13.9253 11.9831 13.9147 11.9778C15.5716 10.7773 16.6487 8.82195 16.6487 6.6158C16.6487 2.9611 13.6966 0 10.053 0C6.40939 0 3.45728 2.9611 3.45728 6.6158C3.45728 8.82195 4.5344 10.7773 6.1913 11.9805C6.18066 11.9858 6.17003 11.9885 6.15939 11.9938C4.96791 12.498 3.89876 13.2209 2.98122 14.1439C2.06822 15.0578 1.34028 16.1403 0.837614 17.3318C0.343794 18.4982 0.0774649 19.7488 0.053045 21.0158C0.0523352 21.0443 0.0573139 21.0726 0.0676881 21.0991C0.0780622 21.1256 0.0936218 21.1498 0.11345 21.1702C0.133278 21.1906 0.156974 21.2068 0.18314 21.2178C0.209307 21.2289 0.237416 21.2346 0.26581 21.2346H1.86154C1.97856 21.2346 2.07165 21.1412 2.07431 21.0265C2.1275 18.9671 2.95196 17.0383 4.4094 15.5765C5.91737 14.0639 7.92001 13.2316 10.053 13.2316C12.1859 13.2316 14.1886 14.0639 15.6966 15.5765C17.154 17.0383 17.9785 18.9671 18.0316 21.0265C18.0343 21.1439 18.1274 21.2346 18.2444 21.2346H19.8401C19.8685 21.2346 19.8967 21.2289 19.9228 21.2178C19.949 21.2068 19.9727 21.1906 19.9925 21.1702C20.0123 21.1498 20.0279 21.1256 20.0383 21.0991C20.0486 21.0726 20.0536 21.0443 20.0529 21.0158C20.0263 19.7407 19.763 18.5002 19.2683 17.3291ZM10.053 11.2042C8.83224 11.2042 7.68331 10.7267 6.81896 9.85967C5.9546 8.99268 5.47854 7.84025 5.47854 6.6158C5.47854 5.39134 5.9546 4.23891 6.81896 3.37192C7.68331 2.50493 8.83224 2.02742 10.053 2.02742C11.2737 2.02742 12.4226 2.50493 13.287 3.37192C14.1514 4.23891 14.6274 5.39134 14.6274 6.6158C14.6274 7.84025 14.1514 8.99268 13.287 9.85967C12.4226 10.7267 11.2737 11.2042 10.053 11.2042Z" fill="#A3A3A3"/>
</svg>
