<svg width="113" height="112" viewBox="0 0 113 112" fill="none" xmlns="http://www.w3.org/2000/svg">
<g filter="url(#filter0_d)">
<rect x="6.84619" y="6.00012" width="99.4385" height="99.4385" rx="10" fill="white"/>
</g>
<g clip-path="url(#clip0)">
<path d="M32.6127 56.1707C34.6273 57.9094 38.683 60.1664 46.5698 61.2207L48.0797 68.5613L46.4876 69.0821C45.421 69.394 44.6091 70.2621 44.369 71.3471C44.1285 72.4317 44.498 73.5616 45.3326 74.2946C46.1677 75.028 47.3354 75.2487 48.3803 74.8702L49.3259 74.5654L49.7654 76.691L48.3439 77.1537C46.7971 77.7142 45.9744 79.4013 46.4857 80.965C46.997 82.5288 48.6577 83.404 50.2366 82.9418L51.1444 82.6455C52.2082 85.0216 54.6835 86.4399 57.2718 86.1563C59.8597 85.8732 61.9693 83.9527 62.4938 81.4026L63.0453 78.7543L65.6062 77.9174C67.0741 77.4448 67.9554 75.9486 67.6577 74.4359C67.3595 72.9232 65.9767 71.8731 64.4394 71.9922L64.9664 69.4478L67.7154 68.549C69.1964 68.0504 70.0598 66.5117 69.7139 64.9876C69.368 63.464 67.9252 62.4489 66.3737 62.638L66.6653 61.2165C74.5522 60.1626 78.6078 57.9051 80.6224 56.167C81.9003 55.0531 82.7854 53.5578 83.1479 51.9019C84.8997 44.2325 84.2008 34.1004 79.4741 29.5745C73.6131 23.948 63.1531 23.8156 56.6197 29.1265C50.0844 23.8156 39.6262 23.948 33.7611 29.5816C29.0343 34.1075 28.3354 44.2395 30.0872 51.909C30.4502 53.5635 31.3358 55.0578 32.6127 56.1707ZM48.6931 61.4613C51.1231 61.6966 53.7705 61.8237 56.6197 61.8237C59.4689 61.8237 62.1172 61.6966 64.5472 61.4613L64.1705 63.3024L50.0192 67.9266L48.6931 61.4613ZM60.51 80.9934C60.1243 82.836 58.502 84.1578 56.6197 84.1634C55.1353 84.1639 53.7762 83.3312 53.1023 82.0085L60.8195 79.4854L60.51 80.9934ZM65.1228 74.1197C65.489 74.3055 65.7069 74.6939 65.6752 75.1032C65.644 75.5124 65.369 75.8626 64.9787 75.9902L51.5423 80.3838L49.6132 81.0156C49.2654 81.1404 48.877 81.0662 48.5996 80.8223C48.3222 80.578 48.1993 80.2023 48.2787 79.8417C48.3581 79.4807 48.6274 79.1914 48.9814 79.0861L64.3482 74.0597C64.4503 74.0266 64.5571 74.0092 64.6649 74.0092C64.8241 74.0096 64.981 74.0474 65.1228 74.1197ZM62.242 72.6117L51.7077 76.054L51.2682 73.9298L62.7429 70.178L62.242 72.6117ZM66.774 64.6408C67.127 64.6403 67.455 64.8236 67.6397 65.1247C67.8245 65.4257 67.8396 65.8009 67.6799 66.1161C67.5594 66.3576 67.3467 66.5405 67.0897 66.6237L47.7499 72.943C47.2239 73.0957 46.6714 72.8041 46.5013 72.2833C46.3312 71.7625 46.6043 71.2006 47.119 71.0135L66.4574 64.6923C66.5594 64.6587 66.6662 64.6412 66.774 64.6408ZM35.1665 31.0466C37.9349 28.5594 41.5501 27.2248 45.2712 27.317C49.1837 27.2612 52.9799 28.6492 55.933 31.2162C56.3721 31.6397 62.4452 37.4533 67.7896 37.4533C68.35 37.4533 68.8046 36.9987 68.8046 36.4377C68.8046 35.8768 68.35 35.4222 67.7896 35.4222C64.2221 35.4222 59.9443 32.0489 58.1712 30.5045C63.8931 26.1015 73.0777 26.2551 78.0738 31.0466C82.2098 35.0073 82.7571 44.5174 81.172 51.4572C80.9046 52.6892 80.2481 53.8026 79.2997 54.6334C77.4372 56.2397 73.5654 58.355 65.6989 59.3044C62.6848 59.6461 59.6532 59.8091 56.6197 59.793C53.5867 59.8082 50.5551 59.6447 47.5415 59.3025C39.674 58.355 35.8031 56.2388 33.9397 54.6334C32.9912 53.8026 32.3348 52.6892 32.0673 51.4572C30.4823 44.5188 31.0305 35.0082 35.1665 31.0466Z" fill="url(#paint0_linear)"/>
<path d="M35.0437 46.5079C35.3603 46.5084 35.6589 46.361 35.8513 46.1096C36.0436 45.8577 36.1079 45.5311 36.0243 45.2254C33.7568 36.9132 39.0525 34.1722 39.2964 34.0517C39.7846 33.7984 39.9826 33.203 39.7434 32.7082C39.5038 32.2129 38.9141 31.9984 38.4127 32.2238C38.3418 32.2573 31.3353 35.7516 34.0645 45.7594C34.185 46.2012 34.5857 46.5075 35.0437 46.5079Z" fill="url(#paint1_linear)"/>
<path d="M43.4187 31.3604C43.4187 31.9214 42.964 32.376 42.4036 32.376C41.8426 32.376 41.388 31.9214 41.388 31.3604C41.388 30.8 41.8426 30.3453 42.4036 30.3453C42.964 30.3453 43.4187 30.8 43.4187 31.3604Z" fill="url(#paint2_linear)"/>
</g>
<defs>
<filter id="filter0_d" x="0.846191" y="0.00012207" width="111.438" height="111.438" filterUnits="userSpaceOnUse" color-interpolation-filters="sRGB">
<feFlood flood-opacity="0" result="BackgroundImageFix"/>
<feColorMatrix in="SourceAlpha" type="matrix" values="0 0 0 0 0 0 0 0 0 0 0 0 0 0 0 0 0 0 127 0"/>
<feOffset/>
<feGaussianBlur stdDeviation="3"/>
<feColorMatrix type="matrix" values="0 0 0 0 0 0 0 0 0 0 0 0 0 0 0 0 0 0 0.15 0"/>
<feBlend mode="normal" in2="BackgroundImageFix" result="effect1_dropShadow"/>
<feBlend mode="normal" in="SourceGraphic" in2="effect1_dropShadow" result="shape"/>
</filter>
<linearGradient id="paint0_linear" x1="56.6176" y1="25.2461" x2="56.6176" y2="86.1922" gradientUnits="userSpaceOnUse">
<stop stop-color="#18BBEB"/>
<stop offset="1" stop-color="#0170B0"/>
</linearGradient>
<linearGradient id="paint1_linear" x1="36.6393" y1="32.1343" x2="36.6393" y2="46.5079" gradientUnits="userSpaceOnUse">
<stop stop-color="#18BBEB"/>
<stop offset="1" stop-color="#0170B0"/>
</linearGradient>
<linearGradient id="paint2_linear" x1="42.4033" y1="30.3453" x2="42.4033" y2="32.376" gradientUnits="userSpaceOnUse">
<stop stop-color="#18BBEB"/>
<stop offset="1" stop-color="#0170B0"/>
</linearGradient>
<clipPath id="clip0">
<rect width="60.9461" height="60.9461" fill="white" transform="translate(26.0923 25.2462)"/>
</clipPath>
</defs>
</svg>
