<svg width="1920" height="2887" viewBox="0 0 1920 2887" fill="none" xmlns="http://www.w3.org/2000/svg">
<path d="M-22.9999 2275C2.40091 1966.4 367.375 1057.9 832.374 1304.06C1297.37 1550.22 1864.17 592.626 1951.5 0.499529" stroke="#18BBEB" stroke-opacity="0.4"/>
<circle cx="628.65" cy="1264.65" r="11" transform="rotate(-16.3343 628.65 1264.65)" fill="white"/>
<circle cx="628.65" cy="1264.65" r="10.5" transform="rotate(-16.3343 628.65 1264.65)" stroke="#18BBEB" stroke-opacity="0.4"/>
<circle r="11" transform="matrix(0.959636 -0.281245 0.281238 0.959638 1776.65 550.65)" fill="white"/>
<circle r="10.5" transform="matrix(0.959636 -0.281245 0.281238 0.959638 1776.65 550.65)" stroke="#18BBEB" stroke-opacity="0.4"/>
<circle cx="1212.65" cy="1272.65" r="11" transform="rotate(-16.3343 1212.65 1272.65)" fill="white"/>
<circle cx="1212.65" cy="1272.65" r="10.5" transform="rotate(-16.3343 1212.65 1272.65)" stroke="#18BBEB" stroke-opacity="0.4"/>
<path d="M1938 2886.5C1826.83 2597.5 1362.5 2315 985.5 2682C608.5 3049 75.3333 2728.67 -175 2185" stroke="#18BBEB" stroke-opacity="0.4"/>
<circle r="11" transform="matrix(-1 0 0 1 650 2837)" fill="white"/>
<circle r="10.5" transform="matrix(-1 0 0 1 650 2837)" stroke="#18BBEB" stroke-opacity="0.4"/>
<path d="M1526 2531C1526 2537.08 1530.92 2542 1537 2542C1543.08 2542 1548 2537.08 1548 2531C1548 2524.92 1543.08 2520 1537 2520C1530.92 2520 1526 2524.92 1526 2531Z" fill="white"/>
<path d="M1526.5 2531C1526.5 2536.8 1531.2 2541.5 1537 2541.5C1542.8 2541.5 1547.5 2536.8 1547.5 2531C1547.5 2525.2 1542.8 2520.5 1537 2520.5C1531.2 2520.5 1526.5 2525.2 1526.5 2531Z" stroke="#18BBEB" stroke-opacity="0.4"/>
<circle r="11" transform="matrix(-1 0 0 1 243 2707)" fill="white"/>
<circle r="10.5" transform="matrix(-1 0 0 1 243 2707)" stroke="#18BBEB" stroke-opacity="0.4"/>
</svg>
